<?xml version="1.0" encoding="utf-8" standalone="no"?>
<!DOCTYPE svg PUBLIC "-//W3C//DTD SVG 1.1//EN"
  "http://www.w3.org/Graphics/SVG/1.1/DTD/svg11.dtd">
<!-- Created with matplotlib (https://matplotlib.org/) -->
<svg height="271.48pt" version="1.1" viewBox="0 0 515.54074 271.48" width="515.54074pt" xmlns="http://www.w3.org/2000/svg" xmlns:xlink="http://www.w3.org/1999/xlink">
 <defs>
  <style type="text/css">
*{stroke-linecap:butt;stroke-linejoin:round;}
  </style>
 </defs>
 <g id="figure_1">
  <g id="patch_1">
   <path d="M 0 271.48 
L 515.54074 271.48 
L 515.54074 0 
L 0 0 
z
" style="fill:none;"/>
  </g>
  <g id="axes_1">
   <g id="patch_2">
    <path d="M 287.977391 54.469565 
L 360.76 54.469565 
L 360.76 7.2 
L 287.977391 7.2 
z
" style="fill:none;"/>
   </g>
   <g id="patch_3">
    <path clip-path="url(#p0598feefcd)" d="M 295.638719 49.493822 
L 299.469382 49.493822 
L 299.469382 47.00595 
L 295.638719 47.00595 
z
" style="fill:#006400;stroke:#006400;stroke-linejoin:miter;"/>
   </g>
   <g id="patch_4">
    <path clip-path="url(#p0598feefcd)" d="M 303.300046 49.493822 
L 307.130709 49.493822 
L 307.130709 47.00595 
L 303.300046 47.00595 
z
" style="fill:#006400;stroke:#006400;stroke-linejoin:miter;"/>
   </g>
   <g id="patch_5">
    <path clip-path="url(#p0598feefcd)" d="M 310.961373 49.493822 
L 314.792037 49.493822 
L 314.792037 47.00595 
L 310.961373 47.00595 
z
" style="fill:#006400;stroke:#006400;stroke-linejoin:miter;"/>
   </g>
   <g id="patch_6">
    <path clip-path="url(#p0598feefcd)" d="M 318.6227 49.493822 
L 322.453364 49.493822 
L 322.453364 47.00595 
L 318.6227 47.00595 
z
" style="fill:#006400;stroke:#006400;stroke-linejoin:miter;"/>
   </g>
   <g id="patch_7">
    <path clip-path="url(#p0598feefcd)" d="M 295.638719 44.518078 
L 299.469382 44.518078 
L 299.469382 42.030206 
L 295.638719 42.030206 
z
" style="fill:#006400;stroke:#006400;stroke-linejoin:miter;"/>
   </g>
   <g id="patch_8">
    <path clip-path="url(#p0598feefcd)" d="M 303.300046 44.518078 
L 307.130709 44.518078 
L 307.130709 42.030206 
L 303.300046 42.030206 
z
" style="fill:#006400;stroke:#006400;stroke-linejoin:miter;"/>
   </g>
   <g id="patch_9">
    <path clip-path="url(#p0598feefcd)" d="M 310.961373 44.518078 
L 314.792037 44.518078 
L 314.792037 42.030206 
L 310.961373 42.030206 
z
" style="fill:#006400;stroke:#006400;stroke-linejoin:miter;"/>
   </g>
   <g id="patch_10">
    <path clip-path="url(#p0598feefcd)" d="M 318.6227 44.518078 
L 322.453364 44.518078 
L 322.453364 42.030206 
L 318.6227 42.030206 
z
" style="fill:#006400;stroke:#006400;stroke-linejoin:miter;"/>
   </g>
   <g id="patch_11">
    <path clip-path="url(#p0598feefcd)" d="M 295.638719 39.542334 
L 299.469382 39.542334 
L 299.469382 37.054462 
L 295.638719 37.054462 
z
" style="fill:#006400;stroke:#006400;stroke-linejoin:miter;"/>
   </g>
   <g id="patch_12">
    <path clip-path="url(#p0598feefcd)" d="M 303.300046 39.542334 
L 307.130709 39.542334 
L 307.130709 37.054462 
L 303.300046 37.054462 
z
" style="fill:#006400;stroke:#006400;stroke-linejoin:miter;"/>
   </g>
   <g id="patch_13">
    <path clip-path="url(#p0598feefcd)" d="M 310.961373 39.542334 
L 314.792037 39.542334 
L 314.792037 37.054462 
L 310.961373 37.054462 
z
" style="fill:#006400;stroke:#006400;stroke-linejoin:miter;"/>
   </g>
   <g id="patch_14">
    <path clip-path="url(#p0598feefcd)" d="M 318.6227 39.542334 
L 322.453364 39.542334 
L 322.453364 37.054462 
L 318.6227 37.054462 
z
" style="fill:#006400;stroke:#006400;stroke-linejoin:miter;"/>
   </g>
   <g id="patch_15">
    <path clip-path="url(#p0598feefcd)" d="M 295.638719 34.56659 
L 299.469382 34.56659 
L 299.469382 32.078719 
L 295.638719 32.078719 
z
" style="fill:#006400;stroke:#006400;stroke-linejoin:miter;"/>
   </g>
   <g id="patch_16">
    <path clip-path="url(#p0598feefcd)" d="M 303.300046 34.56659 
L 307.130709 34.56659 
L 307.130709 32.078719 
L 303.300046 32.078719 
z
" style="fill:#006400;stroke:#006400;stroke-linejoin:miter;"/>
   </g>
   <g id="patch_17">
    <path clip-path="url(#p0598feefcd)" d="M 310.961373 34.56659 
L 314.792037 34.56659 
L 314.792037 32.078719 
L 310.961373 32.078719 
z
" style="fill:#006400;stroke:#006400;stroke-linejoin:miter;"/>
   </g>
   <g id="patch_18">
    <path clip-path="url(#p0598feefcd)" d="M 295.638719 29.590847 
L 299.469382 29.590847 
L 299.469382 27.102975 
L 295.638719 27.102975 
z
" style="fill:#006400;stroke:#006400;stroke-linejoin:miter;"/>
   </g>
   <g id="patch_19">
    <path clip-path="url(#p0598feefcd)" d="M 303.300046 29.590847 
L 307.130709 29.590847 
L 307.130709 27.102975 
L 303.300046 27.102975 
z
" style="fill:#006400;stroke:#006400;stroke-linejoin:miter;"/>
   </g>
   <g id="patch_20">
    <path clip-path="url(#p0598feefcd)" d="M 310.961373 29.590847 
L 314.792037 29.590847 
L 314.792037 27.102975 
L 310.961373 27.102975 
z
" style="fill:#006400;stroke:#006400;stroke-linejoin:miter;"/>
   </g>
   <g id="patch_21">
    <path clip-path="url(#p0598feefcd)" d="M 303.300046 24.615103 
L 307.130709 24.615103 
L 307.130709 22.127231 
L 303.300046 22.127231 
z
" style="fill:#006400;stroke:#006400;stroke-linejoin:miter;"/>
   </g>
   <g id="patch_22">
    <path clip-path="url(#p0598feefcd)" d="M 310.961373 24.615103 
L 314.792037 24.615103 
L 314.792037 22.127231 
L 310.961373 22.127231 
z
" style="fill:#006400;stroke:#006400;stroke-linejoin:miter;"/>
   </g>
   <g id="patch_23">
    <path clip-path="url(#p0598feefcd)" d="M 303.300046 19.639359 
L 307.130709 19.639359 
L 307.130709 17.151487 
L 303.300046 17.151487 
z
" style="fill:#006400;stroke:#006400;stroke-linejoin:miter;"/>
   </g>
   <g id="patch_24">
    <path clip-path="url(#p0598feefcd)" d="M 310.961373 19.639359 
L 314.792037 19.639359 
L 314.792037 17.151487 
L 310.961373 17.151487 
z
" style="fill:#006400;stroke:#006400;stroke-linejoin:miter;"/>
   </g>
   <g id="matplotlib.axis_1"/>
   <g id="matplotlib.axis_2"/>
  </g>
  <g id="axes_2">
   <g id="patch_25">
    <path d="M 287.977391 111.193043 
L 360.76 111.193043 
L 360.76 63.923478 
L 287.977391 63.923478 
z
" style="fill:none;"/>
   </g>
   <g id="patch_26">
    <path d="M 280.69913 59.196522 
L 368.038261 59.196522 
L 368.038261 58.723826 
L 280.69913 58.723826 
z
" style="fill:none;stroke:#000000;stroke-linejoin:miter;"/>
   </g>
   <g id="patch_27">
    <path clip-path="url(#p0129e9d919)" d="M 295.638719 106.2173 
L 299.469382 106.2173 
L 299.469382 103.729428 
L 295.638719 103.729428 
z
" style="fill:#006400;stroke:#006400;stroke-linejoin:miter;"/>
   </g>
   <g id="patch_28">
    <path clip-path="url(#p0129e9d919)" d="M 303.300046 106.2173 
L 307.130709 106.2173 
L 307.130709 103.729428 
L 303.300046 103.729428 
z
" style="fill:#006400;stroke:#006400;stroke-linejoin:miter;"/>
   </g>
   <g id="patch_29">
    <path clip-path="url(#p0129e9d919)" d="M 310.961373 106.2173 
L 314.792037 106.2173 
L 314.792037 103.729428 
L 310.961373 103.729428 
z
" style="fill:#006400;stroke:#006400;stroke-linejoin:miter;"/>
   </g>
   <g id="patch_30">
    <path clip-path="url(#p0129e9d919)" d="M 318.6227 106.2173 
L 322.453364 106.2173 
L 322.453364 103.729428 
L 318.6227 103.729428 
z
" style="fill:#006400;stroke:#006400;stroke-linejoin:miter;"/>
   </g>
   <g id="patch_31">
    <path clip-path="url(#p0129e9d919)" d="M 326.284027 106.2173 
L 330.114691 106.2173 
L 330.114691 103.729428 
L 326.284027 103.729428 
z
" style="fill:#ff0000;stroke:#ff0000;stroke-linejoin:miter;"/>
   </g>
   <g id="patch_32">
    <path clip-path="url(#p0129e9d919)" d="M 333.945355 106.2173 
L 337.776018 106.2173 
L 337.776018 103.729428 
L 333.945355 103.729428 
z
" style="fill:#ff0000;stroke:#ff0000;stroke-linejoin:miter;"/>
   </g>
   <g id="patch_33">
    <path clip-path="url(#p0129e9d919)" d="M 295.638719 101.241556 
L 299.469382 101.241556 
L 299.469382 98.753684 
L 295.638719 98.753684 
z
" style="fill:#006400;stroke:#006400;stroke-linejoin:miter;"/>
   </g>
   <g id="patch_34">
    <path clip-path="url(#p0129e9d919)" d="M 303.300046 101.241556 
L 307.130709 101.241556 
L 307.130709 98.753684 
L 303.300046 98.753684 
z
" style="fill:#006400;stroke:#006400;stroke-linejoin:miter;"/>
   </g>
   <g id="patch_35">
    <path clip-path="url(#p0129e9d919)" d="M 310.961373 101.241556 
L 314.792037 101.241556 
L 314.792037 98.753684 
L 310.961373 98.753684 
z
" style="fill:#006400;stroke:#006400;stroke-linejoin:miter;"/>
   </g>
   <g id="patch_36">
    <path clip-path="url(#p0129e9d919)" d="M 318.6227 101.241556 
L 322.453364 101.241556 
L 322.453364 98.753684 
L 318.6227 98.753684 
z
" style="fill:#006400;stroke:#006400;stroke-linejoin:miter;"/>
   </g>
   <g id="patch_37">
    <path clip-path="url(#p0129e9d919)" d="M 326.284027 101.241556 
L 330.114691 101.241556 
L 330.114691 98.753684 
L 326.284027 98.753684 
z
" style="fill:#ff0000;stroke:#ff0000;stroke-linejoin:miter;"/>
   </g>
   <g id="patch_38">
    <path clip-path="url(#p0129e9d919)" d="M 295.638719 96.265812 
L 299.469382 96.265812 
L 299.469382 93.777941 
L 295.638719 93.777941 
z
" style="fill:#006400;stroke:#006400;stroke-linejoin:miter;"/>
   </g>
   <g id="patch_39">
    <path clip-path="url(#p0129e9d919)" d="M 303.300046 96.265812 
L 307.130709 96.265812 
L 307.130709 93.777941 
L 303.300046 93.777941 
z
" style="fill:#006400;stroke:#006400;stroke-linejoin:miter;"/>
   </g>
   <g id="patch_40">
    <path clip-path="url(#p0129e9d919)" d="M 310.961373 96.265812 
L 314.792037 96.265812 
L 314.792037 93.777941 
L 310.961373 93.777941 
z
" style="fill:#006400;stroke:#006400;stroke-linejoin:miter;"/>
   </g>
   <g id="patch_41">
    <path clip-path="url(#p0129e9d919)" d="M 318.6227 96.265812 
L 322.453364 96.265812 
L 322.453364 93.777941 
L 318.6227 93.777941 
z
" style="fill:#006400;stroke:#006400;stroke-linejoin:miter;"/>
   </g>
   <g id="patch_42">
    <path clip-path="url(#p0129e9d919)" d="M 326.284027 96.265812 
L 330.114691 96.265812 
L 330.114691 93.777941 
L 326.284027 93.777941 
z
" style="fill:#ff0000;stroke:#ff0000;stroke-linejoin:miter;"/>
   </g>
   <g id="patch_43">
    <path clip-path="url(#p0129e9d919)" d="M 295.638719 91.290069 
L 299.469382 91.290069 
L 299.469382 88.802197 
L 295.638719 88.802197 
z
" style="fill:#006400;stroke:#006400;stroke-linejoin:miter;"/>
   </g>
   <g id="patch_44">
    <path clip-path="url(#p0129e9d919)" d="M 303.300046 91.290069 
L 307.130709 91.290069 
L 307.130709 88.802197 
L 303.300046 88.802197 
z
" style="fill:#006400;stroke:#006400;stroke-linejoin:miter;"/>
   </g>
   <g id="patch_45">
    <path clip-path="url(#p0129e9d919)" d="M 310.961373 91.290069 
L 314.792037 91.290069 
L 314.792037 88.802197 
L 310.961373 88.802197 
z
" style="fill:#006400;stroke:#006400;stroke-linejoin:miter;"/>
   </g>
   <g id="patch_46">
    <path clip-path="url(#p0129e9d919)" d="M 318.6227 91.290069 
L 322.453364 91.290069 
L 322.453364 88.802197 
L 318.6227 88.802197 
z
" style="fill:#ff0000;stroke:#ff0000;stroke-linejoin:miter;"/>
   </g>
   <g id="patch_47">
    <path clip-path="url(#p0129e9d919)" d="M 326.284027 91.290069 
L 330.114691 91.290069 
L 330.114691 88.802197 
L 326.284027 88.802197 
z
" style="fill:#ff0000;stroke:#ff0000;stroke-linejoin:miter;"/>
   </g>
   <g id="patch_48">
    <path clip-path="url(#p0129e9d919)" d="M 295.638719 86.314325 
L 299.469382 86.314325 
L 299.469382 83.826453 
L 295.638719 83.826453 
z
" style="fill:#006400;stroke:#006400;stroke-linejoin:miter;"/>
   </g>
   <g id="patch_49">
    <path clip-path="url(#p0129e9d919)" d="M 303.300046 86.314325 
L 307.130709 86.314325 
L 307.130709 83.826453 
L 303.300046 83.826453 
z
" style="fill:#006400;stroke:#006400;stroke-linejoin:miter;"/>
   </g>
   <g id="patch_50">
    <path clip-path="url(#p0129e9d919)" d="M 310.961373 86.314325 
L 314.792037 86.314325 
L 314.792037 83.826453 
L 310.961373 83.826453 
z
" style="fill:#006400;stroke:#006400;stroke-linejoin:miter;"/>
   </g>
   <g id="patch_51">
    <path clip-path="url(#p0129e9d919)" d="M 318.6227 86.314325 
L 322.453364 86.314325 
L 322.453364 83.826453 
L 318.6227 83.826453 
z
" style="fill:#ff0000;stroke:#ff0000;stroke-linejoin:miter;"/>
   </g>
   <g id="patch_52">
    <path clip-path="url(#p0129e9d919)" d="M 326.284027 86.314325 
L 330.114691 86.314325 
L 330.114691 83.826453 
L 326.284027 83.826453 
z
" style="fill:#ff0000;stroke:#ff0000;stroke-linejoin:miter;"/>
   </g>
   <g id="patch_53">
    <path clip-path="url(#p0129e9d919)" d="M 303.300046 81.338581 
L 307.130709 81.338581 
L 307.130709 78.850709 
L 303.300046 78.850709 
z
" style="fill:#006400;stroke:#006400;stroke-linejoin:miter;"/>
   </g>
   <g id="patch_54">
    <path clip-path="url(#p0129e9d919)" d="M 310.961373 81.338581 
L 314.792037 81.338581 
L 314.792037 78.850709 
L 310.961373 78.850709 
z
" style="fill:#006400;stroke:#006400;stroke-linejoin:miter;"/>
   </g>
   <g id="patch_55">
    <path clip-path="url(#p0129e9d919)" d="M 318.6227 81.338581 
L 322.453364 81.338581 
L 322.453364 78.850709 
L 318.6227 78.850709 
z
" style="fill:#ff0000;stroke:#ff0000;stroke-linejoin:miter;"/>
   </g>
   <g id="patch_56">
    <path clip-path="url(#p0129e9d919)" d="M 326.284027 81.338581 
L 330.114691 81.338581 
L 330.114691 78.850709 
L 326.284027 78.850709 
z
" style="fill:#ff0000;stroke:#ff0000;stroke-linejoin:miter;"/>
   </g>
   <g id="patch_57">
    <path clip-path="url(#p0129e9d919)" d="M 303.300046 76.362838 
L 307.130709 76.362838 
L 307.130709 73.874966 
L 303.300046 73.874966 
z
" style="fill:#006400;stroke:#006400;stroke-linejoin:miter;"/>
   </g>
   <g id="patch_58">
    <path clip-path="url(#p0129e9d919)" d="M 310.961373 76.362838 
L 314.792037 76.362838 
L 314.792037 73.874966 
L 310.961373 73.874966 
z
" style="fill:#006400;stroke:#006400;stroke-linejoin:miter;"/>
   </g>
   <g id="patch_59">
    <path clip-path="url(#p0129e9d919)" d="M 318.6227 76.362838 
L 322.453364 76.362838 
L 322.453364 73.874966 
L 318.6227 73.874966 
z
" style="fill:#ff0000;stroke:#ff0000;stroke-linejoin:miter;"/>
   </g>
   <g id="patch_60">
    <path clip-path="url(#p0129e9d919)" d="M 326.284027 76.362838 
L 330.114691 76.362838 
L 330.114691 73.874966 
L 326.284027 73.874966 
z
" style="fill:#ff0000;stroke:#ff0000;stroke-linejoin:miter;"/>
   </g>
   <g id="matplotlib.axis_3"/>
   <g id="matplotlib.axis_4"/>
   <g id="text_1">
    <!--  = 66.7% = prec -->
    <defs>
     <path id="DejaVuSans-32"/>
     <path d="M 10.59375 45.40625 
L 73.1875 45.40625 
L 73.1875 37.203125 
L 10.59375 37.203125 
z
M 10.59375 25.484375 
L 73.1875 25.484375 
L 73.1875 17.1875 
L 10.59375 17.1875 
z
" id="DejaVuSans-61"/>
     <path d="M 33.015625 40.375 
Q 26.375 40.375 22.484375 35.828125 
Q 18.609375 31.296875 18.609375 23.390625 
Q 18.609375 15.53125 22.484375 10.953125 
Q 26.375 6.390625 33.015625 6.390625 
Q 39.65625 6.390625 43.53125 10.953125 
Q 47.40625 15.53125 47.40625 23.390625 
Q 47.40625 31.296875 43.53125 35.828125 
Q 39.65625 40.375 33.015625 40.375 
z
M 52.59375 71.296875 
L 52.59375 62.3125 
Q 48.875 64.0625 45.09375 64.984375 
Q 41.3125 65.921875 37.59375 65.921875 
Q 27.828125 65.921875 22.671875 59.328125 
Q 17.53125 52.734375 16.796875 39.40625 
Q 19.671875 43.65625 24.015625 45.921875 
Q 28.375 48.1875 33.59375 48.1875 
Q 44.578125 48.1875 50.953125 41.515625 
Q 57.328125 34.859375 57.328125 23.390625 
Q 57.328125 12.15625 50.6875 5.359375 
Q 44.046875 -1.421875 33.015625 -1.421875 
Q 20.359375 -1.421875 13.671875 8.265625 
Q 6.984375 17.96875 6.984375 36.375 
Q 6.984375 53.65625 15.1875 63.9375 
Q 23.390625 74.21875 37.203125 74.21875 
Q 40.921875 74.21875 44.703125 73.484375 
Q 48.484375 72.75 52.59375 71.296875 
z
" id="DejaVuSans-54"/>
     <path d="M 10.6875 12.40625 
L 21 12.40625 
L 21 0 
L 10.6875 0 
z
" id="DejaVuSans-46"/>
     <path d="M 8.203125 72.90625 
L 55.078125 72.90625 
L 55.078125 68.703125 
L 28.609375 0 
L 18.3125 0 
L 43.21875 64.59375 
L 8.203125 64.59375 
z
" id="DejaVuSans-55"/>
     <path d="M 72.703125 32.078125 
Q 68.453125 32.078125 66.03125 28.46875 
Q 63.625 24.859375 63.625 18.40625 
Q 63.625 12.0625 66.03125 8.421875 
Q 68.453125 4.78125 72.703125 4.78125 
Q 76.859375 4.78125 79.265625 8.421875 
Q 81.6875 12.0625 81.6875 18.40625 
Q 81.6875 24.8125 79.265625 28.4375 
Q 76.859375 32.078125 72.703125 32.078125 
z
M 72.703125 38.28125 
Q 80.421875 38.28125 84.953125 32.90625 
Q 89.5 27.546875 89.5 18.40625 
Q 89.5 9.28125 84.9375 3.921875 
Q 80.375 -1.421875 72.703125 -1.421875 
Q 64.890625 -1.421875 60.34375 3.921875 
Q 55.8125 9.28125 55.8125 18.40625 
Q 55.8125 27.59375 60.375 32.9375 
Q 64.9375 38.28125 72.703125 38.28125 
z
M 22.3125 68.015625 
Q 18.109375 68.015625 15.6875 64.375 
Q 13.28125 60.75 13.28125 54.390625 
Q 13.28125 47.953125 15.671875 44.328125 
Q 18.0625 40.71875 22.3125 40.71875 
Q 26.5625 40.71875 28.96875 44.328125 
Q 31.390625 47.953125 31.390625 54.390625 
Q 31.390625 60.6875 28.953125 64.34375 
Q 26.515625 68.015625 22.3125 68.015625 
z
M 66.40625 74.21875 
L 74.21875 74.21875 
L 28.609375 -1.421875 
L 20.796875 -1.421875 
z
M 22.3125 74.21875 
Q 30.03125 74.21875 34.609375 68.875 
Q 39.203125 63.53125 39.203125 54.390625 
Q 39.203125 45.171875 34.640625 39.84375 
Q 30.078125 34.515625 22.3125 34.515625 
Q 14.546875 34.515625 10.03125 39.859375 
Q 5.515625 45.21875 5.515625 54.390625 
Q 5.515625 63.484375 10.046875 68.84375 
Q 14.59375 74.21875 22.3125 74.21875 
z
" id="DejaVuSans-37"/>
     <path d="M 18.109375 8.203125 
L 18.109375 -20.796875 
L 9.078125 -20.796875 
L 9.078125 54.6875 
L 18.109375 54.6875 
L 18.109375 46.390625 
Q 20.953125 51.265625 25.265625 53.625 
Q 29.59375 56 35.59375 56 
Q 45.5625 56 51.78125 48.09375 
Q 58.015625 40.1875 58.015625 27.296875 
Q 58.015625 14.40625 51.78125 6.484375 
Q 45.5625 -1.421875 35.59375 -1.421875 
Q 29.59375 -1.421875 25.265625 0.953125 
Q 20.953125 3.328125 18.109375 8.203125 
z
M 48.6875 27.296875 
Q 48.6875 37.203125 44.609375 42.84375 
Q 40.53125 48.484375 33.40625 48.484375 
Q 26.265625 48.484375 22.1875 42.84375 
Q 18.109375 37.203125 18.109375 27.296875 
Q 18.109375 17.390625 22.1875 11.75 
Q 26.265625 6.109375 33.40625 6.109375 
Q 40.53125 6.109375 44.609375 11.75 
Q 48.6875 17.390625 48.6875 27.296875 
z
" id="DejaVuSans-112"/>
     <path d="M 41.109375 46.296875 
Q 39.59375 47.171875 37.8125 47.578125 
Q 36.03125 48 33.890625 48 
Q 26.265625 48 22.1875 43.046875 
Q 18.109375 38.09375 18.109375 28.8125 
L 18.109375 0 
L 9.078125 0 
L 9.078125 54.6875 
L 18.109375 54.6875 
L 18.109375 46.1875 
Q 20.953125 51.171875 25.484375 53.578125 
Q 30.03125 56 36.53125 56 
Q 37.453125 56 38.578125 55.875 
Q 39.703125 55.765625 41.0625 55.515625 
z
" id="DejaVuSans-114"/>
     <path d="M 56.203125 29.59375 
L 56.203125 25.203125 
L 14.890625 25.203125 
Q 15.484375 15.921875 20.484375 11.0625 
Q 25.484375 6.203125 34.421875 6.203125 
Q 39.59375 6.203125 44.453125 7.46875 
Q 49.3125 8.734375 54.109375 11.28125 
L 54.109375 2.78125 
Q 49.265625 0.734375 44.1875 -0.34375 
Q 39.109375 -1.421875 33.890625 -1.421875 
Q 20.796875 -1.421875 13.15625 6.1875 
Q 5.515625 13.8125 5.515625 26.8125 
Q 5.515625 40.234375 12.765625 48.109375 
Q 20.015625 56 32.328125 56 
Q 43.359375 56 49.78125 48.890625 
Q 56.203125 41.796875 56.203125 29.59375 
z
M 47.21875 32.234375 
Q 47.125 39.59375 43.09375 43.984375 
Q 39.0625 48.390625 32.421875 48.390625 
Q 24.90625 48.390625 20.390625 44.140625 
Q 15.875 39.890625 15.1875 32.171875 
z
" id="DejaVuSans-101"/>
     <path d="M 48.78125 52.59375 
L 48.78125 44.1875 
Q 44.96875 46.296875 41.140625 47.34375 
Q 37.3125 48.390625 33.40625 48.390625 
Q 24.65625 48.390625 19.8125 42.84375 
Q 14.984375 37.3125 14.984375 27.296875 
Q 14.984375 17.28125 19.8125 11.734375 
Q 24.65625 6.203125 33.40625 6.203125 
Q 37.3125 6.203125 41.140625 7.25 
Q 44.96875 8.296875 48.78125 10.40625 
L 48.78125 2.09375 
Q 45.015625 0.34375 40.984375 -0.53125 
Q 36.96875 -1.421875 32.421875 -1.421875 
Q 20.0625 -1.421875 12.78125 6.34375 
Q 5.515625 14.109375 5.515625 27.296875 
Q 5.515625 40.671875 12.859375 48.328125 
Q 20.21875 56 33.015625 56 
Q 37.15625 56 41.109375 55.140625 
Q 45.0625 54.296875 48.78125 52.59375 
z
" id="DejaVuSans-99"/>
    </defs>
    <g transform="translate(375.316522 61.56)scale(0.15 -0.15)">
     <use xlink:href="#DejaVuSans-32"/>
     <use x="31.787109" xlink:href="#DejaVuSans-61"/>
     <use x="115.576172" xlink:href="#DejaVuSans-32"/>
     <use x="147.363281" xlink:href="#DejaVuSans-54"/>
     <use x="210.986328" xlink:href="#DejaVuSans-54"/>
     <use x="274.609375" xlink:href="#DejaVuSans-46"/>
     <use x="306.396484" xlink:href="#DejaVuSans-55"/>
     <use x="370.019531" xlink:href="#DejaVuSans-37"/>
     <use x="465.039062" xlink:href="#DejaVuSans-32"/>
     <use x="496.826172" xlink:href="#DejaVuSans-61"/>
     <use x="580.615234" xlink:href="#DejaVuSans-32"/>
     <use x="612.402344" xlink:href="#DejaVuSans-112"/>
     <use x="675.878906" xlink:href="#DejaVuSans-114"/>
     <use x="716.960938" xlink:href="#DejaVuSans-101"/>
     <use x="778.484375" xlink:href="#DejaVuSans-99"/>
    </g>
   </g>
  </g>
  <g id="axes_3">
   <g id="patch_61">
    <path d="M 287.977391 167.916522 
L 360.76 167.916522 
L 360.76 120.646957 
L 287.977391 120.646957 
z
" style="fill:none;"/>
   </g>
   <g id="patch_62">
    <path clip-path="url(#p6542eba909)" d="M 295.638719 162.940778 
L 299.469382 162.940778 
L 299.469382 160.452906 
L 295.638719 160.452906 
z
" style="fill:#006400;stroke:#006400;stroke-linejoin:miter;"/>
   </g>
   <g id="patch_63">
    <path clip-path="url(#p6542eba909)" d="M 303.300046 162.940778 
L 307.130709 162.940778 
L 307.130709 160.452906 
L 303.300046 160.452906 
z
" style="fill:#006400;stroke:#006400;stroke-linejoin:miter;"/>
   </g>
   <g id="patch_64">
    <path clip-path="url(#p6542eba909)" d="M 310.961373 162.940778 
L 314.792037 162.940778 
L 314.792037 160.452906 
L 310.961373 160.452906 
z
" style="fill:#006400;stroke:#006400;stroke-linejoin:miter;"/>
   </g>
   <g id="patch_65">
    <path clip-path="url(#p6542eba909)" d="M 318.6227 162.940778 
L 322.453364 162.940778 
L 322.453364 160.452906 
L 318.6227 160.452906 
z
" style="fill:#006400;stroke:#006400;stroke-linejoin:miter;"/>
   </g>
   <g id="patch_66">
    <path clip-path="url(#p6542eba909)" d="M 295.638719 157.965034 
L 299.469382 157.965034 
L 299.469382 155.477162 
L 295.638719 155.477162 
z
" style="fill:#006400;stroke:#006400;stroke-linejoin:miter;"/>
   </g>
   <g id="patch_67">
    <path clip-path="url(#p6542eba909)" d="M 303.300046 157.965034 
L 307.130709 157.965034 
L 307.130709 155.477162 
L 303.300046 155.477162 
z
" style="fill:#006400;stroke:#006400;stroke-linejoin:miter;"/>
   </g>
   <g id="patch_68">
    <path clip-path="url(#p6542eba909)" d="M 310.961373 157.965034 
L 314.792037 157.965034 
L 314.792037 155.477162 
L 310.961373 155.477162 
z
" style="fill:#006400;stroke:#006400;stroke-linejoin:miter;"/>
   </g>
   <g id="patch_69">
    <path clip-path="url(#p6542eba909)" d="M 318.6227 157.965034 
L 322.453364 157.965034 
L 322.453364 155.477162 
L 318.6227 155.477162 
z
" style="fill:#006400;stroke:#006400;stroke-linejoin:miter;"/>
   </g>
   <g id="patch_70">
    <path clip-path="url(#p6542eba909)" d="M 295.638719 152.989291 
L 299.469382 152.989291 
L 299.469382 150.501419 
L 295.638719 150.501419 
z
" style="fill:#006400;stroke:#006400;stroke-linejoin:miter;"/>
   </g>
   <g id="patch_71">
    <path clip-path="url(#p6542eba909)" d="M 303.300046 152.989291 
L 307.130709 152.989291 
L 307.130709 150.501419 
L 303.300046 150.501419 
z
" style="fill:#006400;stroke:#006400;stroke-linejoin:miter;"/>
   </g>
   <g id="patch_72">
    <path clip-path="url(#p6542eba909)" d="M 310.961373 152.989291 
L 314.792037 152.989291 
L 314.792037 150.501419 
L 310.961373 150.501419 
z
" style="fill:#006400;stroke:#006400;stroke-linejoin:miter;"/>
   </g>
   <g id="patch_73">
    <path clip-path="url(#p6542eba909)" d="M 318.6227 152.989291 
L 322.453364 152.989291 
L 322.453364 150.501419 
L 318.6227 150.501419 
z
" style="fill:#006400;stroke:#006400;stroke-linejoin:miter;"/>
   </g>
   <g id="patch_74">
    <path clip-path="url(#p6542eba909)" d="M 295.638719 148.013547 
L 299.469382 148.013547 
L 299.469382 145.525675 
L 295.638719 145.525675 
z
" style="fill:#006400;stroke:#006400;stroke-linejoin:miter;"/>
   </g>
   <g id="patch_75">
    <path clip-path="url(#p6542eba909)" d="M 303.300046 148.013547 
L 307.130709 148.013547 
L 307.130709 145.525675 
L 303.300046 145.525675 
z
" style="fill:#006400;stroke:#006400;stroke-linejoin:miter;"/>
   </g>
   <g id="patch_76">
    <path clip-path="url(#p6542eba909)" d="M 310.961373 148.013547 
L 314.792037 148.013547 
L 314.792037 145.525675 
L 310.961373 145.525675 
z
" style="fill:#006400;stroke:#006400;stroke-linejoin:miter;"/>
   </g>
   <g id="patch_77">
    <path clip-path="url(#p6542eba909)" d="M 295.638719 143.037803 
L 299.469382 143.037803 
L 299.469382 140.549931 
L 295.638719 140.549931 
z
" style="fill:#006400;stroke:#006400;stroke-linejoin:miter;"/>
   </g>
   <g id="patch_78">
    <path clip-path="url(#p6542eba909)" d="M 303.300046 143.037803 
L 307.130709 143.037803 
L 307.130709 140.549931 
L 303.300046 140.549931 
z
" style="fill:#006400;stroke:#006400;stroke-linejoin:miter;"/>
   </g>
   <g id="patch_79">
    <path clip-path="url(#p6542eba909)" d="M 310.961373 143.037803 
L 314.792037 143.037803 
L 314.792037 140.549931 
L 310.961373 140.549931 
z
" style="fill:#006400;stroke:#006400;stroke-linejoin:miter;"/>
   </g>
   <g id="patch_80">
    <path clip-path="url(#p6542eba909)" d="M 303.300046 138.062059 
L 307.130709 138.062059 
L 307.130709 135.574188 
L 303.300046 135.574188 
z
" style="fill:#006400;stroke:#006400;stroke-linejoin:miter;"/>
   </g>
   <g id="patch_81">
    <path clip-path="url(#p6542eba909)" d="M 310.961373 138.062059 
L 314.792037 138.062059 
L 314.792037 135.574188 
L 310.961373 135.574188 
z
" style="fill:#006400;stroke:#006400;stroke-linejoin:miter;"/>
   </g>
   <g id="patch_82">
    <path clip-path="url(#p6542eba909)" d="M 303.300046 133.086316 
L 307.130709 133.086316 
L 307.130709 130.598444 
L 303.300046 130.598444 
z
" style="fill:#006400;stroke:#006400;stroke-linejoin:miter;"/>
   </g>
   <g id="patch_83">
    <path clip-path="url(#p6542eba909)" d="M 310.961373 133.086316 
L 314.792037 133.086316 
L 314.792037 130.598444 
L 310.961373 130.598444 
z
" style="fill:#006400;stroke:#006400;stroke-linejoin:miter;"/>
   </g>
   <g id="matplotlib.axis_5"/>
   <g id="matplotlib.axis_6"/>
  </g>
  <g id="axes_4">
   <g id="patch_84">
    <path d="M 287.977391 224.64 
L 360.76 224.64 
L 360.76 177.370435 
L 287.977391 177.370435 
z
" style="fill:none;"/>
   </g>
   <g id="patch_85">
    <path d="M 280.69913 172.643478 
L 368.038261 172.643478 
L 368.038261 172.170783 
L 280.69913 172.170783 
z
" style="fill:none;stroke:#000000;stroke-linejoin:miter;"/>
   </g>
   <g id="patch_86">
    <path clip-path="url(#pbeb672b8c6)" d="M 287.977391 224.64 
L 291.808055 224.64 
L 291.808055 222.152128 
L 287.977391 222.152128 
z
" style="fill:#ffa500;stroke:#ffa500;stroke-linejoin:miter;"/>
   </g>
   <g id="patch_87">
    <path clip-path="url(#pbeb672b8c6)" d="M 295.638719 224.64 
L 299.469382 224.64 
L 299.469382 222.152128 
L 295.638719 222.152128 
z
" style="fill:#ffa500;stroke:#ffa500;stroke-linejoin:miter;"/>
   </g>
   <g id="patch_88">
    <path clip-path="url(#pbeb672b8c6)" d="M 303.300046 224.64 
L 307.130709 224.64 
L 307.130709 222.152128 
L 303.300046 222.152128 
z
" style="fill:#ffa500;stroke:#ffa500;stroke-linejoin:miter;"/>
   </g>
   <g id="patch_89">
    <path clip-path="url(#pbeb672b8c6)" d="M 310.961373 224.64 
L 314.792037 224.64 
L 314.792037 222.152128 
L 310.961373 222.152128 
z
" style="fill:#ffa500;stroke:#ffa500;stroke-linejoin:miter;"/>
   </g>
   <g id="patch_90">
    <path clip-path="url(#pbeb672b8c6)" d="M 318.6227 224.64 
L 322.453364 224.64 
L 322.453364 222.152128 
L 318.6227 222.152128 
z
" style="fill:#ffa500;stroke:#ffa500;stroke-linejoin:miter;"/>
   </g>
   <g id="patch_91">
    <path clip-path="url(#pbeb672b8c6)" d="M 287.977391 219.664256 
L 291.808055 219.664256 
L 291.808055 217.176384 
L 287.977391 217.176384 
z
" style="fill:#ffa500;stroke:#ffa500;stroke-linejoin:miter;"/>
   </g>
   <g id="patch_92">
    <path clip-path="url(#pbeb672b8c6)" d="M 295.638719 219.664256 
L 299.469382 219.664256 
L 299.469382 217.176384 
L 295.638719 217.176384 
z
" style="fill:#006400;stroke:#006400;stroke-linejoin:miter;"/>
   </g>
   <g id="patch_93">
    <path clip-path="url(#pbeb672b8c6)" d="M 303.300046 219.664256 
L 307.130709 219.664256 
L 307.130709 217.176384 
L 303.300046 217.176384 
z
" style="fill:#006400;stroke:#006400;stroke-linejoin:miter;"/>
   </g>
   <g id="patch_94">
    <path clip-path="url(#pbeb672b8c6)" d="M 310.961373 219.664256 
L 314.792037 219.664256 
L 314.792037 217.176384 
L 310.961373 217.176384 
z
" style="fill:#006400;stroke:#006400;stroke-linejoin:miter;"/>
   </g>
   <g id="patch_95">
    <path clip-path="url(#pbeb672b8c6)" d="M 318.6227 219.664256 
L 322.453364 219.664256 
L 322.453364 217.176384 
L 318.6227 217.176384 
z
" style="fill:#006400;stroke:#006400;stroke-linejoin:miter;"/>
   </g>
   <g id="patch_96">
    <path clip-path="url(#pbeb672b8c6)" d="M 287.977391 214.688513 
L 291.808055 214.688513 
L 291.808055 212.200641 
L 287.977391 212.200641 
z
" style="fill:#ffa500;stroke:#ffa500;stroke-linejoin:miter;"/>
   </g>
   <g id="patch_97">
    <path clip-path="url(#pbeb672b8c6)" d="M 295.638719 214.688513 
L 299.469382 214.688513 
L 299.469382 212.200641 
L 295.638719 212.200641 
z
" style="fill:#006400;stroke:#006400;stroke-linejoin:miter;"/>
   </g>
   <g id="patch_98">
    <path clip-path="url(#pbeb672b8c6)" d="M 303.300046 214.688513 
L 307.130709 214.688513 
L 307.130709 212.200641 
L 303.300046 212.200641 
z
" style="fill:#006400;stroke:#006400;stroke-linejoin:miter;"/>
   </g>
   <g id="patch_99">
    <path clip-path="url(#pbeb672b8c6)" d="M 310.961373 214.688513 
L 314.792037 214.688513 
L 314.792037 212.200641 
L 310.961373 212.200641 
z
" style="fill:#006400;stroke:#006400;stroke-linejoin:miter;"/>
   </g>
   <g id="patch_100">
    <path clip-path="url(#pbeb672b8c6)" d="M 318.6227 214.688513 
L 322.453364 214.688513 
L 322.453364 212.200641 
L 318.6227 212.200641 
z
" style="fill:#006400;stroke:#006400;stroke-linejoin:miter;"/>
   </g>
   <g id="patch_101">
    <path clip-path="url(#pbeb672b8c6)" d="M 287.977391 209.712769 
L 291.808055 209.712769 
L 291.808055 207.224897 
L 287.977391 207.224897 
z
" style="fill:#ffa500;stroke:#ffa500;stroke-linejoin:miter;"/>
   </g>
   <g id="patch_102">
    <path clip-path="url(#pbeb672b8c6)" d="M 295.638719 209.712769 
L 299.469382 209.712769 
L 299.469382 207.224897 
L 295.638719 207.224897 
z
" style="fill:#006400;stroke:#006400;stroke-linejoin:miter;"/>
   </g>
   <g id="patch_103">
    <path clip-path="url(#pbeb672b8c6)" d="M 303.300046 209.712769 
L 307.130709 209.712769 
L 307.130709 207.224897 
L 303.300046 207.224897 
z
" style="fill:#006400;stroke:#006400;stroke-linejoin:miter;"/>
   </g>
   <g id="patch_104">
    <path clip-path="url(#pbeb672b8c6)" d="M 310.961373 209.712769 
L 314.792037 209.712769 
L 314.792037 207.224897 
L 310.961373 207.224897 
z
" style="fill:#006400;stroke:#006400;stroke-linejoin:miter;"/>
   </g>
   <g id="patch_105">
    <path clip-path="url(#pbeb672b8c6)" d="M 318.6227 209.712769 
L 322.453364 209.712769 
L 322.453364 207.224897 
L 318.6227 207.224897 
z
" style="fill:#006400;stroke:#006400;stroke-linejoin:miter;"/>
   </g>
   <g id="patch_106">
    <path clip-path="url(#pbeb672b8c6)" d="M 287.977391 204.737025 
L 291.808055 204.737025 
L 291.808055 202.249153 
L 287.977391 202.249153 
z
" style="fill:#ffa500;stroke:#ffa500;stroke-linejoin:miter;"/>
   </g>
   <g id="patch_107">
    <path clip-path="url(#pbeb672b8c6)" d="M 295.638719 204.737025 
L 299.469382 204.737025 
L 299.469382 202.249153 
L 295.638719 202.249153 
z
" style="fill:#006400;stroke:#006400;stroke-linejoin:miter;"/>
   </g>
   <g id="patch_108">
    <path clip-path="url(#pbeb672b8c6)" d="M 303.300046 204.737025 
L 307.130709 204.737025 
L 307.130709 202.249153 
L 303.300046 202.249153 
z
" style="fill:#006400;stroke:#006400;stroke-linejoin:miter;"/>
   </g>
   <g id="patch_109">
    <path clip-path="url(#pbeb672b8c6)" d="M 310.961373 204.737025 
L 314.792037 204.737025 
L 314.792037 202.249153 
L 310.961373 202.249153 
z
" style="fill:#006400;stroke:#006400;stroke-linejoin:miter;"/>
   </g>
   <g id="patch_110">
    <path clip-path="url(#pbeb672b8c6)" d="M 287.977391 199.761281 
L 291.808055 199.761281 
L 291.808055 197.27341 
L 287.977391 197.27341 
z
" style="fill:#ffa500;stroke:#ffa500;stroke-linejoin:miter;"/>
   </g>
   <g id="patch_111">
    <path clip-path="url(#pbeb672b8c6)" d="M 295.638719 199.761281 
L 299.469382 199.761281 
L 299.469382 197.27341 
L 295.638719 197.27341 
z
" style="fill:#006400;stroke:#006400;stroke-linejoin:miter;"/>
   </g>
   <g id="patch_112">
    <path clip-path="url(#pbeb672b8c6)" d="M 303.300046 199.761281 
L 307.130709 199.761281 
L 307.130709 197.27341 
L 303.300046 197.27341 
z
" style="fill:#006400;stroke:#006400;stroke-linejoin:miter;"/>
   </g>
   <g id="patch_113">
    <path clip-path="url(#pbeb672b8c6)" d="M 310.961373 199.761281 
L 314.792037 199.761281 
L 314.792037 197.27341 
L 310.961373 197.27341 
z
" style="fill:#006400;stroke:#006400;stroke-linejoin:miter;"/>
   </g>
   <g id="patch_114">
    <path clip-path="url(#pbeb672b8c6)" d="M 287.977391 194.785538 
L 291.808055 194.785538 
L 291.808055 192.297666 
L 287.977391 192.297666 
z
" style="fill:#ffa500;stroke:#ffa500;stroke-linejoin:miter;"/>
   </g>
   <g id="patch_115">
    <path clip-path="url(#pbeb672b8c6)" d="M 295.638719 194.785538 
L 299.469382 194.785538 
L 299.469382 192.297666 
L 295.638719 192.297666 
z
" style="fill:#ffa500;stroke:#ffa500;stroke-linejoin:miter;"/>
   </g>
   <g id="patch_116">
    <path clip-path="url(#pbeb672b8c6)" d="M 303.300046 194.785538 
L 307.130709 194.785538 
L 307.130709 192.297666 
L 303.300046 192.297666 
z
" style="fill:#006400;stroke:#006400;stroke-linejoin:miter;"/>
   </g>
   <g id="patch_117">
    <path clip-path="url(#pbeb672b8c6)" d="M 310.961373 194.785538 
L 314.792037 194.785538 
L 314.792037 192.297666 
L 310.961373 192.297666 
z
" style="fill:#006400;stroke:#006400;stroke-linejoin:miter;"/>
   </g>
   <g id="patch_118">
    <path clip-path="url(#pbeb672b8c6)" d="M 287.977391 189.809794 
L 291.808055 189.809794 
L 291.808055 187.321922 
L 287.977391 187.321922 
z
" style="fill:#ffa500;stroke:#ffa500;stroke-linejoin:miter;"/>
   </g>
   <g id="patch_119">
    <path clip-path="url(#pbeb672b8c6)" d="M 295.638719 189.809794 
L 299.469382 189.809794 
L 299.469382 187.321922 
L 295.638719 187.321922 
z
" style="fill:#ffa500;stroke:#ffa500;stroke-linejoin:miter;"/>
   </g>
   <g id="patch_120">
    <path clip-path="url(#pbeb672b8c6)" d="M 303.300046 189.809794 
L 307.130709 189.809794 
L 307.130709 187.321922 
L 303.300046 187.321922 
z
" style="fill:#006400;stroke:#006400;stroke-linejoin:miter;"/>
   </g>
   <g id="patch_121">
    <path clip-path="url(#pbeb672b8c6)" d="M 310.961373 189.809794 
L 314.792037 189.809794 
L 314.792037 187.321922 
L 310.961373 187.321922 
z
" style="fill:#006400;stroke:#006400;stroke-linejoin:miter;"/>
   </g>
   <g id="patch_122">
    <path clip-path="url(#pbeb672b8c6)" d="M 287.977391 184.83405 
L 291.808055 184.83405 
L 291.808055 182.346178 
L 287.977391 182.346178 
z
" style="fill:#ffa500;stroke:#ffa500;stroke-linejoin:miter;"/>
   </g>
   <g id="patch_123">
    <path clip-path="url(#pbeb672b8c6)" d="M 295.638719 184.83405 
L 299.469382 184.83405 
L 299.469382 182.346178 
L 295.638719 182.346178 
z
" style="fill:#ffa500;stroke:#ffa500;stroke-linejoin:miter;"/>
   </g>
   <g id="patch_124">
    <path clip-path="url(#pbeb672b8c6)" d="M 303.300046 184.83405 
L 307.130709 184.83405 
L 307.130709 182.346178 
L 303.300046 182.346178 
z
" style="fill:#ffa500;stroke:#ffa500;stroke-linejoin:miter;"/>
   </g>
   <g id="patch_125">
    <path clip-path="url(#pbeb672b8c6)" d="M 310.961373 184.83405 
L 314.792037 184.83405 
L 314.792037 182.346178 
L 310.961373 182.346178 
z
" style="fill:#ffa500;stroke:#ffa500;stroke-linejoin:miter;"/>
   </g>
   <g id="patch_126">
    <path clip-path="url(#pbeb672b8c6)" d="M 287.977391 179.858307 
L 291.808055 179.858307 
L 291.808055 177.370435 
L 287.977391 177.370435 
z
" style="fill:#ffa500;stroke:#ffa500;stroke-linejoin:miter;"/>
   </g>
   <g id="patch_127">
    <path clip-path="url(#pbeb672b8c6)" d="M 295.638719 179.858307 
L 299.469382 179.858307 
L 299.469382 177.370435 
L 295.638719 177.370435 
z
" style="fill:#ffa500;stroke:#ffa500;stroke-linejoin:miter;"/>
   </g>
   <g id="patch_128">
    <path clip-path="url(#pbeb672b8c6)" d="M 303.300046 179.858307 
L 307.130709 179.858307 
L 307.130709 177.370435 
L 303.300046 177.370435 
z
" style="fill:#ffa500;stroke:#ffa500;stroke-linejoin:miter;"/>
   </g>
   <g id="patch_129">
    <path clip-path="url(#pbeb672b8c6)" d="M 310.961373 179.858307 
L 314.792037 179.858307 
L 314.792037 177.370435 
L 310.961373 177.370435 
z
" style="fill:#ffa500;stroke:#ffa500;stroke-linejoin:miter;"/>
   </g>
   <g id="matplotlib.axis_7"/>
   <g id="matplotlib.axis_8"/>
   <g id="text_2">
    <!--  = 50.0% = recall -->
    <defs>
     <path d="M 10.796875 72.90625 
L 49.515625 72.90625 
L 49.515625 64.59375 
L 19.828125 64.59375 
L 19.828125 46.734375 
Q 21.96875 47.46875 24.109375 47.828125 
Q 26.265625 48.1875 28.421875 48.1875 
Q 40.625 48.1875 47.75 41.5 
Q 54.890625 34.8125 54.890625 23.390625 
Q 54.890625 11.625 47.5625 5.09375 
Q 40.234375 -1.421875 26.90625 -1.421875 
Q 22.3125 -1.421875 17.546875 -0.640625 
Q 12.796875 0.140625 7.71875 1.703125 
L 7.71875 11.625 
Q 12.109375 9.234375 16.796875 8.0625 
Q 21.484375 6.890625 26.703125 6.890625 
Q 35.15625 6.890625 40.078125 11.328125 
Q 45.015625 15.765625 45.015625 23.390625 
Q 45.015625 31 40.078125 35.4375 
Q 35.15625 39.890625 26.703125 39.890625 
Q 22.75 39.890625 18.8125 39.015625 
Q 14.890625 38.140625 10.796875 36.28125 
z
" id="DejaVuSans-53"/>
     <path d="M 31.78125 66.40625 
Q 24.171875 66.40625 20.328125 58.90625 
Q 16.5 51.421875 16.5 36.375 
Q 16.5 21.390625 20.328125 13.890625 
Q 24.171875 6.390625 31.78125 6.390625 
Q 39.453125 6.390625 43.28125 13.890625 
Q 47.125 21.390625 47.125 36.375 
Q 47.125 51.421875 43.28125 58.90625 
Q 39.453125 66.40625 31.78125 66.40625 
z
M 31.78125 74.21875 
Q 44.046875 74.21875 50.515625 64.515625 
Q 56.984375 54.828125 56.984375 36.375 
Q 56.984375 17.96875 50.515625 8.265625 
Q 44.046875 -1.421875 31.78125 -1.421875 
Q 19.53125 -1.421875 13.0625 8.265625 
Q 6.59375 17.96875 6.59375 36.375 
Q 6.59375 54.828125 13.0625 64.515625 
Q 19.53125 74.21875 31.78125 74.21875 
z
" id="DejaVuSans-48"/>
     <path d="M 34.28125 27.484375 
Q 23.390625 27.484375 19.1875 25 
Q 14.984375 22.515625 14.984375 16.5 
Q 14.984375 11.71875 18.140625 8.90625 
Q 21.296875 6.109375 26.703125 6.109375 
Q 34.1875 6.109375 38.703125 11.40625 
Q 43.21875 16.703125 43.21875 25.484375 
L 43.21875 27.484375 
z
M 52.203125 31.203125 
L 52.203125 0 
L 43.21875 0 
L 43.21875 8.296875 
Q 40.140625 3.328125 35.546875 0.953125 
Q 30.953125 -1.421875 24.3125 -1.421875 
Q 15.921875 -1.421875 10.953125 3.296875 
Q 6 8.015625 6 15.921875 
Q 6 25.140625 12.171875 29.828125 
Q 18.359375 34.515625 30.609375 34.515625 
L 43.21875 34.515625 
L 43.21875 35.40625 
Q 43.21875 41.609375 39.140625 45 
Q 35.0625 48.390625 27.6875 48.390625 
Q 23 48.390625 18.546875 47.265625 
Q 14.109375 46.140625 10.015625 43.890625 
L 10.015625 52.203125 
Q 14.9375 54.109375 19.578125 55.046875 
Q 24.21875 56 28.609375 56 
Q 40.484375 56 46.34375 49.84375 
Q 52.203125 43.703125 52.203125 31.203125 
z
" id="DejaVuSans-97"/>
     <path d="M 9.421875 75.984375 
L 18.40625 75.984375 
L 18.40625 0 
L 9.421875 0 
z
" id="DejaVuSans-108"/>
    </defs>
    <g transform="translate(375.316522 175.006957)scale(0.15 -0.15)">
     <use xlink:href="#DejaVuSans-32"/>
     <use x="31.787109" xlink:href="#DejaVuSans-61"/>
     <use x="115.576172" xlink:href="#DejaVuSans-32"/>
     <use x="147.363281" xlink:href="#DejaVuSans-53"/>
     <use x="210.986328" xlink:href="#DejaVuSans-48"/>
     <use x="274.609375" xlink:href="#DejaVuSans-46"/>
     <use x="306.396484" xlink:href="#DejaVuSans-48"/>
     <use x="370.019531" xlink:href="#DejaVuSans-37"/>
     <use x="465.039062" xlink:href="#DejaVuSans-32"/>
     <use x="496.826172" xlink:href="#DejaVuSans-61"/>
     <use x="580.615234" xlink:href="#DejaVuSans-32"/>
     <use x="612.402344" xlink:href="#DejaVuSans-114"/>
     <use x="653.484375" xlink:href="#DejaVuSans-101"/>
     <use x="715.007812" xlink:href="#DejaVuSans-99"/>
     <use x="769.988281" xlink:href="#DejaVuSans-97"/>
     <use x="831.267578" xlink:href="#DejaVuSans-108"/>
     <use x="859.050781" xlink:href="#DejaVuSans-108"/>
    </g>
   </g>
  </g>
  <g id="axes_5">
   <g id="patch_130">
    <path d="M 25.96 224.64 
L 273.42087 224.64 
L 273.42087 7.2 
L 25.96 7.2 
z
" style="fill:none;"/>
   </g>
   <g id="patch_131">
    <path clip-path="url(#pa55d9c16db)" d="M 25.96 224.64 
L 45.445108 224.64 
L 45.445108 207.51874 
L 25.96 207.51874 
z
" style="fill:#ffa500;stroke:#ffa500;stroke-linejoin:miter;"/>
   </g>
   <g id="patch_132">
    <path clip-path="url(#pa55d9c16db)" d="M 51.29064 224.64 
L 70.775748 224.64 
L 70.775748 207.51874 
L 51.29064 207.51874 
z
" style="fill:#ffa500;stroke:#ffa500;stroke-linejoin:miter;"/>
   </g>
   <g id="patch_133">
    <path clip-path="url(#pa55d9c16db)" d="M 76.62128 224.64 
L 96.106388 224.64 
L 96.106388 207.51874 
L 76.62128 207.51874 
z
" style="fill:#ffa500;stroke:#ffa500;stroke-linejoin:miter;"/>
   </g>
   <g id="patch_134">
    <path clip-path="url(#pa55d9c16db)" d="M 101.951921 224.64 
L 121.437028 224.64 
L 121.437028 207.51874 
L 101.951921 207.51874 
z
" style="fill:#ffa500;stroke:#ffa500;stroke-linejoin:miter;"/>
   </g>
   <g id="patch_135">
    <path clip-path="url(#pa55d9c16db)" d="M 127.282561 224.64 
L 146.767669 224.64 
L 146.767669 207.51874 
L 127.282561 207.51874 
z
" style="fill:#ffa500;stroke:#ffa500;stroke-linejoin:miter;"/>
   </g>
   <g id="patch_136">
    <path clip-path="url(#pa55d9c16db)" d="M 152.613201 224.64 
L 172.098309 224.64 
L 172.098309 207.51874 
L 152.613201 207.51874 
z
" style="fill:#d3d3d3;stroke:#d3d3d3;stroke-linejoin:miter;"/>
   </g>
   <g id="patch_137">
    <path clip-path="url(#pa55d9c16db)" d="M 177.943841 224.64 
L 197.428949 224.64 
L 197.428949 207.51874 
L 177.943841 207.51874 
z
" style="fill:#d3d3d3;stroke:#d3d3d3;stroke-linejoin:miter;"/>
   </g>
   <g id="patch_138">
    <path clip-path="url(#pa55d9c16db)" d="M 203.274481 224.64 
L 222.759589 224.64 
L 222.759589 207.51874 
L 203.274481 207.51874 
z
" style="fill:#d3d3d3;stroke:#d3d3d3;stroke-linejoin:miter;"/>
   </g>
   <g id="patch_139">
    <path clip-path="url(#pa55d9c16db)" d="M 228.605122 224.64 
L 248.090229 224.64 
L 248.090229 207.51874 
L 228.605122 207.51874 
z
" style="fill:#d3d3d3;stroke:#d3d3d3;stroke-linejoin:miter;"/>
   </g>
   <g id="patch_140">
    <path clip-path="url(#pa55d9c16db)" d="M 253.935762 224.64 
L 273.42087 224.64 
L 273.42087 207.51874 
L 253.935762 207.51874 
z
" style="fill:#d3d3d3;stroke:#d3d3d3;stroke-linejoin:miter;"/>
   </g>
   <g id="patch_141">
    <path clip-path="url(#pa55d9c16db)" d="M 25.96 202.382362 
L 45.445108 202.382362 
L 45.445108 185.261102 
L 25.96 185.261102 
z
" style="fill:#ffa500;stroke:#ffa500;stroke-linejoin:miter;"/>
   </g>
   <g id="patch_142">
    <path clip-path="url(#pa55d9c16db)" d="M 51.29064 202.382362 
L 70.775748 202.382362 
L 70.775748 185.261102 
L 51.29064 185.261102 
z
" style="fill:#006400;stroke:#006400;stroke-linejoin:miter;"/>
   </g>
   <g id="patch_143">
    <path clip-path="url(#pa55d9c16db)" d="M 76.62128 202.382362 
L 96.106388 202.382362 
L 96.106388 185.261102 
L 76.62128 185.261102 
z
" style="fill:#006400;stroke:#006400;stroke-linejoin:miter;"/>
   </g>
   <g id="patch_144">
    <path clip-path="url(#pa55d9c16db)" d="M 101.951921 202.382362 
L 121.437028 202.382362 
L 121.437028 185.261102 
L 101.951921 185.261102 
z
" style="fill:#006400;stroke:#006400;stroke-linejoin:miter;"/>
   </g>
   <g id="patch_145">
    <path clip-path="url(#pa55d9c16db)" d="M 127.282561 202.382362 
L 146.767669 202.382362 
L 146.767669 185.261102 
L 127.282561 185.261102 
z
" style="fill:#006400;stroke:#006400;stroke-linejoin:miter;"/>
   </g>
   <g id="patch_146">
    <path clip-path="url(#pa55d9c16db)" d="M 152.613201 202.382362 
L 172.098309 202.382362 
L 172.098309 185.261102 
L 152.613201 185.261102 
z
" style="fill:#ff0000;stroke:#ff0000;stroke-linejoin:miter;"/>
   </g>
   <g id="patch_147">
    <path clip-path="url(#pa55d9c16db)" d="M 177.943841 202.382362 
L 197.428949 202.382362 
L 197.428949 185.261102 
L 177.943841 185.261102 
z
" style="fill:#ff0000;stroke:#ff0000;stroke-linejoin:miter;"/>
   </g>
   <g id="patch_148">
    <path clip-path="url(#pa55d9c16db)" d="M 203.274481 202.382362 
L 222.759589 202.382362 
L 222.759589 185.261102 
L 203.274481 185.261102 
z
" style="fill:#d3d3d3;stroke:#d3d3d3;stroke-linejoin:miter;"/>
   </g>
   <g id="patch_149">
    <path clip-path="url(#pa55d9c16db)" d="M 228.605122 202.382362 
L 248.090229 202.382362 
L 248.090229 185.261102 
L 228.605122 185.261102 
z
" style="fill:#d3d3d3;stroke:#d3d3d3;stroke-linejoin:miter;"/>
   </g>
   <g id="patch_150">
    <path clip-path="url(#pa55d9c16db)" d="M 253.935762 202.382362 
L 273.42087 202.382362 
L 273.42087 185.261102 
L 253.935762 185.261102 
z
" style="fill:#d3d3d3;stroke:#d3d3d3;stroke-linejoin:miter;"/>
   </g>
   <g id="patch_151">
    <path clip-path="url(#pa55d9c16db)" d="M 25.96 180.124724 
L 45.445108 180.124724 
L 45.445108 163.003465 
L 25.96 163.003465 
z
" style="fill:#ffa500;stroke:#ffa500;stroke-linejoin:miter;"/>
   </g>
   <g id="patch_152">
    <path clip-path="url(#pa55d9c16db)" d="M 51.29064 180.124724 
L 70.775748 180.124724 
L 70.775748 163.003465 
L 51.29064 163.003465 
z
" style="fill:#006400;stroke:#006400;stroke-linejoin:miter;"/>
   </g>
   <g id="patch_153">
    <path clip-path="url(#pa55d9c16db)" d="M 76.62128 180.124724 
L 96.106388 180.124724 
L 96.106388 163.003465 
L 76.62128 163.003465 
z
" style="fill:#006400;stroke:#006400;stroke-linejoin:miter;"/>
   </g>
   <g id="patch_154">
    <path clip-path="url(#pa55d9c16db)" d="M 101.951921 180.124724 
L 121.437028 180.124724 
L 121.437028 163.003465 
L 101.951921 163.003465 
z
" style="fill:#006400;stroke:#006400;stroke-linejoin:miter;"/>
   </g>
   <g id="patch_155">
    <path clip-path="url(#pa55d9c16db)" d="M 127.282561 180.124724 
L 146.767669 180.124724 
L 146.767669 163.003465 
L 127.282561 163.003465 
z
" style="fill:#006400;stroke:#006400;stroke-linejoin:miter;"/>
   </g>
   <g id="patch_156">
    <path clip-path="url(#pa55d9c16db)" d="M 152.613201 180.124724 
L 172.098309 180.124724 
L 172.098309 163.003465 
L 152.613201 163.003465 
z
" style="fill:#ff0000;stroke:#ff0000;stroke-linejoin:miter;"/>
   </g>
   <g id="patch_157">
    <path clip-path="url(#pa55d9c16db)" d="M 177.943841 180.124724 
L 197.428949 180.124724 
L 197.428949 163.003465 
L 177.943841 163.003465 
z
" style="fill:#d3d3d3;stroke:#d3d3d3;stroke-linejoin:miter;"/>
   </g>
   <g id="patch_158">
    <path clip-path="url(#pa55d9c16db)" d="M 203.274481 180.124724 
L 222.759589 180.124724 
L 222.759589 163.003465 
L 203.274481 163.003465 
z
" style="fill:#d3d3d3;stroke:#d3d3d3;stroke-linejoin:miter;"/>
   </g>
   <g id="patch_159">
    <path clip-path="url(#pa55d9c16db)" d="M 228.605122 180.124724 
L 248.090229 180.124724 
L 248.090229 163.003465 
L 228.605122 163.003465 
z
" style="fill:#d3d3d3;stroke:#d3d3d3;stroke-linejoin:miter;"/>
   </g>
   <g id="patch_160">
    <path clip-path="url(#pa55d9c16db)" d="M 253.935762 180.124724 
L 273.42087 180.124724 
L 273.42087 163.003465 
L 253.935762 163.003465 
z
" style="fill:#d3d3d3;stroke:#d3d3d3;stroke-linejoin:miter;"/>
   </g>
   <g id="patch_161">
    <path clip-path="url(#pa55d9c16db)" d="M 25.96 157.867087 
L 45.445108 157.867087 
L 45.445108 140.745827 
L 25.96 140.745827 
z
" style="fill:#ffa500;stroke:#ffa500;stroke-linejoin:miter;"/>
   </g>
   <g id="patch_162">
    <path clip-path="url(#pa55d9c16db)" d="M 51.29064 157.867087 
L 70.775748 157.867087 
L 70.775748 140.745827 
L 51.29064 140.745827 
z
" style="fill:#006400;stroke:#006400;stroke-linejoin:miter;"/>
   </g>
   <g id="patch_163">
    <path clip-path="url(#pa55d9c16db)" d="M 76.62128 157.867087 
L 96.106388 157.867087 
L 96.106388 140.745827 
L 76.62128 140.745827 
z
" style="fill:#006400;stroke:#006400;stroke-linejoin:miter;"/>
   </g>
   <g id="patch_164">
    <path clip-path="url(#pa55d9c16db)" d="M 101.951921 157.867087 
L 121.437028 157.867087 
L 121.437028 140.745827 
L 101.951921 140.745827 
z
" style="fill:#006400;stroke:#006400;stroke-linejoin:miter;"/>
   </g>
   <g id="patch_165">
    <path clip-path="url(#pa55d9c16db)" d="M 127.282561 157.867087 
L 146.767669 157.867087 
L 146.767669 140.745827 
L 127.282561 140.745827 
z
" style="fill:#006400;stroke:#006400;stroke-linejoin:miter;"/>
   </g>
   <g id="patch_166">
    <path clip-path="url(#pa55d9c16db)" d="M 152.613201 157.867087 
L 172.098309 157.867087 
L 172.098309 140.745827 
L 152.613201 140.745827 
z
" style="fill:#ff0000;stroke:#ff0000;stroke-linejoin:miter;"/>
   </g>
   <g id="patch_167">
    <path clip-path="url(#pa55d9c16db)" d="M 177.943841 157.867087 
L 197.428949 157.867087 
L 197.428949 140.745827 
L 177.943841 140.745827 
z
" style="fill:#d3d3d3;stroke:#d3d3d3;stroke-linejoin:miter;"/>
   </g>
   <g id="patch_168">
    <path clip-path="url(#pa55d9c16db)" d="M 203.274481 157.867087 
L 222.759589 157.867087 
L 222.759589 140.745827 
L 203.274481 140.745827 
z
" style="fill:#d3d3d3;stroke:#d3d3d3;stroke-linejoin:miter;"/>
   </g>
   <g id="patch_169">
    <path clip-path="url(#pa55d9c16db)" d="M 228.605122 157.867087 
L 248.090229 157.867087 
L 248.090229 140.745827 
L 228.605122 140.745827 
z
" style="fill:#d3d3d3;stroke:#d3d3d3;stroke-linejoin:miter;"/>
   </g>
   <g id="patch_170">
    <path clip-path="url(#pa55d9c16db)" d="M 253.935762 157.867087 
L 273.42087 157.867087 
L 273.42087 140.745827 
L 253.935762 140.745827 
z
" style="fill:#d3d3d3;stroke:#d3d3d3;stroke-linejoin:miter;"/>
   </g>
   <g id="patch_171">
    <path clip-path="url(#pa55d9c16db)" d="M 25.96 135.609449 
L 45.445108 135.609449 
L 45.445108 118.488189 
L 25.96 118.488189 
z
" style="fill:#ffa500;stroke:#ffa500;stroke-linejoin:miter;"/>
   </g>
   <g id="patch_172">
    <path clip-path="url(#pa55d9c16db)" d="M 51.29064 135.609449 
L 70.775748 135.609449 
L 70.775748 118.488189 
L 51.29064 118.488189 
z
" style="fill:#006400;stroke:#006400;stroke-linejoin:miter;"/>
   </g>
   <g id="patch_173">
    <path clip-path="url(#pa55d9c16db)" d="M 76.62128 135.609449 
L 96.106388 135.609449 
L 96.106388 118.488189 
L 76.62128 118.488189 
z
" style="fill:#006400;stroke:#006400;stroke-linejoin:miter;"/>
   </g>
   <g id="patch_174">
    <path clip-path="url(#pa55d9c16db)" d="M 101.951921 135.609449 
L 121.437028 135.609449 
L 121.437028 118.488189 
L 101.951921 118.488189 
z
" style="fill:#006400;stroke:#006400;stroke-linejoin:miter;"/>
   </g>
   <g id="patch_175">
    <path clip-path="url(#pa55d9c16db)" d="M 127.282561 135.609449 
L 146.767669 135.609449 
L 146.767669 118.488189 
L 127.282561 118.488189 
z
" style="fill:#ff0000;stroke:#ff0000;stroke-linejoin:miter;"/>
   </g>
   <g id="patch_176">
    <path clip-path="url(#pa55d9c16db)" d="M 152.613201 135.609449 
L 172.098309 135.609449 
L 172.098309 118.488189 
L 152.613201 118.488189 
z
" style="fill:#ff0000;stroke:#ff0000;stroke-linejoin:miter;"/>
   </g>
   <g id="patch_177">
    <path clip-path="url(#pa55d9c16db)" d="M 177.943841 135.609449 
L 197.428949 135.609449 
L 197.428949 118.488189 
L 177.943841 118.488189 
z
" style="fill:#d3d3d3;stroke:#d3d3d3;stroke-linejoin:miter;"/>
   </g>
   <g id="patch_178">
    <path clip-path="url(#pa55d9c16db)" d="M 203.274481 135.609449 
L 222.759589 135.609449 
L 222.759589 118.488189 
L 203.274481 118.488189 
z
" style="fill:#d3d3d3;stroke:#d3d3d3;stroke-linejoin:miter;"/>
   </g>
   <g id="patch_179">
    <path clip-path="url(#pa55d9c16db)" d="M 228.605122 135.609449 
L 248.090229 135.609449 
L 248.090229 118.488189 
L 228.605122 118.488189 
z
" style="fill:#d3d3d3;stroke:#d3d3d3;stroke-linejoin:miter;"/>
   </g>
   <g id="patch_180">
    <path clip-path="url(#pa55d9c16db)" d="M 253.935762 135.609449 
L 273.42087 135.609449 
L 273.42087 118.488189 
L 253.935762 118.488189 
z
" style="fill:#d3d3d3;stroke:#d3d3d3;stroke-linejoin:miter;"/>
   </g>
   <g id="patch_181">
    <path clip-path="url(#pa55d9c16db)" d="M 25.96 113.351811 
L 45.445108 113.351811 
L 45.445108 96.230551 
L 25.96 96.230551 
z
" style="fill:#ffa500;stroke:#ffa500;stroke-linejoin:miter;"/>
   </g>
   <g id="patch_182">
    <path clip-path="url(#pa55d9c16db)" d="M 51.29064 113.351811 
L 70.775748 113.351811 
L 70.775748 96.230551 
L 51.29064 96.230551 
z
" style="fill:#006400;stroke:#006400;stroke-linejoin:miter;"/>
   </g>
   <g id="patch_183">
    <path clip-path="url(#pa55d9c16db)" d="M 76.62128 113.351811 
L 96.106388 113.351811 
L 96.106388 96.230551 
L 76.62128 96.230551 
z
" style="fill:#006400;stroke:#006400;stroke-linejoin:miter;"/>
   </g>
   <g id="patch_184">
    <path clip-path="url(#pa55d9c16db)" d="M 101.951921 113.351811 
L 121.437028 113.351811 
L 121.437028 96.230551 
L 101.951921 96.230551 
z
" style="fill:#006400;stroke:#006400;stroke-linejoin:miter;"/>
   </g>
   <g id="patch_185">
    <path clip-path="url(#pa55d9c16db)" d="M 127.282561 113.351811 
L 146.767669 113.351811 
L 146.767669 96.230551 
L 127.282561 96.230551 
z
" style="fill:#ff0000;stroke:#ff0000;stroke-linejoin:miter;"/>
   </g>
   <g id="patch_186">
    <path clip-path="url(#pa55d9c16db)" d="M 152.613201 113.351811 
L 172.098309 113.351811 
L 172.098309 96.230551 
L 152.613201 96.230551 
z
" style="fill:#ff0000;stroke:#ff0000;stroke-linejoin:miter;"/>
   </g>
   <g id="patch_187">
    <path clip-path="url(#pa55d9c16db)" d="M 177.943841 113.351811 
L 197.428949 113.351811 
L 197.428949 96.230551 
L 177.943841 96.230551 
z
" style="fill:#d3d3d3;stroke:#d3d3d3;stroke-linejoin:miter;"/>
   </g>
   <g id="patch_188">
    <path clip-path="url(#pa55d9c16db)" d="M 203.274481 113.351811 
L 222.759589 113.351811 
L 222.759589 96.230551 
L 203.274481 96.230551 
z
" style="fill:#d3d3d3;stroke:#d3d3d3;stroke-linejoin:miter;"/>
   </g>
   <g id="patch_189">
    <path clip-path="url(#pa55d9c16db)" d="M 228.605122 113.351811 
L 248.090229 113.351811 
L 248.090229 96.230551 
L 228.605122 96.230551 
z
" style="fill:#d3d3d3;stroke:#d3d3d3;stroke-linejoin:miter;"/>
   </g>
   <g id="patch_190">
    <path clip-path="url(#pa55d9c16db)" d="M 253.935762 113.351811 
L 273.42087 113.351811 
L 273.42087 96.230551 
L 253.935762 96.230551 
z
" style="fill:#d3d3d3;stroke:#d3d3d3;stroke-linejoin:miter;"/>
   </g>
   <g id="patch_191">
    <path clip-path="url(#pa55d9c16db)" d="M 25.96 91.094173 
L 45.445108 91.094173 
L 45.445108 73.972913 
L 25.96 73.972913 
z
" style="fill:#ffa500;stroke:#ffa500;stroke-linejoin:miter;"/>
   </g>
   <g id="patch_192">
    <path clip-path="url(#pa55d9c16db)" d="M 51.29064 91.094173 
L 70.775748 91.094173 
L 70.775748 73.972913 
L 51.29064 73.972913 
z
" style="fill:#ffa500;stroke:#ffa500;stroke-linejoin:miter;"/>
   </g>
   <g id="patch_193">
    <path clip-path="url(#pa55d9c16db)" d="M 76.62128 91.094173 
L 96.106388 91.094173 
L 96.106388 73.972913 
L 76.62128 73.972913 
z
" style="fill:#006400;stroke:#006400;stroke-linejoin:miter;"/>
   </g>
   <g id="patch_194">
    <path clip-path="url(#pa55d9c16db)" d="M 101.951921 91.094173 
L 121.437028 91.094173 
L 121.437028 73.972913 
L 101.951921 73.972913 
z
" style="fill:#006400;stroke:#006400;stroke-linejoin:miter;"/>
   </g>
   <g id="patch_195">
    <path clip-path="url(#pa55d9c16db)" d="M 127.282561 91.094173 
L 146.767669 91.094173 
L 146.767669 73.972913 
L 127.282561 73.972913 
z
" style="fill:#ff0000;stroke:#ff0000;stroke-linejoin:miter;"/>
   </g>
   <g id="patch_196">
    <path clip-path="url(#pa55d9c16db)" d="M 152.613201 91.094173 
L 172.098309 91.094173 
L 172.098309 73.972913 
L 152.613201 73.972913 
z
" style="fill:#ff0000;stroke:#ff0000;stroke-linejoin:miter;"/>
   </g>
   <g id="patch_197">
    <path clip-path="url(#pa55d9c16db)" d="M 177.943841 91.094173 
L 197.428949 91.094173 
L 197.428949 73.972913 
L 177.943841 73.972913 
z
" style="fill:#d3d3d3;stroke:#d3d3d3;stroke-linejoin:miter;"/>
   </g>
   <g id="patch_198">
    <path clip-path="url(#pa55d9c16db)" d="M 203.274481 91.094173 
L 222.759589 91.094173 
L 222.759589 73.972913 
L 203.274481 73.972913 
z
" style="fill:#d3d3d3;stroke:#d3d3d3;stroke-linejoin:miter;"/>
   </g>
   <g id="patch_199">
    <path clip-path="url(#pa55d9c16db)" d="M 228.605122 91.094173 
L 248.090229 91.094173 
L 248.090229 73.972913 
L 228.605122 73.972913 
z
" style="fill:#d3d3d3;stroke:#d3d3d3;stroke-linejoin:miter;"/>
   </g>
   <g id="patch_200">
    <path clip-path="url(#pa55d9c16db)" d="M 253.935762 91.094173 
L 273.42087 91.094173 
L 273.42087 73.972913 
L 253.935762 73.972913 
z
" style="fill:#d3d3d3;stroke:#d3d3d3;stroke-linejoin:miter;"/>
   </g>
   <g id="patch_201">
    <path clip-path="url(#pa55d9c16db)" d="M 25.96 68.836535 
L 45.445108 68.836535 
L 45.445108 51.715276 
L 25.96 51.715276 
z
" style="fill:#ffa500;stroke:#ffa500;stroke-linejoin:miter;"/>
   </g>
   <g id="patch_202">
    <path clip-path="url(#pa55d9c16db)" d="M 51.29064 68.836535 
L 70.775748 68.836535 
L 70.775748 51.715276 
L 51.29064 51.715276 
z
" style="fill:#ffa500;stroke:#ffa500;stroke-linejoin:miter;"/>
   </g>
   <g id="patch_203">
    <path clip-path="url(#pa55d9c16db)" d="M 76.62128 68.836535 
L 96.106388 68.836535 
L 96.106388 51.715276 
L 76.62128 51.715276 
z
" style="fill:#006400;stroke:#006400;stroke-linejoin:miter;"/>
   </g>
   <g id="patch_204">
    <path clip-path="url(#pa55d9c16db)" d="M 101.951921 68.836535 
L 121.437028 68.836535 
L 121.437028 51.715276 
L 101.951921 51.715276 
z
" style="fill:#006400;stroke:#006400;stroke-linejoin:miter;"/>
   </g>
   <g id="patch_205">
    <path clip-path="url(#pa55d9c16db)" d="M 127.282561 68.836535 
L 146.767669 68.836535 
L 146.767669 51.715276 
L 127.282561 51.715276 
z
" style="fill:#ff0000;stroke:#ff0000;stroke-linejoin:miter;"/>
   </g>
   <g id="patch_206">
    <path clip-path="url(#pa55d9c16db)" d="M 152.613201 68.836535 
L 172.098309 68.836535 
L 172.098309 51.715276 
L 152.613201 51.715276 
z
" style="fill:#ff0000;stroke:#ff0000;stroke-linejoin:miter;"/>
   </g>
   <g id="patch_207">
    <path clip-path="url(#pa55d9c16db)" d="M 177.943841 68.836535 
L 197.428949 68.836535 
L 197.428949 51.715276 
L 177.943841 51.715276 
z
" style="fill:#d3d3d3;stroke:#d3d3d3;stroke-linejoin:miter;"/>
   </g>
   <g id="patch_208">
    <path clip-path="url(#pa55d9c16db)" d="M 203.274481 68.836535 
L 222.759589 68.836535 
L 222.759589 51.715276 
L 203.274481 51.715276 
z
" style="fill:#d3d3d3;stroke:#d3d3d3;stroke-linejoin:miter;"/>
   </g>
   <g id="patch_209">
    <path clip-path="url(#pa55d9c16db)" d="M 228.605122 68.836535 
L 248.090229 68.836535 
L 248.090229 51.715276 
L 228.605122 51.715276 
z
" style="fill:#d3d3d3;stroke:#d3d3d3;stroke-linejoin:miter;"/>
   </g>
   <g id="patch_210">
    <path clip-path="url(#pa55d9c16db)" d="M 253.935762 68.836535 
L 273.42087 68.836535 
L 273.42087 51.715276 
L 253.935762 51.715276 
z
" style="fill:#d3d3d3;stroke:#d3d3d3;stroke-linejoin:miter;"/>
   </g>
   <g id="patch_211">
    <path clip-path="url(#pa55d9c16db)" d="M 25.96 46.578898 
L 45.445108 46.578898 
L 45.445108 29.457638 
L 25.96 29.457638 
z
" style="fill:#ffa500;stroke:#ffa500;stroke-linejoin:miter;"/>
   </g>
   <g id="patch_212">
    <path clip-path="url(#pa55d9c16db)" d="M 51.29064 46.578898 
L 70.775748 46.578898 
L 70.775748 29.457638 
L 51.29064 29.457638 
z
" style="fill:#ffa500;stroke:#ffa500;stroke-linejoin:miter;"/>
   </g>
   <g id="patch_213">
    <path clip-path="url(#pa55d9c16db)" d="M 76.62128 46.578898 
L 96.106388 46.578898 
L 96.106388 29.457638 
L 76.62128 29.457638 
z
" style="fill:#ffa500;stroke:#ffa500;stroke-linejoin:miter;"/>
   </g>
   <g id="patch_214">
    <path clip-path="url(#pa55d9c16db)" d="M 101.951921 46.578898 
L 121.437028 46.578898 
L 121.437028 29.457638 
L 101.951921 29.457638 
z
" style="fill:#ffa500;stroke:#ffa500;stroke-linejoin:miter;"/>
   </g>
   <g id="patch_215">
    <path clip-path="url(#pa55d9c16db)" d="M 127.282561 46.578898 
L 146.767669 46.578898 
L 146.767669 29.457638 
L 127.282561 29.457638 
z
" style="fill:#d3d3d3;stroke:#d3d3d3;stroke-linejoin:miter;"/>
   </g>
   <g id="patch_216">
    <path clip-path="url(#pa55d9c16db)" d="M 152.613201 46.578898 
L 172.098309 46.578898 
L 172.098309 29.457638 
L 152.613201 29.457638 
z
" style="fill:#d3d3d3;stroke:#d3d3d3;stroke-linejoin:miter;"/>
   </g>
   <g id="patch_217">
    <path clip-path="url(#pa55d9c16db)" d="M 177.943841 46.578898 
L 197.428949 46.578898 
L 197.428949 29.457638 
L 177.943841 29.457638 
z
" style="fill:#d3d3d3;stroke:#d3d3d3;stroke-linejoin:miter;"/>
   </g>
   <g id="patch_218">
    <path clip-path="url(#pa55d9c16db)" d="M 203.274481 46.578898 
L 222.759589 46.578898 
L 222.759589 29.457638 
L 203.274481 29.457638 
z
" style="fill:#d3d3d3;stroke:#d3d3d3;stroke-linejoin:miter;"/>
   </g>
   <g id="patch_219">
    <path clip-path="url(#pa55d9c16db)" d="M 228.605122 46.578898 
L 248.090229 46.578898 
L 248.090229 29.457638 
L 228.605122 29.457638 
z
" style="fill:#d3d3d3;stroke:#d3d3d3;stroke-linejoin:miter;"/>
   </g>
   <g id="patch_220">
    <path clip-path="url(#pa55d9c16db)" d="M 253.935762 46.578898 
L 273.42087 46.578898 
L 273.42087 29.457638 
L 253.935762 29.457638 
z
" style="fill:#d3d3d3;stroke:#d3d3d3;stroke-linejoin:miter;"/>
   </g>
   <g id="patch_221">
    <path clip-path="url(#pa55d9c16db)" d="M 25.96 24.32126 
L 45.445108 24.32126 
L 45.445108 7.2 
L 25.96 7.2 
z
" style="fill:#ffa500;stroke:#ffa500;stroke-linejoin:miter;"/>
   </g>
   <g id="patch_222">
    <path clip-path="url(#pa55d9c16db)" d="M 51.29064 24.32126 
L 70.775748 24.32126 
L 70.775748 7.2 
L 51.29064 7.2 
z
" style="fill:#ffa500;stroke:#ffa500;stroke-linejoin:miter;"/>
   </g>
   <g id="patch_223">
    <path clip-path="url(#pa55d9c16db)" d="M 76.62128 24.32126 
L 96.106388 24.32126 
L 96.106388 7.2 
L 76.62128 7.2 
z
" style="fill:#ffa500;stroke:#ffa500;stroke-linejoin:miter;"/>
   </g>
   <g id="patch_224">
    <path clip-path="url(#pa55d9c16db)" d="M 101.951921 24.32126 
L 121.437028 24.32126 
L 121.437028 7.2 
L 101.951921 7.2 
z
" style="fill:#ffa500;stroke:#ffa500;stroke-linejoin:miter;"/>
   </g>
   <g id="patch_225">
    <path clip-path="url(#pa55d9c16db)" d="M 127.282561 24.32126 
L 146.767669 24.32126 
L 146.767669 7.2 
L 127.282561 7.2 
z
" style="fill:#d3d3d3;stroke:#d3d3d3;stroke-linejoin:miter;"/>
   </g>
   <g id="patch_226">
    <path clip-path="url(#pa55d9c16db)" d="M 152.613201 24.32126 
L 172.098309 24.32126 
L 172.098309 7.2 
L 152.613201 7.2 
z
" style="fill:#d3d3d3;stroke:#d3d3d3;stroke-linejoin:miter;"/>
   </g>
   <g id="patch_227">
    <path clip-path="url(#pa55d9c16db)" d="M 177.943841 24.32126 
L 197.428949 24.32126 
L 197.428949 7.2 
L 177.943841 7.2 
z
" style="fill:#d3d3d3;stroke:#d3d3d3;stroke-linejoin:miter;"/>
   </g>
   <g id="patch_228">
    <path clip-path="url(#pa55d9c16db)" d="M 203.274481 24.32126 
L 222.759589 24.32126 
L 222.759589 7.2 
L 203.274481 7.2 
z
" style="fill:#d3d3d3;stroke:#d3d3d3;stroke-linejoin:miter;"/>
   </g>
   <g id="patch_229">
    <path clip-path="url(#pa55d9c16db)" d="M 228.605122 24.32126 
L 248.090229 24.32126 
L 248.090229 7.2 
L 228.605122 7.2 
z
" style="fill:#d3d3d3;stroke:#d3d3d3;stroke-linejoin:miter;"/>
   </g>
   <g id="patch_230">
    <path clip-path="url(#pa55d9c16db)" d="M 253.935762 24.32126 
L 273.42087 24.32126 
L 273.42087 7.2 
L 253.935762 7.2 
z
" style="fill:#d3d3d3;stroke:#d3d3d3;stroke-linejoin:miter;"/>
   </g>
   <g id="matplotlib.axis_9"/>
   <g id="matplotlib.axis_10"/>
  </g>
  <g id="legend_1">
   <g id="patch_231">
    <path d="M 39.24 239.684062 
L 59.24 239.684062 
L 59.24 232.684062 
L 39.24 232.684062 
z
" style="fill:#ffa500;stroke:#ffa500;stroke-linejoin:miter;"/>
   </g>
   <g id="text_3">
    <!-- false negative -->
    <defs>
     <path d="M 37.109375 75.984375 
L 37.109375 68.5 
L 28.515625 68.5 
Q 23.6875 68.5 21.796875 66.546875 
Q 19.921875 64.59375 19.921875 59.515625 
L 19.921875 54.6875 
L 34.71875 54.6875 
L 34.71875 47.703125 
L 19.921875 47.703125 
L 19.921875 0 
L 10.890625 0 
L 10.890625 47.703125 
L 2.296875 47.703125 
L 2.296875 54.6875 
L 10.890625 54.6875 
L 10.890625 58.5 
Q 10.890625 67.625 15.140625 71.796875 
Q 19.390625 75.984375 28.609375 75.984375 
z
" id="DejaVuSans-102"/>
     <path d="M 44.28125 53.078125 
L 44.28125 44.578125 
Q 40.484375 46.53125 36.375 47.5 
Q 32.28125 48.484375 27.875 48.484375 
Q 21.1875 48.484375 17.84375 46.4375 
Q 14.5 44.390625 14.5 40.28125 
Q 14.5 37.15625 16.890625 35.375 
Q 19.28125 33.59375 26.515625 31.984375 
L 29.59375 31.296875 
Q 39.15625 29.25 43.1875 25.515625 
Q 47.21875 21.78125 47.21875 15.09375 
Q 47.21875 7.46875 41.1875 3.015625 
Q 35.15625 -1.421875 24.609375 -1.421875 
Q 20.21875 -1.421875 15.453125 -0.5625 
Q 10.6875 0.296875 5.421875 2 
L 5.421875 11.28125 
Q 10.40625 8.6875 15.234375 7.390625 
Q 20.0625 6.109375 24.8125 6.109375 
Q 31.15625 6.109375 34.5625 8.28125 
Q 37.984375 10.453125 37.984375 14.40625 
Q 37.984375 18.0625 35.515625 20.015625 
Q 33.0625 21.96875 24.703125 23.78125 
L 21.578125 24.515625 
Q 13.234375 26.265625 9.515625 29.90625 
Q 5.8125 33.546875 5.8125 39.890625 
Q 5.8125 47.609375 11.28125 51.796875 
Q 16.75 56 26.8125 56 
Q 31.78125 56 36.171875 55.265625 
Q 40.578125 54.546875 44.28125 53.078125 
z
" id="DejaVuSans-115"/>
     <path d="M 54.890625 33.015625 
L 54.890625 0 
L 45.90625 0 
L 45.90625 32.71875 
Q 45.90625 40.484375 42.875 44.328125 
Q 39.84375 48.1875 33.796875 48.1875 
Q 26.515625 48.1875 22.3125 43.546875 
Q 18.109375 38.921875 18.109375 30.90625 
L 18.109375 0 
L 9.078125 0 
L 9.078125 54.6875 
L 18.109375 54.6875 
L 18.109375 46.1875 
Q 21.34375 51.125 25.703125 53.5625 
Q 30.078125 56 35.796875 56 
Q 45.21875 56 50.046875 50.171875 
Q 54.890625 44.34375 54.890625 33.015625 
z
" id="DejaVuSans-110"/>
     <path d="M 45.40625 27.984375 
Q 45.40625 37.75 41.375 43.109375 
Q 37.359375 48.484375 30.078125 48.484375 
Q 22.859375 48.484375 18.828125 43.109375 
Q 14.796875 37.75 14.796875 27.984375 
Q 14.796875 18.265625 18.828125 12.890625 
Q 22.859375 7.515625 30.078125 7.515625 
Q 37.359375 7.515625 41.375 12.890625 
Q 45.40625 18.265625 45.40625 27.984375 
z
M 54.390625 6.78125 
Q 54.390625 -7.171875 48.1875 -13.984375 
Q 42 -20.796875 29.203125 -20.796875 
Q 24.46875 -20.796875 20.265625 -20.09375 
Q 16.0625 -19.390625 12.109375 -17.921875 
L 12.109375 -9.1875 
Q 16.0625 -11.328125 19.921875 -12.34375 
Q 23.78125 -13.375 27.78125 -13.375 
Q 36.625 -13.375 41.015625 -8.765625 
Q 45.40625 -4.15625 45.40625 5.171875 
L 45.40625 9.625 
Q 42.625 4.78125 38.28125 2.390625 
Q 33.9375 0 27.875 0 
Q 17.828125 0 11.671875 7.65625 
Q 5.515625 15.328125 5.515625 27.984375 
Q 5.515625 40.671875 11.671875 48.328125 
Q 17.828125 56 27.875 56 
Q 33.9375 56 38.28125 53.609375 
Q 42.625 51.21875 45.40625 46.390625 
L 45.40625 54.6875 
L 54.390625 54.6875 
z
" id="DejaVuSans-103"/>
     <path d="M 18.3125 70.21875 
L 18.3125 54.6875 
L 36.8125 54.6875 
L 36.8125 47.703125 
L 18.3125 47.703125 
L 18.3125 18.015625 
Q 18.3125 11.328125 20.140625 9.421875 
Q 21.96875 7.515625 27.59375 7.515625 
L 36.8125 7.515625 
L 36.8125 0 
L 27.59375 0 
Q 17.1875 0 13.234375 3.875 
Q 9.28125 7.765625 9.28125 18.015625 
L 9.28125 47.703125 
L 2.6875 47.703125 
L 2.6875 54.6875 
L 9.28125 54.6875 
L 9.28125 70.21875 
z
" id="DejaVuSans-116"/>
     <path d="M 9.421875 54.6875 
L 18.40625 54.6875 
L 18.40625 0 
L 9.421875 0 
z
M 9.421875 75.984375 
L 18.40625 75.984375 
L 18.40625 64.59375 
L 9.421875 64.59375 
z
" id="DejaVuSans-105"/>
     <path d="M 2.984375 54.6875 
L 12.5 54.6875 
L 29.59375 8.796875 
L 46.6875 54.6875 
L 56.203125 54.6875 
L 35.6875 0 
L 23.484375 0 
z
" id="DejaVuSans-118"/>
    </defs>
    <g transform="translate(67.24 239.684062)scale(0.1 -0.1)">
     <use xlink:href="#DejaVuSans-102"/>
     <use x="35.205078" xlink:href="#DejaVuSans-97"/>
     <use x="96.484375" xlink:href="#DejaVuSans-108"/>
     <use x="124.267578" xlink:href="#DejaVuSans-115"/>
     <use x="176.367188" xlink:href="#DejaVuSans-101"/>
     <use x="237.890625" xlink:href="#DejaVuSans-32"/>
     <use x="269.677734" xlink:href="#DejaVuSans-110"/>
     <use x="333.056641" xlink:href="#DejaVuSans-101"/>
     <use x="394.580078" xlink:href="#DejaVuSans-103"/>
     <use x="458.056641" xlink:href="#DejaVuSans-97"/>
     <use x="519.335938" xlink:href="#DejaVuSans-116"/>
     <use x="558.544922" xlink:href="#DejaVuSans-105"/>
     <use x="586.328125" xlink:href="#DejaVuSans-118"/>
     <use x="645.507812" xlink:href="#DejaVuSans-101"/>
    </g>
   </g>
   <g id="patch_232">
    <path d="M 39.24 254.362187 
L 59.24 254.362187 
L 59.24 247.362187 
L 39.24 247.362187 
z
" style="fill:#006400;stroke:#006400;stroke-linejoin:miter;"/>
   </g>
   <g id="text_4">
    <!-- true positive -->
    <defs>
     <path d="M 8.5 21.578125 
L 8.5 54.6875 
L 17.484375 54.6875 
L 17.484375 21.921875 
Q 17.484375 14.15625 20.5 10.265625 
Q 23.53125 6.390625 29.59375 6.390625 
Q 36.859375 6.390625 41.078125 11.03125 
Q 45.3125 15.671875 45.3125 23.6875 
L 45.3125 54.6875 
L 54.296875 54.6875 
L 54.296875 0 
L 45.3125 0 
L 45.3125 8.40625 
Q 42.046875 3.421875 37.71875 1 
Q 33.40625 -1.421875 27.6875 -1.421875 
Q 18.265625 -1.421875 13.375 4.4375 
Q 8.5 10.296875 8.5 21.578125 
z
M 31.109375 56 
z
" id="DejaVuSans-117"/>
     <path d="M 30.609375 48.390625 
Q 23.390625 48.390625 19.1875 42.75 
Q 14.984375 37.109375 14.984375 27.296875 
Q 14.984375 17.484375 19.15625 11.84375 
Q 23.34375 6.203125 30.609375 6.203125 
Q 37.796875 6.203125 41.984375 11.859375 
Q 46.1875 17.53125 46.1875 27.296875 
Q 46.1875 37.015625 41.984375 42.703125 
Q 37.796875 48.390625 30.609375 48.390625 
z
M 30.609375 56 
Q 42.328125 56 49.015625 48.375 
Q 55.71875 40.765625 55.71875 27.296875 
Q 55.71875 13.875 49.015625 6.21875 
Q 42.328125 -1.421875 30.609375 -1.421875 
Q 18.84375 -1.421875 12.171875 6.21875 
Q 5.515625 13.875 5.515625 27.296875 
Q 5.515625 40.765625 12.171875 48.375 
Q 18.84375 56 30.609375 56 
z
" id="DejaVuSans-111"/>
    </defs>
    <g transform="translate(67.24 254.362187)scale(0.1 -0.1)">
     <use xlink:href="#DejaVuSans-116"/>
     <use x="39.208984" xlink:href="#DejaVuSans-114"/>
     <use x="80.322266" xlink:href="#DejaVuSans-117"/>
     <use x="143.701172" xlink:href="#DejaVuSans-101"/>
     <use x="205.224609" xlink:href="#DejaVuSans-32"/>
     <use x="237.011719" xlink:href="#DejaVuSans-112"/>
     <use x="300.488281" xlink:href="#DejaVuSans-111"/>
     <use x="361.669922" xlink:href="#DejaVuSans-115"/>
     <use x="413.769531" xlink:href="#DejaVuSans-105"/>
     <use x="441.552734" xlink:href="#DejaVuSans-116"/>
     <use x="480.761719" xlink:href="#DejaVuSans-105"/>
     <use x="508.544922" xlink:href="#DejaVuSans-118"/>
     <use x="567.724609" xlink:href="#DejaVuSans-101"/>
    </g>
   </g>
   <g id="patch_233">
    <path d="M 39.24 269.040312 
L 59.24 269.040312 
L 59.24 262.040312 
L 39.24 262.040312 
z
" style="fill:none;"/>
   </g>
   <g id="text_5">
    <!-- relevant -->
    <g transform="translate(67.24 269.040312)scale(0.1 -0.1)">
     <use xlink:href="#DejaVuSans-114"/>
     <use x="41.082031" xlink:href="#DejaVuSans-101"/>
     <use x="102.605469" xlink:href="#DejaVuSans-108"/>
     <use x="130.388672" xlink:href="#DejaVuSans-101"/>
     <use x="191.912109" xlink:href="#DejaVuSans-118"/>
     <use x="251.091797" xlink:href="#DejaVuSans-97"/>
     <use x="312.371094" xlink:href="#DejaVuSans-110"/>
     <use x="375.75" xlink:href="#DejaVuSans-116"/>
    </g>
   </g>
   <g id="patch_234">
    <path d="M 157.944688 239.684062 
L 177.944688 239.684062 
L 177.944688 232.684062 
L 157.944688 232.684062 
z
" style="fill:#d3d3d3;stroke:#d3d3d3;stroke-linejoin:miter;"/>
   </g>
   <g id="text_6">
    <!-- true negative -->
    <g transform="translate(185.944688 239.684062)scale(0.1 -0.1)">
     <use xlink:href="#DejaVuSans-116"/>
     <use x="39.208984" xlink:href="#DejaVuSans-114"/>
     <use x="80.322266" xlink:href="#DejaVuSans-117"/>
     <use x="143.701172" xlink:href="#DejaVuSans-101"/>
     <use x="205.224609" xlink:href="#DejaVuSans-32"/>
     <use x="237.011719" xlink:href="#DejaVuSans-110"/>
     <use x="300.390625" xlink:href="#DejaVuSans-101"/>
     <use x="361.914062" xlink:href="#DejaVuSans-103"/>
     <use x="425.390625" xlink:href="#DejaVuSans-97"/>
     <use x="486.669922" xlink:href="#DejaVuSans-116"/>
     <use x="525.878906" xlink:href="#DejaVuSans-105"/>
     <use x="553.662109" xlink:href="#DejaVuSans-118"/>
     <use x="612.841797" xlink:href="#DejaVuSans-101"/>
    </g>
   </g>
   <g id="patch_235">
    <path d="M 157.944688 254.362187 
L 177.944688 254.362187 
L 177.944688 247.362187 
L 157.944688 247.362187 
z
" style="fill:#ff0000;stroke:#ff0000;stroke-linejoin:miter;"/>
   </g>
   <g id="text_7">
    <!-- false positive -->
    <g transform="translate(185.944688 254.362187)scale(0.1 -0.1)">
     <use xlink:href="#DejaVuSans-102"/>
     <use x="35.205078" xlink:href="#DejaVuSans-97"/>
     <use x="96.484375" xlink:href="#DejaVuSans-108"/>
     <use x="124.267578" xlink:href="#DejaVuSans-115"/>
     <use x="176.367188" xlink:href="#DejaVuSans-101"/>
     <use x="237.890625" xlink:href="#DejaVuSans-32"/>
     <use x="269.677734" xlink:href="#DejaVuSans-112"/>
     <use x="333.154297" xlink:href="#DejaVuSans-111"/>
     <use x="394.335938" xlink:href="#DejaVuSans-115"/>
     <use x="446.435547" xlink:href="#DejaVuSans-105"/>
     <use x="474.21875" xlink:href="#DejaVuSans-116"/>
     <use x="513.427734" xlink:href="#DejaVuSans-105"/>
     <use x="541.210938" xlink:href="#DejaVuSans-118"/>
     <use x="600.390625" xlink:href="#DejaVuSans-101"/>
    </g>
   </g>
   <g id="patch_236">
    <path d="M 157.944688 269.040312 
L 177.944688 269.040312 
L 177.944688 262.040312 
L 157.944688 262.040312 
z
" style="fill:none;"/>
   </g>
   <g id="text_8">
    <!-- irrelevant -->
    <g transform="translate(185.944688 269.040312)scale(0.1 -0.1)">
     <use xlink:href="#DejaVuSans-105"/>
     <use x="27.783203" xlink:href="#DejaVuSans-114"/>
     <use x="68.880859" xlink:href="#DejaVuSans-114"/>
     <use x="109.962891" xlink:href="#DejaVuSans-101"/>
     <use x="171.486328" xlink:href="#DejaVuSans-108"/>
     <use x="199.269531" xlink:href="#DejaVuSans-101"/>
     <use x="260.792969" xlink:href="#DejaVuSans-118"/>
     <use x="319.972656" xlink:href="#DejaVuSans-97"/>
     <use x="381.251953" xlink:href="#DejaVuSans-110"/>
     <use x="444.630859" xlink:href="#DejaVuSans-116"/>
    </g>
   </g>
  </g>
 </g>
 <defs>
  <clipPath id="p0598feefcd">
   <rect height="47.269565" width="72.782609" x="287.977391" y="7.2"/>
  </clipPath>
  <clipPath id="p0129e9d919">
   <rect height="47.269565" width="72.782609" x="287.977391" y="63.923478"/>
  </clipPath>
  <clipPath id="p6542eba909">
   <rect height="47.269565" width="72.782609" x="287.977391" y="120.646957"/>
  </clipPath>
  <clipPath id="pbeb672b8c6">
   <rect height="47.269565" width="72.782609" x="287.977391" y="177.370435"/>
  </clipPath>
  <clipPath id="pa55d9c16db">
   <rect height="217.44" width="247.46087" x="25.96" y="7.2"/>
  </clipPath>
 </defs>
</svg>
