<?xml version="1.0" encoding="utf-8" standalone="no"?>
<!DOCTYPE svg PUBLIC "-//W3C//DTD SVG 1.1//EN"
  "http://www.w3.org/Graphics/SVG/1.1/DTD/svg11.dtd">
<svg height="330.808pt" version="1.1" viewBox="0 0 391.864 330.808" width="391.864pt" xmlns="http://www.w3.org/2000/svg" xmlns:xlink="http://www.w3.org/1999/xlink">
 <metadata>
  <rdf:RDF xmlns:cc="http://creativecommons.org/ns#" xmlns:dc="http://purl.org/dc/elements/1.1/" xmlns:rdf="http://www.w3.org/1999/02/22-rdf-syntax-ns#">
   <cc:Work>
    <dc:type rdf:resource="http://purl.org/dc/dcmitype/StillImage"/>
    <dc:date>2022-03-18T11:41:55.167951</dc:date>
    <dc:format>image/svg+xml</dc:format>
    <dc:creator>
     <cc:Agent>
      <dc:title>Matplotlib v3.4.3, https://matplotlib.org/</dc:title>
     </cc:Agent>
    </dc:creator>
   </cc:Work>
  </rdf:RDF>
 </metadata>
 <defs>
  <style type="text/css">*{stroke-linecap:butt;stroke-linejoin:round;}</style>
 </defs>
 <g id="figure_1">
  <g id="patch_1">
   <path d="M 0 330.808 
L 391.864 330.808 
L 391.864 0 
L 0 0 
z
" style="fill:#ffffff;"/>
  </g>
  <g id="axes_1">
   <g id="patch_2">
    <path d="M 341.11278 134.470957 
L 384.664 134.470957 
L 384.664 7.2 
L 341.11278 7.2 
z
" style="fill:none;"/>
   </g>
   <g id="patch_3">
    <path clip-path="url(#pa8e6dbf068)" d="M 341.11278 134.470957 
L 347.334383 134.470957 
L 347.334383 132.139987 
L 341.11278 132.139987 
z
" style="fill:#006400;stroke:#006400;stroke-linejoin:miter;"/>
   </g>
   <g id="patch_4">
    <path clip-path="url(#pa8e6dbf068)" d="M 353.555986 134.470957 
L 359.777589 134.470957 
L 359.777589 132.139987 
L 353.555986 132.139987 
z
" style="fill:#006400;stroke:#006400;stroke-linejoin:miter;"/>
   </g>
   <g id="patch_5">
    <path clip-path="url(#pa8e6dbf068)" d="M 365.999192 134.470957 
L 372.220794 134.470957 
L 372.220794 132.139987 
L 365.999192 132.139987 
z
" style="fill:#006400;stroke:#006400;stroke-linejoin:miter;"/>
   </g>
   <g id="patch_6">
    <path clip-path="url(#pa8e6dbf068)" d="M 378.442397 134.470957 
L 384.664 134.470957 
L 384.664 132.139987 
L 378.442397 132.139987 
z
" style="fill:#006400;stroke:#006400;stroke-linejoin:miter;"/>
   </g>
   <g id="patch_7">
    <path clip-path="url(#pa8e6dbf068)" d="M 341.11278 129.809017 
L 347.334383 129.809017 
L 347.334383 127.478047 
L 341.11278 127.478047 
z
" style="fill:#006400;stroke:#006400;stroke-linejoin:miter;"/>
   </g>
   <g id="patch_8">
    <path clip-path="url(#pa8e6dbf068)" d="M 353.555986 129.809017 
L 359.777589 129.809017 
L 359.777589 127.478047 
L 353.555986 127.478047 
z
" style="fill:#006400;stroke:#006400;stroke-linejoin:miter;"/>
   </g>
   <g id="patch_9">
    <path clip-path="url(#pa8e6dbf068)" d="M 365.999192 129.809017 
L 372.220794 129.809017 
L 372.220794 127.478047 
L 365.999192 127.478047 
z
" style="fill:#006400;stroke:#006400;stroke-linejoin:miter;"/>
   </g>
   <g id="patch_10">
    <path clip-path="url(#pa8e6dbf068)" d="M 378.442397 129.809017 
L 384.664 129.809017 
L 384.664 127.478047 
L 378.442397 127.478047 
z
" style="fill:#006400;stroke:#006400;stroke-linejoin:miter;"/>
   </g>
   <g id="patch_11">
    <path clip-path="url(#pa8e6dbf068)" d="M 341.11278 125.147077 
L 347.334383 125.147077 
L 347.334383 122.816107 
L 341.11278 122.816107 
z
" style="fill:#006400;stroke:#006400;stroke-linejoin:miter;"/>
   </g>
   <g id="patch_12">
    <path clip-path="url(#pa8e6dbf068)" d="M 353.555986 125.147077 
L 359.777589 125.147077 
L 359.777589 122.816107 
L 353.555986 122.816107 
z
" style="fill:#006400;stroke:#006400;stroke-linejoin:miter;"/>
   </g>
   <g id="patch_13">
    <path clip-path="url(#pa8e6dbf068)" d="M 365.999192 125.147077 
L 372.220794 125.147077 
L 372.220794 122.816107 
L 365.999192 122.816107 
z
" style="fill:#006400;stroke:#006400;stroke-linejoin:miter;"/>
   </g>
   <g id="patch_14">
    <path clip-path="url(#pa8e6dbf068)" d="M 378.442397 125.147077 
L 384.664 125.147077 
L 384.664 122.816107 
L 378.442397 122.816107 
z
" style="fill:#006400;stroke:#006400;stroke-linejoin:miter;"/>
   </g>
   <g id="patch_15">
    <path clip-path="url(#pa8e6dbf068)" d="M 341.11278 120.485137 
L 347.334383 120.485137 
L 347.334383 118.154167 
L 341.11278 118.154167 
z
" style="fill:#006400;stroke:#006400;stroke-linejoin:miter;"/>
   </g>
   <g id="patch_16">
    <path clip-path="url(#pa8e6dbf068)" d="M 353.555986 120.485137 
L 359.777589 120.485137 
L 359.777589 118.154167 
L 353.555986 118.154167 
z
" style="fill:#006400;stroke:#006400;stroke-linejoin:miter;"/>
   </g>
   <g id="patch_17">
    <path clip-path="url(#pa8e6dbf068)" d="M 365.999192 120.485137 
L 372.220794 120.485137 
L 372.220794 118.154167 
L 365.999192 118.154167 
z
" style="fill:#006400;stroke:#006400;stroke-linejoin:miter;"/>
   </g>
   <g id="patch_18">
    <path clip-path="url(#pa8e6dbf068)" d="M 378.442397 120.485137 
L 384.664 120.485137 
L 384.664 118.154167 
L 378.442397 118.154167 
z
" style="fill:#006400;stroke:#006400;stroke-linejoin:miter;"/>
   </g>
   <g id="patch_19">
    <path clip-path="url(#pa8e6dbf068)" d="M 341.11278 115.823197 
L 347.334383 115.823197 
L 347.334383 113.492227 
L 341.11278 113.492227 
z
" style="fill:#006400;stroke:#006400;stroke-linejoin:miter;"/>
   </g>
   <g id="patch_20">
    <path clip-path="url(#pa8e6dbf068)" d="M 353.555986 115.823197 
L 359.777589 115.823197 
L 359.777589 113.492227 
L 353.555986 113.492227 
z
" style="fill:#006400;stroke:#006400;stroke-linejoin:miter;"/>
   </g>
   <g id="patch_21">
    <path clip-path="url(#pa8e6dbf068)" d="M 365.999192 115.823197 
L 372.220794 115.823197 
L 372.220794 113.492227 
L 365.999192 113.492227 
z
" style="fill:#006400;stroke:#006400;stroke-linejoin:miter;"/>
   </g>
   <g id="patch_22">
    <path clip-path="url(#pa8e6dbf068)" d="M 378.442397 115.823197 
L 384.664 115.823197 
L 384.664 113.492227 
L 378.442397 113.492227 
z
" style="fill:#006400;stroke:#006400;stroke-linejoin:miter;"/>
   </g>
   <g id="patch_23">
    <path clip-path="url(#pa8e6dbf068)" d="M 341.11278 111.161258 
L 347.334383 111.161258 
L 347.334383 108.830288 
L 341.11278 108.830288 
z
" style="fill:#006400;stroke:#006400;stroke-linejoin:miter;"/>
   </g>
   <g id="patch_24">
    <path clip-path="url(#pa8e6dbf068)" d="M 353.555986 111.161258 
L 359.777589 111.161258 
L 359.777589 108.830288 
L 353.555986 108.830288 
z
" style="fill:#006400;stroke:#006400;stroke-linejoin:miter;"/>
   </g>
   <g id="patch_25">
    <path clip-path="url(#pa8e6dbf068)" d="M 365.999192 111.161258 
L 372.220794 111.161258 
L 372.220794 108.830288 
L 365.999192 108.830288 
z
" style="fill:#006400;stroke:#006400;stroke-linejoin:miter;"/>
   </g>
   <g id="patch_26">
    <path clip-path="url(#pa8e6dbf068)" d="M 378.442397 111.161258 
L 384.664 111.161258 
L 384.664 108.830288 
L 378.442397 108.830288 
z
" style="fill:#006400;stroke:#006400;stroke-linejoin:miter;"/>
   </g>
   <g id="patch_27">
    <path clip-path="url(#pa8e6dbf068)" d="M 341.11278 106.499318 
L 347.334383 106.499318 
L 347.334383 104.168348 
L 341.11278 104.168348 
z
" style="fill:#006400;stroke:#006400;stroke-linejoin:miter;"/>
   </g>
   <g id="patch_28">
    <path clip-path="url(#pa8e6dbf068)" d="M 353.555986 106.499318 
L 359.777589 106.499318 
L 359.777589 104.168348 
L 353.555986 104.168348 
z
" style="fill:#006400;stroke:#006400;stroke-linejoin:miter;"/>
   </g>
   <g id="patch_29">
    <path clip-path="url(#pa8e6dbf068)" d="M 365.999192 106.499318 
L 372.220794 106.499318 
L 372.220794 104.168348 
L 365.999192 104.168348 
z
" style="fill:#006400;stroke:#006400;stroke-linejoin:miter;"/>
   </g>
   <g id="patch_30">
    <path clip-path="url(#pa8e6dbf068)" d="M 378.442397 106.499318 
L 384.664 106.499318 
L 384.664 104.168348 
L 378.442397 104.168348 
z
" style="fill:#006400;stroke:#006400;stroke-linejoin:miter;"/>
   </g>
   <g id="patch_31">
    <path clip-path="url(#pa8e6dbf068)" d="M 341.11278 101.837378 
L 347.334383 101.837378 
L 347.334383 99.506408 
L 341.11278 99.506408 
z
" style="fill:#006400;stroke:#006400;stroke-linejoin:miter;"/>
   </g>
   <g id="patch_32">
    <path clip-path="url(#pa8e6dbf068)" d="M 353.555986 101.837378 
L 359.777589 101.837378 
L 359.777589 99.506408 
L 353.555986 99.506408 
z
" style="fill:#006400;stroke:#006400;stroke-linejoin:miter;"/>
   </g>
   <g id="patch_33">
    <path clip-path="url(#pa8e6dbf068)" d="M 365.999192 101.837378 
L 372.220794 101.837378 
L 372.220794 99.506408 
L 365.999192 99.506408 
z
" style="fill:#ff0000;stroke:#ff0000;stroke-linejoin:miter;"/>
   </g>
   <g id="patch_34">
    <path clip-path="url(#pa8e6dbf068)" d="M 378.442397 101.837378 
L 384.664 101.837378 
L 384.664 99.506408 
L 378.442397 99.506408 
z
" style="fill:#ff0000;stroke:#ff0000;stroke-linejoin:miter;"/>
   </g>
   <g id="patch_35">
    <path clip-path="url(#pa8e6dbf068)" d="M 341.11278 97.175438 
L 347.334383 97.175438 
L 347.334383 94.844468 
L 341.11278 94.844468 
z
" style="fill:#ff0000;stroke:#ff0000;stroke-linejoin:miter;"/>
   </g>
   <g id="patch_36">
    <path clip-path="url(#pa8e6dbf068)" d="M 353.555986 97.175438 
L 359.777589 97.175438 
L 359.777589 94.844468 
L 353.555986 94.844468 
z
" style="fill:#ff0000;stroke:#ff0000;stroke-linejoin:miter;"/>
   </g>
   <g id="patch_37">
    <path clip-path="url(#pa8e6dbf068)" d="M 365.999192 97.175438 
L 372.220794 97.175438 
L 372.220794 94.844468 
L 365.999192 94.844468 
z
" style="fill:#ff0000;stroke:#ff0000;stroke-linejoin:miter;"/>
   </g>
   <g id="patch_38">
    <path clip-path="url(#pa8e6dbf068)" d="M 378.442397 97.175438 
L 384.664 97.175438 
L 384.664 94.844468 
L 378.442397 94.844468 
z
" style="fill:#ff0000;stroke:#ff0000;stroke-linejoin:miter;"/>
   </g>
   <g id="patch_39">
    <path clip-path="url(#pa8e6dbf068)" d="M 341.11278 92.513498 
L 347.334383 92.513498 
L 347.334383 90.182528 
L 341.11278 90.182528 
z
" style="fill:#ff0000;stroke:#ff0000;stroke-linejoin:miter;"/>
   </g>
   <g id="patch_40">
    <path clip-path="url(#pa8e6dbf068)" d="M 353.555986 92.513498 
L 359.777589 92.513498 
L 359.777589 90.182528 
L 353.555986 90.182528 
z
" style="fill:#ff0000;stroke:#ff0000;stroke-linejoin:miter;"/>
   </g>
   <g id="patch_41">
    <path clip-path="url(#pa8e6dbf068)" d="M 365.999192 92.513498 
L 372.220794 92.513498 
L 372.220794 90.182528 
L 365.999192 90.182528 
z
" style="fill:#ff0000;stroke:#ff0000;stroke-linejoin:miter;"/>
   </g>
   <g id="patch_42">
    <path clip-path="url(#pa8e6dbf068)" d="M 378.442397 92.513498 
L 384.664 92.513498 
L 384.664 90.182528 
L 378.442397 90.182528 
z
" style="fill:#ff0000;stroke:#ff0000;stroke-linejoin:miter;"/>
   </g>
   <g id="patch_43">
    <path clip-path="url(#pa8e6dbf068)" d="M 341.11278 87.851559 
L 347.334383 87.851559 
L 347.334383 85.520589 
L 341.11278 85.520589 
z
" style="fill:#ff0000;stroke:#ff0000;stroke-linejoin:miter;"/>
   </g>
   <g id="patch_44">
    <path clip-path="url(#pa8e6dbf068)" d="M 353.555986 87.851559 
L 359.777589 87.851559 
L 359.777589 85.520589 
L 353.555986 85.520589 
z
" style="fill:#ff0000;stroke:#ff0000;stroke-linejoin:miter;"/>
   </g>
   <g id="patch_45">
    <path clip-path="url(#pa8e6dbf068)" d="M 365.999192 87.851559 
L 372.220794 87.851559 
L 372.220794 85.520589 
L 365.999192 85.520589 
z
" style="fill:#ff0000;stroke:#ff0000;stroke-linejoin:miter;"/>
   </g>
   <g id="patch_46">
    <path clip-path="url(#pa8e6dbf068)" d="M 378.442397 87.851559 
L 384.664 87.851559 
L 384.664 85.520589 
L 378.442397 85.520589 
z
" style="fill:#ff0000;stroke:#ff0000;stroke-linejoin:miter;"/>
   </g>
   <g id="patch_47">
    <path clip-path="url(#pa8e6dbf068)" d="M 341.11278 83.189619 
L 347.334383 83.189619 
L 347.334383 80.858649 
L 341.11278 80.858649 
z
" style="fill:#ff0000;stroke:#ff0000;stroke-linejoin:miter;"/>
   </g>
   <g id="patch_48">
    <path clip-path="url(#pa8e6dbf068)" d="M 353.555986 83.189619 
L 359.777589 83.189619 
L 359.777589 80.858649 
L 353.555986 80.858649 
z
" style="fill:#ff0000;stroke:#ff0000;stroke-linejoin:miter;"/>
   </g>
   <g id="patch_49">
    <path clip-path="url(#pa8e6dbf068)" d="M 365.999192 83.189619 
L 372.220794 83.189619 
L 372.220794 80.858649 
L 365.999192 80.858649 
z
" style="fill:#ff0000;stroke:#ff0000;stroke-linejoin:miter;"/>
   </g>
   <g id="patch_50">
    <path clip-path="url(#pa8e6dbf068)" d="M 378.442397 83.189619 
L 384.664 83.189619 
L 384.664 80.858649 
L 378.442397 80.858649 
z
" style="fill:#ff0000;stroke:#ff0000;stroke-linejoin:miter;"/>
   </g>
   <g id="patch_51">
    <path clip-path="url(#pa8e6dbf068)" d="M 341.11278 78.527679 
L 347.334383 78.527679 
L 347.334383 76.196709 
L 341.11278 76.196709 
z
" style="fill:#ff0000;stroke:#ff0000;stroke-linejoin:miter;"/>
   </g>
   <g id="patch_52">
    <path clip-path="url(#pa8e6dbf068)" d="M 353.555986 78.527679 
L 359.777589 78.527679 
L 359.777589 76.196709 
L 353.555986 76.196709 
z
" style="fill:#ff0000;stroke:#ff0000;stroke-linejoin:miter;"/>
   </g>
   <g id="patch_53">
    <path clip-path="url(#pa8e6dbf068)" d="M 365.999192 78.527679 
L 372.220794 78.527679 
L 372.220794 76.196709 
L 365.999192 76.196709 
z
" style="fill:#ff0000;stroke:#ff0000;stroke-linejoin:miter;"/>
   </g>
   <g id="patch_54">
    <path clip-path="url(#pa8e6dbf068)" d="M 378.442397 78.527679 
L 384.664 78.527679 
L 384.664 76.196709 
L 378.442397 76.196709 
z
" style="fill:#ff0000;stroke:#ff0000;stroke-linejoin:miter;"/>
   </g>
   <g id="patch_55">
    <path clip-path="url(#pa8e6dbf068)" d="M 341.11278 73.865739 
L 347.334383 73.865739 
L 347.334383 71.534769 
L 341.11278 71.534769 
z
" style="fill:#ff0000;stroke:#ff0000;stroke-linejoin:miter;"/>
   </g>
   <g id="patch_56">
    <path clip-path="url(#pa8e6dbf068)" d="M 353.555986 73.865739 
L 359.777589 73.865739 
L 359.777589 71.534769 
L 353.555986 71.534769 
z
" style="fill:#ff0000;stroke:#ff0000;stroke-linejoin:miter;"/>
   </g>
   <g id="patch_57">
    <path clip-path="url(#pa8e6dbf068)" d="M 365.999192 73.865739 
L 372.220794 73.865739 
L 372.220794 71.534769 
L 365.999192 71.534769 
z
" style="fill:#ff0000;stroke:#ff0000;stroke-linejoin:miter;"/>
   </g>
   <g id="patch_58">
    <path clip-path="url(#pa8e6dbf068)" d="M 378.442397 73.865739 
L 384.664 73.865739 
L 384.664 71.534769 
L 378.442397 71.534769 
z
" style="fill:#ff0000;stroke:#ff0000;stroke-linejoin:miter;"/>
   </g>
   <g id="patch_59">
    <path clip-path="url(#pa8e6dbf068)" d="M 341.11278 69.203799 
L 347.334383 69.203799 
L 347.334383 66.872829 
L 341.11278 66.872829 
z
" style="fill:#ff0000;stroke:#ff0000;stroke-linejoin:miter;"/>
   </g>
   <g id="patch_60">
    <path clip-path="url(#pa8e6dbf068)" d="M 353.555986 69.203799 
L 359.777589 69.203799 
L 359.777589 66.872829 
L 353.555986 66.872829 
z
" style="fill:#ff0000;stroke:#ff0000;stroke-linejoin:miter;"/>
   </g>
   <g id="patch_61">
    <path clip-path="url(#pa8e6dbf068)" d="M 365.999192 69.203799 
L 372.220794 69.203799 
L 372.220794 66.872829 
L 365.999192 66.872829 
z
" style="fill:#ff0000;stroke:#ff0000;stroke-linejoin:miter;"/>
   </g>
   <g id="patch_62">
    <path clip-path="url(#pa8e6dbf068)" d="M 378.442397 69.203799 
L 384.664 69.203799 
L 384.664 66.872829 
L 378.442397 66.872829 
z
" style="fill:#ff0000;stroke:#ff0000;stroke-linejoin:miter;"/>
   </g>
   <g id="patch_63">
    <path clip-path="url(#pa8e6dbf068)" d="M 341.11278 64.54186 
L 347.334383 64.54186 
L 347.334383 62.21089 
L 341.11278 62.21089 
z
" style="fill:#ff0000;stroke:#ff0000;stroke-linejoin:miter;"/>
   </g>
   <g id="patch_64">
    <path clip-path="url(#pa8e6dbf068)" d="M 353.555986 64.54186 
L 359.777589 64.54186 
L 359.777589 62.21089 
L 353.555986 62.21089 
z
" style="fill:#ff0000;stroke:#ff0000;stroke-linejoin:miter;"/>
   </g>
   <g id="patch_65">
    <path clip-path="url(#pa8e6dbf068)" d="M 365.999192 64.54186 
L 372.220794 64.54186 
L 372.220794 62.21089 
L 365.999192 62.21089 
z
" style="fill:#ff0000;stroke:#ff0000;stroke-linejoin:miter;"/>
   </g>
   <g id="patch_66">
    <path clip-path="url(#pa8e6dbf068)" d="M 378.442397 64.54186 
L 384.664 64.54186 
L 384.664 62.21089 
L 378.442397 62.21089 
z
" style="fill:#ff0000;stroke:#ff0000;stroke-linejoin:miter;"/>
   </g>
   <g id="patch_67">
    <path clip-path="url(#pa8e6dbf068)" d="M 341.11278 59.87992 
L 347.334383 59.87992 
L 347.334383 57.54895 
L 341.11278 57.54895 
z
" style="fill:#ff0000;stroke:#ff0000;stroke-linejoin:miter;"/>
   </g>
   <g id="patch_68">
    <path clip-path="url(#pa8e6dbf068)" d="M 353.555986 59.87992 
L 359.777589 59.87992 
L 359.777589 57.54895 
L 353.555986 57.54895 
z
" style="fill:#ff0000;stroke:#ff0000;stroke-linejoin:miter;"/>
   </g>
   <g id="patch_69">
    <path clip-path="url(#pa8e6dbf068)" d="M 365.999192 59.87992 
L 372.220794 59.87992 
L 372.220794 57.54895 
L 365.999192 57.54895 
z
" style="fill:#ff0000;stroke:#ff0000;stroke-linejoin:miter;"/>
   </g>
   <g id="patch_70">
    <path clip-path="url(#pa8e6dbf068)" d="M 378.442397 59.87992 
L 384.664 59.87992 
L 384.664 57.54895 
L 378.442397 57.54895 
z
" style="fill:#ff0000;stroke:#ff0000;stroke-linejoin:miter;"/>
   </g>
   <g id="patch_71">
    <path clip-path="url(#pa8e6dbf068)" d="M 341.11278 55.21798 
L 347.334383 55.21798 
L 347.334383 52.88701 
L 341.11278 52.88701 
z
" style="fill:#ff0000;stroke:#ff0000;stroke-linejoin:miter;"/>
   </g>
   <g id="patch_72">
    <path clip-path="url(#pa8e6dbf068)" d="M 353.555986 55.21798 
L 359.777589 55.21798 
L 359.777589 52.88701 
L 353.555986 52.88701 
z
" style="fill:#ff0000;stroke:#ff0000;stroke-linejoin:miter;"/>
   </g>
   <g id="patch_73">
    <path clip-path="url(#pa8e6dbf068)" d="M 365.999192 55.21798 
L 372.220794 55.21798 
L 372.220794 52.88701 
L 365.999192 52.88701 
z
" style="fill:#ff0000;stroke:#ff0000;stroke-linejoin:miter;"/>
   </g>
   <g id="patch_74">
    <path clip-path="url(#pa8e6dbf068)" d="M 378.442397 55.21798 
L 384.664 55.21798 
L 384.664 52.88701 
L 378.442397 52.88701 
z
" style="fill:#ff0000;stroke:#ff0000;stroke-linejoin:miter;"/>
   </g>
   <g id="patch_75">
    <path clip-path="url(#pa8e6dbf068)" d="M 341.11278 50.55604 
L 347.334383 50.55604 
L 347.334383 48.22507 
L 341.11278 48.22507 
z
" style="fill:#ff0000;stroke:#ff0000;stroke-linejoin:miter;"/>
   </g>
   <g id="patch_76">
    <path clip-path="url(#pa8e6dbf068)" d="M 353.555986 50.55604 
L 359.777589 50.55604 
L 359.777589 48.22507 
L 353.555986 48.22507 
z
" style="fill:#ff0000;stroke:#ff0000;stroke-linejoin:miter;"/>
   </g>
   <g id="patch_77">
    <path clip-path="url(#pa8e6dbf068)" d="M 365.999192 50.55604 
L 372.220794 50.55604 
L 372.220794 48.22507 
L 365.999192 48.22507 
z
" style="fill:#ff0000;stroke:#ff0000;stroke-linejoin:miter;"/>
   </g>
   <g id="patch_78">
    <path clip-path="url(#pa8e6dbf068)" d="M 378.442397 50.55604 
L 384.664 50.55604 
L 384.664 48.22507 
L 378.442397 48.22507 
z
" style="fill:#ff0000;stroke:#ff0000;stroke-linejoin:miter;"/>
   </g>
   <g id="patch_79">
    <path clip-path="url(#pa8e6dbf068)" d="M 341.11278 45.8941 
L 347.334383 45.8941 
L 347.334383 43.56313 
L 341.11278 43.56313 
z
" style="fill:#ff0000;stroke:#ff0000;stroke-linejoin:miter;"/>
   </g>
   <g id="patch_80">
    <path clip-path="url(#pa8e6dbf068)" d="M 353.555986 45.8941 
L 359.777589 45.8941 
L 359.777589 43.56313 
L 353.555986 43.56313 
z
" style="fill:#ff0000;stroke:#ff0000;stroke-linejoin:miter;"/>
   </g>
   <g id="matplotlib.axis_1"/>
   <g id="matplotlib.axis_2"/>
   <g id="text_1">
    <!-- prec -->
    <g transform="translate(349.756828 25.943912)scale(0.12 -0.12)">
     <defs>
      <path d="M 1159 525 
L 1159 -1331 
L 581 -1331 
L 581 3500 
L 1159 3500 
L 1159 2969 
Q 1341 3281 1617 3432 
Q 1894 3584 2278 3584 
Q 2916 3584 3314 3078 
Q 3713 2572 3713 1747 
Q 3713 922 3314 415 
Q 2916 -91 2278 -91 
Q 1894 -91 1617 61 
Q 1341 213 1159 525 
z
M 3116 1747 
Q 3116 2381 2855 2742 
Q 2594 3103 2138 3103 
Q 1681 3103 1420 2742 
Q 1159 2381 1159 1747 
Q 1159 1113 1420 752 
Q 1681 391 2138 391 
Q 2594 391 2855 752 
Q 3116 1113 3116 1747 
z
" id="DejaVuSans-70" transform="scale(0.015625)"/>
      <path d="M 2631 2963 
Q 2534 3019 2420 3045 
Q 2306 3072 2169 3072 
Q 1681 3072 1420 2755 
Q 1159 2438 1159 1844 
L 1159 0 
L 581 0 
L 581 3500 
L 1159 3500 
L 1159 2956 
Q 1341 3275 1631 3429 
Q 1922 3584 2338 3584 
Q 2397 3584 2469 3576 
Q 2541 3569 2628 3553 
L 2631 2963 
z
" id="DejaVuSans-72" transform="scale(0.015625)"/>
      <path d="M 3597 1894 
L 3597 1613 
L 953 1613 
Q 991 1019 1311 708 
Q 1631 397 2203 397 
Q 2534 397 2845 478 
Q 3156 559 3463 722 
L 3463 178 
Q 3153 47 2828 -22 
Q 2503 -91 2169 -91 
Q 1331 -91 842 396 
Q 353 884 353 1716 
Q 353 2575 817 3079 
Q 1281 3584 2069 3584 
Q 2775 3584 3186 3129 
Q 3597 2675 3597 1894 
z
M 3022 2063 
Q 3016 2534 2758 2815 
Q 2500 3097 2075 3097 
Q 1594 3097 1305 2825 
Q 1016 2553 972 2059 
L 3022 2063 
z
" id="DejaVuSans-65" transform="scale(0.015625)"/>
      <path d="M 3122 3366 
L 3122 2828 
Q 2878 2963 2633 3030 
Q 2388 3097 2138 3097 
Q 1578 3097 1268 2742 
Q 959 2388 959 1747 
Q 959 1106 1268 751 
Q 1578 397 2138 397 
Q 2388 397 2633 464 
Q 2878 531 3122 666 
L 3122 134 
Q 2881 22 2623 -34 
Q 2366 -91 2075 -91 
Q 1284 -91 818 406 
Q 353 903 353 1747 
Q 353 2603 823 3093 
Q 1294 3584 2113 3584 
Q 2378 3584 2631 3529 
Q 2884 3475 3122 3366 
z
" id="DejaVuSans-63" transform="scale(0.015625)"/>
     </defs>
     <use xlink:href="#DejaVuSans-70"/>
     <use x="63.476562" xlink:href="#DejaVuSans-72"/>
     <use x="102.339844" xlink:href="#DejaVuSans-65"/>
     <use x="163.863281" xlink:href="#DejaVuSans-63"/>
    </g>
    <!-- 37.5% -->
    <g transform="translate(343.828078 39.381287)scale(0.12 -0.12)">
     <defs>
      <path d="M 2597 2516 
Q 3050 2419 3304 2112 
Q 3559 1806 3559 1356 
Q 3559 666 3084 287 
Q 2609 -91 1734 -91 
Q 1441 -91 1130 -33 
Q 819 25 488 141 
L 488 750 
Q 750 597 1062 519 
Q 1375 441 1716 441 
Q 2309 441 2620 675 
Q 2931 909 2931 1356 
Q 2931 1769 2642 2001 
Q 2353 2234 1838 2234 
L 1294 2234 
L 1294 2753 
L 1863 2753 
Q 2328 2753 2575 2939 
Q 2822 3125 2822 3475 
Q 2822 3834 2567 4026 
Q 2313 4219 1838 4219 
Q 1578 4219 1281 4162 
Q 984 4106 628 3988 
L 628 4550 
Q 988 4650 1302 4700 
Q 1616 4750 1894 4750 
Q 2613 4750 3031 4423 
Q 3450 4097 3450 3541 
Q 3450 3153 3228 2886 
Q 3006 2619 2597 2516 
z
" id="DejaVuSans-33" transform="scale(0.015625)"/>
      <path d="M 525 4666 
L 3525 4666 
L 3525 4397 
L 1831 0 
L 1172 0 
L 2766 4134 
L 525 4134 
L 525 4666 
z
" id="DejaVuSans-37" transform="scale(0.015625)"/>
      <path d="M 684 794 
L 1344 794 
L 1344 0 
L 684 0 
L 684 794 
z
" id="DejaVuSans-2e" transform="scale(0.015625)"/>
      <path d="M 691 4666 
L 3169 4666 
L 3169 4134 
L 1269 4134 
L 1269 2991 
Q 1406 3038 1543 3061 
Q 1681 3084 1819 3084 
Q 2600 3084 3056 2656 
Q 3513 2228 3513 1497 
Q 3513 744 3044 326 
Q 2575 -91 1722 -91 
Q 1428 -91 1123 -41 
Q 819 9 494 109 
L 494 744 
Q 775 591 1075 516 
Q 1375 441 1709 441 
Q 2250 441 2565 725 
Q 2881 1009 2881 1497 
Q 2881 1984 2565 2268 
Q 2250 2553 1709 2553 
Q 1456 2553 1204 2497 
Q 953 2441 691 2322 
L 691 4666 
z
" id="DejaVuSans-35" transform="scale(0.015625)"/>
      <path d="M 4653 2053 
Q 4381 2053 4226 1822 
Q 4072 1591 4072 1178 
Q 4072 772 4226 539 
Q 4381 306 4653 306 
Q 4919 306 5073 539 
Q 5228 772 5228 1178 
Q 5228 1588 5073 1820 
Q 4919 2053 4653 2053 
z
M 4653 2450 
Q 5147 2450 5437 2106 
Q 5728 1763 5728 1178 
Q 5728 594 5436 251 
Q 5144 -91 4653 -91 
Q 4153 -91 3862 251 
Q 3572 594 3572 1178 
Q 3572 1766 3864 2108 
Q 4156 2450 4653 2450 
z
M 1428 4353 
Q 1159 4353 1004 4120 
Q 850 3888 850 3481 
Q 850 3069 1003 2837 
Q 1156 2606 1428 2606 
Q 1700 2606 1854 2837 
Q 2009 3069 2009 3481 
Q 2009 3884 1853 4118 
Q 1697 4353 1428 4353 
z
M 4250 4750 
L 4750 4750 
L 1831 -91 
L 1331 -91 
L 4250 4750 
z
M 1428 4750 
Q 1922 4750 2215 4408 
Q 2509 4066 2509 3481 
Q 2509 2891 2217 2550 
Q 1925 2209 1428 2209 
Q 931 2209 642 2551 
Q 353 2894 353 3481 
Q 353 4063 643 4406 
Q 934 4750 1428 4750 
z
" id="DejaVuSans-25" transform="scale(0.015625)"/>
     </defs>
     <use xlink:href="#DejaVuSans-33"/>
     <use x="63.623047" xlink:href="#DejaVuSans-37"/>
     <use x="127.246094" xlink:href="#DejaVuSans-2e"/>
     <use x="159.033203" xlink:href="#DejaVuSans-35"/>
     <use x="222.65625" xlink:href="#DejaVuSans-25"/>
    </g>
   </g>
  </g>
  <g id="axes_2">
   <g id="patch_81">
    <path d="M 341.11278 273.312 
L 384.664 273.312 
L 384.664 146.041043 
L 341.11278 146.041043 
z
" style="fill:none;"/>
   </g>
   <g id="patch_82">
    <path clip-path="url(#p5cfb439632)" d="M 341.11278 273.312 
L 347.334383 273.312 
L 347.334383 270.98103 
L 341.11278 270.98103 
z
" style="fill:#006400;stroke:#006400;stroke-linejoin:miter;"/>
   </g>
   <g id="patch_83">
    <path clip-path="url(#p5cfb439632)" d="M 353.555986 273.312 
L 359.777589 273.312 
L 359.777589 270.98103 
L 353.555986 270.98103 
z
" style="fill:#006400;stroke:#006400;stroke-linejoin:miter;"/>
   </g>
   <g id="patch_84">
    <path clip-path="url(#p5cfb439632)" d="M 365.999192 273.312 
L 372.220794 273.312 
L 372.220794 270.98103 
L 365.999192 270.98103 
z
" style="fill:#006400;stroke:#006400;stroke-linejoin:miter;"/>
   </g>
   <g id="patch_85">
    <path clip-path="url(#p5cfb439632)" d="M 378.442397 273.312 
L 384.664 273.312 
L 384.664 270.98103 
L 378.442397 270.98103 
z
" style="fill:#006400;stroke:#006400;stroke-linejoin:miter;"/>
   </g>
   <g id="patch_86">
    <path clip-path="url(#p5cfb439632)" d="M 341.11278 268.65006 
L 347.334383 268.65006 
L 347.334383 266.31909 
L 341.11278 266.31909 
z
" style="fill:#006400;stroke:#006400;stroke-linejoin:miter;"/>
   </g>
   <g id="patch_87">
    <path clip-path="url(#p5cfb439632)" d="M 353.555986 268.65006 
L 359.777589 268.65006 
L 359.777589 266.31909 
L 353.555986 266.31909 
z
" style="fill:#006400;stroke:#006400;stroke-linejoin:miter;"/>
   </g>
   <g id="patch_88">
    <path clip-path="url(#p5cfb439632)" d="M 365.999192 268.65006 
L 372.220794 268.65006 
L 372.220794 266.31909 
L 365.999192 266.31909 
z
" style="fill:#006400;stroke:#006400;stroke-linejoin:miter;"/>
   </g>
   <g id="patch_89">
    <path clip-path="url(#p5cfb439632)" d="M 378.442397 268.65006 
L 384.664 268.65006 
L 384.664 266.31909 
L 378.442397 266.31909 
z
" style="fill:#006400;stroke:#006400;stroke-linejoin:miter;"/>
   </g>
   <g id="patch_90">
    <path clip-path="url(#p5cfb439632)" d="M 341.11278 263.98812 
L 347.334383 263.98812 
L 347.334383 261.657151 
L 341.11278 261.657151 
z
" style="fill:#006400;stroke:#006400;stroke-linejoin:miter;"/>
   </g>
   <g id="patch_91">
    <path clip-path="url(#p5cfb439632)" d="M 353.555986 263.98812 
L 359.777589 263.98812 
L 359.777589 261.657151 
L 353.555986 261.657151 
z
" style="fill:#006400;stroke:#006400;stroke-linejoin:miter;"/>
   </g>
   <g id="patch_92">
    <path clip-path="url(#p5cfb439632)" d="M 365.999192 263.98812 
L 372.220794 263.98812 
L 372.220794 261.657151 
L 365.999192 261.657151 
z
" style="fill:#006400;stroke:#006400;stroke-linejoin:miter;"/>
   </g>
   <g id="patch_93">
    <path clip-path="url(#p5cfb439632)" d="M 378.442397 263.98812 
L 384.664 263.98812 
L 384.664 261.657151 
L 378.442397 261.657151 
z
" style="fill:#006400;stroke:#006400;stroke-linejoin:miter;"/>
   </g>
   <g id="patch_94">
    <path clip-path="url(#p5cfb439632)" d="M 341.11278 259.326181 
L 347.334383 259.326181 
L 347.334383 256.995211 
L 341.11278 256.995211 
z
" style="fill:#006400;stroke:#006400;stroke-linejoin:miter;"/>
   </g>
   <g id="patch_95">
    <path clip-path="url(#p5cfb439632)" d="M 353.555986 259.326181 
L 359.777589 259.326181 
L 359.777589 256.995211 
L 353.555986 256.995211 
z
" style="fill:#006400;stroke:#006400;stroke-linejoin:miter;"/>
   </g>
   <g id="patch_96">
    <path clip-path="url(#p5cfb439632)" d="M 365.999192 259.326181 
L 372.220794 259.326181 
L 372.220794 256.995211 
L 365.999192 256.995211 
z
" style="fill:#006400;stroke:#006400;stroke-linejoin:miter;"/>
   </g>
   <g id="patch_97">
    <path clip-path="url(#p5cfb439632)" d="M 378.442397 259.326181 
L 384.664 259.326181 
L 384.664 256.995211 
L 378.442397 256.995211 
z
" style="fill:#006400;stroke:#006400;stroke-linejoin:miter;"/>
   </g>
   <g id="patch_98">
    <path clip-path="url(#p5cfb439632)" d="M 341.11278 254.664241 
L 347.334383 254.664241 
L 347.334383 252.333271 
L 341.11278 252.333271 
z
" style="fill:#006400;stroke:#006400;stroke-linejoin:miter;"/>
   </g>
   <g id="patch_99">
    <path clip-path="url(#p5cfb439632)" d="M 353.555986 254.664241 
L 359.777589 254.664241 
L 359.777589 252.333271 
L 353.555986 252.333271 
z
" style="fill:#006400;stroke:#006400;stroke-linejoin:miter;"/>
   </g>
   <g id="patch_100">
    <path clip-path="url(#p5cfb439632)" d="M 365.999192 254.664241 
L 372.220794 254.664241 
L 372.220794 252.333271 
L 365.999192 252.333271 
z
" style="fill:#006400;stroke:#006400;stroke-linejoin:miter;"/>
   </g>
   <g id="patch_101">
    <path clip-path="url(#p5cfb439632)" d="M 378.442397 254.664241 
L 384.664 254.664241 
L 384.664 252.333271 
L 378.442397 252.333271 
z
" style="fill:#006400;stroke:#006400;stroke-linejoin:miter;"/>
   </g>
   <g id="patch_102">
    <path clip-path="url(#p5cfb439632)" d="M 341.11278 250.002301 
L 347.334383 250.002301 
L 347.334383 247.671331 
L 341.11278 247.671331 
z
" style="fill:#006400;stroke:#006400;stroke-linejoin:miter;"/>
   </g>
   <g id="patch_103">
    <path clip-path="url(#p5cfb439632)" d="M 353.555986 250.002301 
L 359.777589 250.002301 
L 359.777589 247.671331 
L 353.555986 247.671331 
z
" style="fill:#006400;stroke:#006400;stroke-linejoin:miter;"/>
   </g>
   <g id="patch_104">
    <path clip-path="url(#p5cfb439632)" d="M 365.999192 250.002301 
L 372.220794 250.002301 
L 372.220794 247.671331 
L 365.999192 247.671331 
z
" style="fill:#006400;stroke:#006400;stroke-linejoin:miter;"/>
   </g>
   <g id="patch_105">
    <path clip-path="url(#p5cfb439632)" d="M 378.442397 250.002301 
L 384.664 250.002301 
L 384.664 247.671331 
L 378.442397 247.671331 
z
" style="fill:#006400;stroke:#006400;stroke-linejoin:miter;"/>
   </g>
   <g id="patch_106">
    <path clip-path="url(#p5cfb439632)" d="M 341.11278 245.340361 
L 347.334383 245.340361 
L 347.334383 243.009391 
L 341.11278 243.009391 
z
" style="fill:#006400;stroke:#006400;stroke-linejoin:miter;"/>
   </g>
   <g id="patch_107">
    <path clip-path="url(#p5cfb439632)" d="M 353.555986 245.340361 
L 359.777589 245.340361 
L 359.777589 243.009391 
L 353.555986 243.009391 
z
" style="fill:#006400;stroke:#006400;stroke-linejoin:miter;"/>
   </g>
   <g id="patch_108">
    <path clip-path="url(#p5cfb439632)" d="M 365.999192 245.340361 
L 372.220794 245.340361 
L 372.220794 243.009391 
L 365.999192 243.009391 
z
" style="fill:#006400;stroke:#006400;stroke-linejoin:miter;"/>
   </g>
   <g id="patch_109">
    <path clip-path="url(#p5cfb439632)" d="M 378.442397 245.340361 
L 384.664 245.340361 
L 384.664 243.009391 
L 378.442397 243.009391 
z
" style="fill:#006400;stroke:#006400;stroke-linejoin:miter;"/>
   </g>
   <g id="patch_110">
    <path clip-path="url(#p5cfb439632)" d="M 341.11278 240.678421 
L 347.334383 240.678421 
L 347.334383 238.347452 
L 341.11278 238.347452 
z
" style="fill:#006400;stroke:#006400;stroke-linejoin:miter;"/>
   </g>
   <g id="patch_111">
    <path clip-path="url(#p5cfb439632)" d="M 353.555986 240.678421 
L 359.777589 240.678421 
L 359.777589 238.347452 
L 353.555986 238.347452 
z
" style="fill:#006400;stroke:#006400;stroke-linejoin:miter;"/>
   </g>
   <g id="patch_112">
    <path clip-path="url(#p5cfb439632)" d="M 365.999192 240.678421 
L 372.220794 240.678421 
L 372.220794 238.347452 
L 365.999192 238.347452 
z
" style="fill:#ffa500;stroke:#ffa500;stroke-linejoin:miter;"/>
   </g>
   <g id="patch_113">
    <path clip-path="url(#p5cfb439632)" d="M 378.442397 240.678421 
L 384.664 240.678421 
L 384.664 238.347452 
L 378.442397 238.347452 
z
" style="fill:#ffa500;stroke:#ffa500;stroke-linejoin:miter;"/>
   </g>
   <g id="patch_114">
    <path clip-path="url(#p5cfb439632)" d="M 341.11278 236.016482 
L 347.334383 236.016482 
L 347.334383 233.685512 
L 341.11278 233.685512 
z
" style="fill:#ffa500;stroke:#ffa500;stroke-linejoin:miter;"/>
   </g>
   <g id="patch_115">
    <path clip-path="url(#p5cfb439632)" d="M 353.555986 236.016482 
L 359.777589 236.016482 
L 359.777589 233.685512 
L 353.555986 233.685512 
z
" style="fill:#ffa500;stroke:#ffa500;stroke-linejoin:miter;"/>
   </g>
   <g id="patch_116">
    <path clip-path="url(#p5cfb439632)" d="M 365.999192 236.016482 
L 372.220794 236.016482 
L 372.220794 233.685512 
L 365.999192 233.685512 
z
" style="fill:#ffa500;stroke:#ffa500;stroke-linejoin:miter;"/>
   </g>
   <g id="patch_117">
    <path clip-path="url(#p5cfb439632)" d="M 378.442397 236.016482 
L 384.664 236.016482 
L 384.664 233.685512 
L 378.442397 233.685512 
z
" style="fill:#ffa500;stroke:#ffa500;stroke-linejoin:miter;"/>
   </g>
   <g id="patch_118">
    <path clip-path="url(#p5cfb439632)" d="M 341.11278 231.354542 
L 347.334383 231.354542 
L 347.334383 229.023572 
L 341.11278 229.023572 
z
" style="fill:#ffa500;stroke:#ffa500;stroke-linejoin:miter;"/>
   </g>
   <g id="patch_119">
    <path clip-path="url(#p5cfb439632)" d="M 353.555986 231.354542 
L 359.777589 231.354542 
L 359.777589 229.023572 
L 353.555986 229.023572 
z
" style="fill:#ffa500;stroke:#ffa500;stroke-linejoin:miter;"/>
   </g>
   <g id="patch_120">
    <path clip-path="url(#p5cfb439632)" d="M 365.999192 231.354542 
L 372.220794 231.354542 
L 372.220794 229.023572 
L 365.999192 229.023572 
z
" style="fill:#ffa500;stroke:#ffa500;stroke-linejoin:miter;"/>
   </g>
   <g id="patch_121">
    <path clip-path="url(#p5cfb439632)" d="M 378.442397 231.354542 
L 384.664 231.354542 
L 384.664 229.023572 
L 378.442397 229.023572 
z
" style="fill:#ffa500;stroke:#ffa500;stroke-linejoin:miter;"/>
   </g>
   <g id="patch_122">
    <path clip-path="url(#p5cfb439632)" d="M 341.11278 226.692602 
L 347.334383 226.692602 
L 347.334383 224.361632 
L 341.11278 224.361632 
z
" style="fill:#ffa500;stroke:#ffa500;stroke-linejoin:miter;"/>
   </g>
   <g id="patch_123">
    <path clip-path="url(#p5cfb439632)" d="M 353.555986 226.692602 
L 359.777589 226.692602 
L 359.777589 224.361632 
L 353.555986 224.361632 
z
" style="fill:#ffa500;stroke:#ffa500;stroke-linejoin:miter;"/>
   </g>
   <g id="patch_124">
    <path clip-path="url(#p5cfb439632)" d="M 365.999192 226.692602 
L 372.220794 226.692602 
L 372.220794 224.361632 
L 365.999192 224.361632 
z
" style="fill:#ffa500;stroke:#ffa500;stroke-linejoin:miter;"/>
   </g>
   <g id="patch_125">
    <path clip-path="url(#p5cfb439632)" d="M 378.442397 226.692602 
L 384.664 226.692602 
L 384.664 224.361632 
L 378.442397 224.361632 
z
" style="fill:#ffa500;stroke:#ffa500;stroke-linejoin:miter;"/>
   </g>
   <g id="patch_126">
    <path clip-path="url(#p5cfb439632)" d="M 341.11278 222.030662 
L 347.334383 222.030662 
L 347.334383 219.699692 
L 341.11278 219.699692 
z
" style="fill:#ffa500;stroke:#ffa500;stroke-linejoin:miter;"/>
   </g>
   <g id="patch_127">
    <path clip-path="url(#p5cfb439632)" d="M 353.555986 222.030662 
L 359.777589 222.030662 
L 359.777589 219.699692 
L 353.555986 219.699692 
z
" style="fill:#ffa500;stroke:#ffa500;stroke-linejoin:miter;"/>
   </g>
   <g id="patch_128">
    <path clip-path="url(#p5cfb439632)" d="M 365.999192 222.030662 
L 372.220794 222.030662 
L 372.220794 219.699692 
L 365.999192 219.699692 
z
" style="fill:#ffa500;stroke:#ffa500;stroke-linejoin:miter;"/>
   </g>
   <g id="patch_129">
    <path clip-path="url(#p5cfb439632)" d="M 378.442397 222.030662 
L 384.664 222.030662 
L 384.664 219.699692 
L 378.442397 219.699692 
z
" style="fill:#ffa500;stroke:#ffa500;stroke-linejoin:miter;"/>
   </g>
   <g id="patch_130">
    <path clip-path="url(#p5cfb439632)" d="M 341.11278 217.368722 
L 347.334383 217.368722 
L 347.334383 215.037753 
L 341.11278 215.037753 
z
" style="fill:#ffa500;stroke:#ffa500;stroke-linejoin:miter;"/>
   </g>
   <g id="patch_131">
    <path clip-path="url(#p5cfb439632)" d="M 353.555986 217.368722 
L 359.777589 217.368722 
L 359.777589 215.037753 
L 353.555986 215.037753 
z
" style="fill:#ffa500;stroke:#ffa500;stroke-linejoin:miter;"/>
   </g>
   <g id="patch_132">
    <path clip-path="url(#p5cfb439632)" d="M 365.999192 217.368722 
L 372.220794 217.368722 
L 372.220794 215.037753 
L 365.999192 215.037753 
z
" style="fill:#ffa500;stroke:#ffa500;stroke-linejoin:miter;"/>
   </g>
   <g id="patch_133">
    <path clip-path="url(#p5cfb439632)" d="M 378.442397 217.368722 
L 384.664 217.368722 
L 384.664 215.037753 
L 378.442397 215.037753 
z
" style="fill:#ffa500;stroke:#ffa500;stroke-linejoin:miter;"/>
   </g>
   <g id="patch_134">
    <path clip-path="url(#p5cfb439632)" d="M 341.11278 212.706783 
L 347.334383 212.706783 
L 347.334383 210.375813 
L 341.11278 210.375813 
z
" style="fill:#ffa500;stroke:#ffa500;stroke-linejoin:miter;"/>
   </g>
   <g id="patch_135">
    <path clip-path="url(#p5cfb439632)" d="M 353.555986 212.706783 
L 359.777589 212.706783 
L 359.777589 210.375813 
L 353.555986 210.375813 
z
" style="fill:#ffa500;stroke:#ffa500;stroke-linejoin:miter;"/>
   </g>
   <g id="patch_136">
    <path clip-path="url(#p5cfb439632)" d="M 365.999192 212.706783 
L 372.220794 212.706783 
L 372.220794 210.375813 
L 365.999192 210.375813 
z
" style="fill:#ffa500;stroke:#ffa500;stroke-linejoin:miter;"/>
   </g>
   <g id="patch_137">
    <path clip-path="url(#p5cfb439632)" d="M 378.442397 212.706783 
L 384.664 212.706783 
L 384.664 210.375813 
L 378.442397 210.375813 
z
" style="fill:#ffa500;stroke:#ffa500;stroke-linejoin:miter;"/>
   </g>
   <g id="patch_138">
    <path clip-path="url(#p5cfb439632)" d="M 341.11278 208.044843 
L 347.334383 208.044843 
L 347.334383 205.713873 
L 341.11278 205.713873 
z
" style="fill:#ffa500;stroke:#ffa500;stroke-linejoin:miter;"/>
   </g>
   <g id="patch_139">
    <path clip-path="url(#p5cfb439632)" d="M 353.555986 208.044843 
L 359.777589 208.044843 
L 359.777589 205.713873 
L 353.555986 205.713873 
z
" style="fill:#ffa500;stroke:#ffa500;stroke-linejoin:miter;"/>
   </g>
   <g id="patch_140">
    <path clip-path="url(#p5cfb439632)" d="M 365.999192 208.044843 
L 372.220794 208.044843 
L 372.220794 205.713873 
L 365.999192 205.713873 
z
" style="fill:#ffa500;stroke:#ffa500;stroke-linejoin:miter;"/>
   </g>
   <g id="patch_141">
    <path clip-path="url(#p5cfb439632)" d="M 378.442397 208.044843 
L 384.664 208.044843 
L 384.664 205.713873 
L 378.442397 205.713873 
z
" style="fill:#ffa500;stroke:#ffa500;stroke-linejoin:miter;"/>
   </g>
   <g id="patch_142">
    <path clip-path="url(#p5cfb439632)" d="M 341.11278 203.382903 
L 347.334383 203.382903 
L 347.334383 201.051933 
L 341.11278 201.051933 
z
" style="fill:#ffa500;stroke:#ffa500;stroke-linejoin:miter;"/>
   </g>
   <g id="patch_143">
    <path clip-path="url(#p5cfb439632)" d="M 353.555986 203.382903 
L 359.777589 203.382903 
L 359.777589 201.051933 
L 353.555986 201.051933 
z
" style="fill:#ffa500;stroke:#ffa500;stroke-linejoin:miter;"/>
   </g>
   <g id="patch_144">
    <path clip-path="url(#p5cfb439632)" d="M 365.999192 203.382903 
L 372.220794 203.382903 
L 372.220794 201.051933 
L 365.999192 201.051933 
z
" style="fill:#ffa500;stroke:#ffa500;stroke-linejoin:miter;"/>
   </g>
   <g id="patch_145">
    <path clip-path="url(#p5cfb439632)" d="M 378.442397 203.382903 
L 384.664 203.382903 
L 384.664 201.051933 
L 378.442397 201.051933 
z
" style="fill:#ffa500;stroke:#ffa500;stroke-linejoin:miter;"/>
   </g>
   <g id="patch_146">
    <path clip-path="url(#p5cfb439632)" d="M 341.11278 198.720963 
L 347.334383 198.720963 
L 347.334383 196.389993 
L 341.11278 196.389993 
z
" style="fill:#ffa500;stroke:#ffa500;stroke-linejoin:miter;"/>
   </g>
   <g id="patch_147">
    <path clip-path="url(#p5cfb439632)" d="M 353.555986 198.720963 
L 359.777589 198.720963 
L 359.777589 196.389993 
L 353.555986 196.389993 
z
" style="fill:#ffa500;stroke:#ffa500;stroke-linejoin:miter;"/>
   </g>
   <g id="patch_148">
    <path clip-path="url(#p5cfb439632)" d="M 365.999192 198.720963 
L 372.220794 198.720963 
L 372.220794 196.389993 
L 365.999192 196.389993 
z
" style="fill:#ffa500;stroke:#ffa500;stroke-linejoin:miter;"/>
   </g>
   <g id="patch_149">
    <path clip-path="url(#p5cfb439632)" d="M 378.442397 198.720963 
L 384.664 198.720963 
L 384.664 196.389993 
L 378.442397 196.389993 
z
" style="fill:#ffa500;stroke:#ffa500;stroke-linejoin:miter;"/>
   </g>
   <g id="patch_150">
    <path clip-path="url(#p5cfb439632)" d="M 341.11278 194.059023 
L 347.334383 194.059023 
L 347.334383 191.728054 
L 341.11278 191.728054 
z
" style="fill:#ffa500;stroke:#ffa500;stroke-linejoin:miter;"/>
   </g>
   <g id="patch_151">
    <path clip-path="url(#p5cfb439632)" d="M 353.555986 194.059023 
L 359.777589 194.059023 
L 359.777589 191.728054 
L 353.555986 191.728054 
z
" style="fill:#ffa500;stroke:#ffa500;stroke-linejoin:miter;"/>
   </g>
   <g id="patch_152">
    <path clip-path="url(#p5cfb439632)" d="M 365.999192 194.059023 
L 372.220794 194.059023 
L 372.220794 191.728054 
L 365.999192 191.728054 
z
" style="fill:#ffa500;stroke:#ffa500;stroke-linejoin:miter;"/>
   </g>
   <g id="patch_153">
    <path clip-path="url(#p5cfb439632)" d="M 378.442397 194.059023 
L 384.664 194.059023 
L 384.664 191.728054 
L 378.442397 191.728054 
z
" style="fill:#ffa500;stroke:#ffa500;stroke-linejoin:miter;"/>
   </g>
   <g id="patch_154">
    <path clip-path="url(#p5cfb439632)" d="M 341.11278 189.397084 
L 347.334383 189.397084 
L 347.334383 187.066114 
L 341.11278 187.066114 
z
" style="fill:#ffa500;stroke:#ffa500;stroke-linejoin:miter;"/>
   </g>
   <g id="patch_155">
    <path clip-path="url(#p5cfb439632)" d="M 353.555986 189.397084 
L 359.777589 189.397084 
L 359.777589 187.066114 
L 353.555986 187.066114 
z
" style="fill:#ffa500;stroke:#ffa500;stroke-linejoin:miter;"/>
   </g>
   <g id="patch_156">
    <path clip-path="url(#p5cfb439632)" d="M 365.999192 189.397084 
L 372.220794 189.397084 
L 372.220794 187.066114 
L 365.999192 187.066114 
z
" style="fill:#ffa500;stroke:#ffa500;stroke-linejoin:miter;"/>
   </g>
   <g id="patch_157">
    <path clip-path="url(#p5cfb439632)" d="M 378.442397 189.397084 
L 384.664 189.397084 
L 384.664 187.066114 
L 378.442397 187.066114 
z
" style="fill:#ffa500;stroke:#ffa500;stroke-linejoin:miter;"/>
   </g>
   <g id="patch_158">
    <path clip-path="url(#p5cfb439632)" d="M 341.11278 184.735144 
L 347.334383 184.735144 
L 347.334383 182.404174 
L 341.11278 182.404174 
z
" style="fill:#ffa500;stroke:#ffa500;stroke-linejoin:miter;"/>
   </g>
   <g id="patch_159">
    <path clip-path="url(#p5cfb439632)" d="M 353.555986 184.735144 
L 359.777589 184.735144 
L 359.777589 182.404174 
L 353.555986 182.404174 
z
" style="fill:#ffa500;stroke:#ffa500;stroke-linejoin:miter;"/>
   </g>
   <g id="matplotlib.axis_3"/>
   <g id="matplotlib.axis_4"/>
   <g id="text_2">
    <!-- recall -->
    <g transform="translate(346.555265 164.784955)scale(0.12 -0.12)">
     <defs>
      <path d="M 2194 1759 
Q 1497 1759 1228 1600 
Q 959 1441 959 1056 
Q 959 750 1161 570 
Q 1363 391 1709 391 
Q 2188 391 2477 730 
Q 2766 1069 2766 1631 
L 2766 1759 
L 2194 1759 
z
M 3341 1997 
L 3341 0 
L 2766 0 
L 2766 531 
Q 2569 213 2275 61 
Q 1981 -91 1556 -91 
Q 1019 -91 701 211 
Q 384 513 384 1019 
Q 384 1609 779 1909 
Q 1175 2209 1959 2209 
L 2766 2209 
L 2766 2266 
Q 2766 2663 2505 2880 
Q 2244 3097 1772 3097 
Q 1472 3097 1187 3025 
Q 903 2953 641 2809 
L 641 3341 
Q 956 3463 1253 3523 
Q 1550 3584 1831 3584 
Q 2591 3584 2966 3190 
Q 3341 2797 3341 1997 
z
" id="DejaVuSans-61" transform="scale(0.015625)"/>
      <path d="M 603 4863 
L 1178 4863 
L 1178 0 
L 603 0 
L 603 4863 
z
" id="DejaVuSans-6c" transform="scale(0.015625)"/>
     </defs>
     <use xlink:href="#DejaVuSans-72"/>
     <use x="38.863281" xlink:href="#DejaVuSans-65"/>
     <use x="100.386719" xlink:href="#DejaVuSans-63"/>
     <use x="155.367188" xlink:href="#DejaVuSans-61"/>
     <use x="216.646484" xlink:href="#DejaVuSans-6c"/>
     <use x="244.429688" xlink:href="#DejaVuSans-6c"/>
    </g>
    <!-- 37.5% -->
    <g transform="translate(343.828078 178.22233)scale(0.12 -0.12)">
     <use xlink:href="#DejaVuSans-33"/>
     <use x="63.623047" xlink:href="#DejaVuSans-37"/>
     <use x="127.246094" xlink:href="#DejaVuSans-2e"/>
     <use x="159.033203" xlink:href="#DejaVuSans-35"/>
     <use x="222.65625" xlink:href="#DejaVuSans-25"/>
    </g>
   </g>
  </g>
  <g id="axes_3">
   <g id="patch_160">
    <path d="M 27.544 273.312 
L 332.402537 273.312 
L 332.402537 7.2 
L 27.544 7.2 
z
" style="fill:none;"/>
   </g>
   <g id="patch_161">
    <path clip-path="url(#pa1f4d71c49)" d="M 27.544 273.312 
L 47.469395 273.312 
L 47.469395 259.452 
L 27.544 259.452 
z
" style="fill:#ffa500;stroke:#ffa500;stroke-linejoin:miter;"/>
   </g>
   <g id="patch_162">
    <path clip-path="url(#pa1f4d71c49)" d="M 53.447013 273.312 
L 73.372407 273.312 
L 73.372407 259.452 
L 53.447013 259.452 
z
" style="fill:#ffa500;stroke:#ffa500;stroke-linejoin:miter;"/>
   </g>
   <g id="patch_163">
    <path clip-path="url(#pa1f4d71c49)" d="M 79.350026 273.312 
L 99.27542 273.312 
L 99.27542 259.452 
L 79.350026 259.452 
z
" style="fill:#ffa500;stroke:#ffa500;stroke-linejoin:miter;"/>
   </g>
   <g id="patch_164">
    <path clip-path="url(#pa1f4d71c49)" d="M 105.253039 273.312 
L 125.178433 273.312 
L 125.178433 259.452 
L 105.253039 259.452 
z
" style="fill:#ffa500;stroke:#ffa500;stroke-linejoin:miter;"/>
   </g>
   <g id="patch_165">
    <path clip-path="url(#pa1f4d71c49)" d="M 131.156052 273.312 
L 151.081446 273.312 
L 151.081446 259.452 
L 131.156052 259.452 
z
" style="fill:#ffa500;stroke:#ffa500;stroke-linejoin:miter;"/>
   </g>
   <g id="patch_166">
    <path clip-path="url(#pa1f4d71c49)" d="M 157.059065 273.312 
L 176.984459 273.312 
L 176.984459 259.452 
L 157.059065 259.452 
z
" style="fill:#ffa500;stroke:#ffa500;stroke-linejoin:miter;"/>
   </g>
   <g id="patch_167">
    <path clip-path="url(#pa1f4d71c49)" d="M 182.962077 273.312 
L 202.887472 273.312 
L 202.887472 259.452 
L 182.962077 259.452 
z
" style="fill:#d3d3d3;stroke:#d3d3d3;stroke-linejoin:miter;"/>
   </g>
   <g id="patch_168">
    <path clip-path="url(#pa1f4d71c49)" d="M 208.86509 273.312 
L 228.790485 273.312 
L 228.790485 259.452 
L 208.86509 259.452 
z
" style="fill:#d3d3d3;stroke:#d3d3d3;stroke-linejoin:miter;"/>
   </g>
   <g id="patch_169">
    <path clip-path="url(#pa1f4d71c49)" d="M 234.768103 273.312 
L 254.693498 273.312 
L 254.693498 259.452 
L 234.768103 259.452 
z
" style="fill:#d3d3d3;stroke:#d3d3d3;stroke-linejoin:miter;"/>
   </g>
   <g id="patch_170">
    <path clip-path="url(#pa1f4d71c49)" d="M 260.671116 273.312 
L 280.596511 273.312 
L 280.596511 259.452 
L 260.671116 259.452 
z
" style="fill:#d3d3d3;stroke:#d3d3d3;stroke-linejoin:miter;"/>
   </g>
   <g id="patch_171">
    <path clip-path="url(#pa1f4d71c49)" d="M 286.574129 273.312 
L 306.499524 273.312 
L 306.499524 259.452 
L 286.574129 259.452 
z
" style="fill:#d3d3d3;stroke:#d3d3d3;stroke-linejoin:miter;"/>
   </g>
   <g id="patch_172">
    <path clip-path="url(#pa1f4d71c49)" d="M 312.477142 273.312 
L 332.402537 273.312 
L 332.402537 259.452 
L 312.477142 259.452 
z
" style="fill:#d3d3d3;stroke:#d3d3d3;stroke-linejoin:miter;"/>
   </g>
   <g id="patch_173">
    <path clip-path="url(#pa1f4d71c49)" d="M 27.544 255.294 
L 47.469395 255.294 
L 47.469395 241.434 
L 27.544 241.434 
z
" style="fill:#ffa500;stroke:#ffa500;stroke-linejoin:miter;"/>
   </g>
   <g id="patch_174">
    <path clip-path="url(#pa1f4d71c49)" d="M 53.447013 255.294 
L 73.372407 255.294 
L 73.372407 241.434 
L 53.447013 241.434 
z
" style="fill:#ffa500;stroke:#ffa500;stroke-linejoin:miter;"/>
   </g>
   <g id="patch_175">
    <path clip-path="url(#pa1f4d71c49)" d="M 79.350026 255.294 
L 99.27542 255.294 
L 99.27542 241.434 
L 79.350026 241.434 
z
" style="fill:#ffa500;stroke:#ffa500;stroke-linejoin:miter;"/>
   </g>
   <g id="patch_176">
    <path clip-path="url(#pa1f4d71c49)" d="M 105.253039 255.294 
L 125.178433 255.294 
L 125.178433 241.434 
L 105.253039 241.434 
z
" style="fill:#ffa500;stroke:#ffa500;stroke-linejoin:miter;"/>
   </g>
   <g id="patch_177">
    <path clip-path="url(#pa1f4d71c49)" d="M 131.156052 255.294 
L 151.081446 255.294 
L 151.081446 241.434 
L 131.156052 241.434 
z
" style="fill:#ffa500;stroke:#ffa500;stroke-linejoin:miter;"/>
   </g>
   <g id="patch_178">
    <path clip-path="url(#pa1f4d71c49)" d="M 157.059065 255.294 
L 176.984459 255.294 
L 176.984459 241.434 
L 157.059065 241.434 
z
" style="fill:#ffa500;stroke:#ffa500;stroke-linejoin:miter;"/>
   </g>
   <g id="patch_179">
    <path clip-path="url(#pa1f4d71c49)" d="M 182.962077 255.294 
L 202.887472 255.294 
L 202.887472 241.434 
L 182.962077 241.434 
z
" style="fill:#d3d3d3;stroke:#d3d3d3;stroke-linejoin:miter;"/>
   </g>
   <g id="patch_180">
    <path clip-path="url(#pa1f4d71c49)" d="M 208.86509 255.294 
L 228.790485 255.294 
L 228.790485 241.434 
L 208.86509 241.434 
z
" style="fill:#d3d3d3;stroke:#d3d3d3;stroke-linejoin:miter;"/>
   </g>
   <g id="patch_181">
    <path clip-path="url(#pa1f4d71c49)" d="M 234.768103 255.294 
L 254.693498 255.294 
L 254.693498 241.434 
L 234.768103 241.434 
z
" style="fill:#d3d3d3;stroke:#d3d3d3;stroke-linejoin:miter;"/>
   </g>
   <g id="patch_182">
    <path clip-path="url(#pa1f4d71c49)" d="M 260.671116 255.294 
L 280.596511 255.294 
L 280.596511 241.434 
L 260.671116 241.434 
z
" style="fill:#d3d3d3;stroke:#d3d3d3;stroke-linejoin:miter;"/>
   </g>
   <g id="patch_183">
    <path clip-path="url(#pa1f4d71c49)" d="M 286.574129 255.294 
L 306.499524 255.294 
L 306.499524 241.434 
L 286.574129 241.434 
z
" style="fill:#d3d3d3;stroke:#d3d3d3;stroke-linejoin:miter;"/>
   </g>
   <g id="patch_184">
    <path clip-path="url(#pa1f4d71c49)" d="M 312.477142 255.294 
L 332.402537 255.294 
L 332.402537 241.434 
L 312.477142 241.434 
z
" style="fill:#d3d3d3;stroke:#d3d3d3;stroke-linejoin:miter;"/>
   </g>
   <g id="patch_185">
    <path clip-path="url(#pa1f4d71c49)" d="M 27.544 237.276 
L 47.469395 237.276 
L 47.469395 223.416 
L 27.544 223.416 
z
" style="fill:#ffa500;stroke:#ffa500;stroke-linejoin:miter;"/>
   </g>
   <g id="patch_186">
    <path clip-path="url(#pa1f4d71c49)" d="M 53.447013 237.276 
L 73.372407 237.276 
L 73.372407 223.416 
L 53.447013 223.416 
z
" style="fill:#ffa500;stroke:#ffa500;stroke-linejoin:miter;"/>
   </g>
   <g id="patch_187">
    <path clip-path="url(#pa1f4d71c49)" d="M 79.350026 237.276 
L 99.27542 237.276 
L 99.27542 223.416 
L 79.350026 223.416 
z
" style="fill:#ffa500;stroke:#ffa500;stroke-linejoin:miter;"/>
   </g>
   <g id="patch_188">
    <path clip-path="url(#pa1f4d71c49)" d="M 105.253039 237.276 
L 125.178433 237.276 
L 125.178433 223.416 
L 105.253039 223.416 
z
" style="fill:#ffa500;stroke:#ffa500;stroke-linejoin:miter;"/>
   </g>
   <g id="patch_189">
    <path clip-path="url(#pa1f4d71c49)" d="M 131.156052 237.276 
L 151.081446 237.276 
L 151.081446 223.416 
L 131.156052 223.416 
z
" style="fill:#ffa500;stroke:#ffa500;stroke-linejoin:miter;"/>
   </g>
   <g id="patch_190">
    <path clip-path="url(#pa1f4d71c49)" d="M 157.059065 237.276 
L 176.984459 237.276 
L 176.984459 223.416 
L 157.059065 223.416 
z
" style="fill:#ffa500;stroke:#ffa500;stroke-linejoin:miter;"/>
   </g>
   <g id="patch_191">
    <path clip-path="url(#pa1f4d71c49)" d="M 182.962077 237.276 
L 202.887472 237.276 
L 202.887472 223.416 
L 182.962077 223.416 
z
" style="fill:#d3d3d3;stroke:#d3d3d3;stroke-linejoin:miter;"/>
   </g>
   <g id="patch_192">
    <path clip-path="url(#pa1f4d71c49)" d="M 208.86509 237.276 
L 228.790485 237.276 
L 228.790485 223.416 
L 208.86509 223.416 
z
" style="fill:#d3d3d3;stroke:#d3d3d3;stroke-linejoin:miter;"/>
   </g>
   <g id="patch_193">
    <path clip-path="url(#pa1f4d71c49)" d="M 234.768103 237.276 
L 254.693498 237.276 
L 254.693498 223.416 
L 234.768103 223.416 
z
" style="fill:#d3d3d3;stroke:#d3d3d3;stroke-linejoin:miter;"/>
   </g>
   <g id="patch_194">
    <path clip-path="url(#pa1f4d71c49)" d="M 260.671116 237.276 
L 280.596511 237.276 
L 280.596511 223.416 
L 260.671116 223.416 
z
" style="fill:#d3d3d3;stroke:#d3d3d3;stroke-linejoin:miter;"/>
   </g>
   <g id="patch_195">
    <path clip-path="url(#pa1f4d71c49)" d="M 286.574129 237.276 
L 306.499524 237.276 
L 306.499524 223.416 
L 286.574129 223.416 
z
" style="fill:#d3d3d3;stroke:#d3d3d3;stroke-linejoin:miter;"/>
   </g>
   <g id="patch_196">
    <path clip-path="url(#pa1f4d71c49)" d="M 312.477142 237.276 
L 332.402537 237.276 
L 332.402537 223.416 
L 312.477142 223.416 
z
" style="fill:#d3d3d3;stroke:#d3d3d3;stroke-linejoin:miter;"/>
   </g>
   <g id="patch_197">
    <path clip-path="url(#pa1f4d71c49)" d="M 27.544 219.258 
L 47.469395 219.258 
L 47.469395 205.398 
L 27.544 205.398 
z
" style="fill:#ffa500;stroke:#ffa500;stroke-linejoin:miter;"/>
   </g>
   <g id="patch_198">
    <path clip-path="url(#pa1f4d71c49)" d="M 53.447013 219.258 
L 73.372407 219.258 
L 73.372407 205.398 
L 53.447013 205.398 
z
" style="fill:#ffa500;stroke:#ffa500;stroke-linejoin:miter;"/>
   </g>
   <g id="patch_199">
    <path clip-path="url(#pa1f4d71c49)" d="M 79.350026 219.258 
L 99.27542 219.258 
L 99.27542 205.398 
L 79.350026 205.398 
z
" style="fill:#ffa500;stroke:#ffa500;stroke-linejoin:miter;"/>
   </g>
   <g id="patch_200">
    <path clip-path="url(#pa1f4d71c49)" d="M 105.253039 219.258 
L 125.178433 219.258 
L 125.178433 205.398 
L 105.253039 205.398 
z
" style="fill:#ffa500;stroke:#ffa500;stroke-linejoin:miter;"/>
   </g>
   <g id="patch_201">
    <path clip-path="url(#pa1f4d71c49)" d="M 131.156052 219.258 
L 151.081446 219.258 
L 151.081446 205.398 
L 131.156052 205.398 
z
" style="fill:#ffa500;stroke:#ffa500;stroke-linejoin:miter;"/>
   </g>
   <g id="patch_202">
    <path clip-path="url(#pa1f4d71c49)" d="M 157.059065 219.258 
L 176.984459 219.258 
L 176.984459 205.398 
L 157.059065 205.398 
z
" style="fill:#d3d3d3;stroke:#d3d3d3;stroke-linejoin:miter;"/>
   </g>
   <g id="patch_203">
    <path clip-path="url(#pa1f4d71c49)" d="M 182.962077 219.258 
L 202.887472 219.258 
L 202.887472 205.398 
L 182.962077 205.398 
z
" style="fill:#d3d3d3;stroke:#d3d3d3;stroke-linejoin:miter;"/>
   </g>
   <g id="patch_204">
    <path clip-path="url(#pa1f4d71c49)" d="M 208.86509 219.258 
L 228.790485 219.258 
L 228.790485 205.398 
L 208.86509 205.398 
z
" style="fill:#d3d3d3;stroke:#d3d3d3;stroke-linejoin:miter;"/>
   </g>
   <g id="patch_205">
    <path clip-path="url(#pa1f4d71c49)" d="M 234.768103 219.258 
L 254.693498 219.258 
L 254.693498 205.398 
L 234.768103 205.398 
z
" style="fill:#d3d3d3;stroke:#d3d3d3;stroke-linejoin:miter;"/>
   </g>
   <g id="patch_206">
    <path clip-path="url(#pa1f4d71c49)" d="M 260.671116 219.258 
L 280.596511 219.258 
L 280.596511 205.398 
L 260.671116 205.398 
z
" style="fill:#d3d3d3;stroke:#d3d3d3;stroke-linejoin:miter;"/>
   </g>
   <g id="patch_207">
    <path clip-path="url(#pa1f4d71c49)" d="M 286.574129 219.258 
L 306.499524 219.258 
L 306.499524 205.398 
L 286.574129 205.398 
z
" style="fill:#d3d3d3;stroke:#d3d3d3;stroke-linejoin:miter;"/>
   </g>
   <g id="patch_208">
    <path clip-path="url(#pa1f4d71c49)" d="M 312.477142 219.258 
L 332.402537 219.258 
L 332.402537 205.398 
L 312.477142 205.398 
z
" style="fill:#d3d3d3;stroke:#d3d3d3;stroke-linejoin:miter;"/>
   </g>
   <g id="patch_209">
    <path clip-path="url(#pa1f4d71c49)" d="M 27.544 201.24 
L 47.469395 201.24 
L 47.469395 187.38 
L 27.544 187.38 
z
" style="fill:#ffa500;stroke:#ffa500;stroke-linejoin:miter;"/>
   </g>
   <g id="patch_210">
    <path clip-path="url(#pa1f4d71c49)" d="M 53.447013 201.24 
L 73.372407 201.24 
L 73.372407 187.38 
L 53.447013 187.38 
z
" style="fill:#006400;stroke:#006400;stroke-linejoin:miter;"/>
   </g>
   <g id="patch_211">
    <path clip-path="url(#pa1f4d71c49)" d="M 79.350026 201.24 
L 99.27542 201.24 
L 99.27542 187.38 
L 79.350026 187.38 
z
" style="fill:#006400;stroke:#006400;stroke-linejoin:miter;"/>
   </g>
   <g id="patch_212">
    <path clip-path="url(#pa1f4d71c49)" d="M 105.253039 201.24 
L 125.178433 201.24 
L 125.178433 187.38 
L 105.253039 187.38 
z
" style="fill:#006400;stroke:#006400;stroke-linejoin:miter;"/>
   </g>
   <g id="patch_213">
    <path clip-path="url(#pa1f4d71c49)" d="M 131.156052 201.24 
L 151.081446 201.24 
L 151.081446 187.38 
L 131.156052 187.38 
z
" style="fill:#006400;stroke:#006400;stroke-linejoin:miter;"/>
   </g>
   <g id="patch_214">
    <path clip-path="url(#pa1f4d71c49)" d="M 157.059065 201.24 
L 176.984459 201.24 
L 176.984459 187.38 
L 157.059065 187.38 
z
" style="fill:#ff0000;stroke:#ff0000;stroke-linejoin:miter;"/>
   </g>
   <g id="patch_215">
    <path clip-path="url(#pa1f4d71c49)" d="M 182.962077 201.24 
L 202.887472 201.24 
L 202.887472 187.38 
L 182.962077 187.38 
z
" style="fill:#ff0000;stroke:#ff0000;stroke-linejoin:miter;"/>
   </g>
   <g id="patch_216">
    <path clip-path="url(#pa1f4d71c49)" d="M 208.86509 201.24 
L 228.790485 201.24 
L 228.790485 187.38 
L 208.86509 187.38 
z
" style="fill:#ff0000;stroke:#ff0000;stroke-linejoin:miter;"/>
   </g>
   <g id="patch_217">
    <path clip-path="url(#pa1f4d71c49)" d="M 234.768103 201.24 
L 254.693498 201.24 
L 254.693498 187.38 
L 234.768103 187.38 
z
" style="fill:#ff0000;stroke:#ff0000;stroke-linejoin:miter;"/>
   </g>
   <g id="patch_218">
    <path clip-path="url(#pa1f4d71c49)" d="M 260.671116 201.24 
L 280.596511 201.24 
L 280.596511 187.38 
L 260.671116 187.38 
z
" style="fill:#ff0000;stroke:#ff0000;stroke-linejoin:miter;"/>
   </g>
   <g id="patch_219">
    <path clip-path="url(#pa1f4d71c49)" d="M 286.574129 201.24 
L 306.499524 201.24 
L 306.499524 187.38 
L 286.574129 187.38 
z
" style="fill:#ff0000;stroke:#ff0000;stroke-linejoin:miter;"/>
   </g>
   <g id="patch_220">
    <path clip-path="url(#pa1f4d71c49)" d="M 312.477142 201.24 
L 332.402537 201.24 
L 332.402537 187.38 
L 312.477142 187.38 
z
" style="fill:#d3d3d3;stroke:#d3d3d3;stroke-linejoin:miter;"/>
   </g>
   <g id="patch_221">
    <path clip-path="url(#pa1f4d71c49)" d="M 27.544 183.222 
L 47.469395 183.222 
L 47.469395 169.362 
L 27.544 169.362 
z
" style="fill:#ffa500;stroke:#ffa500;stroke-linejoin:miter;"/>
   </g>
   <g id="patch_222">
    <path clip-path="url(#pa1f4d71c49)" d="M 53.447013 183.222 
L 73.372407 183.222 
L 73.372407 169.362 
L 53.447013 169.362 
z
" style="fill:#ffa500;stroke:#ffa500;stroke-linejoin:miter;"/>
   </g>
   <g id="patch_223">
    <path clip-path="url(#pa1f4d71c49)" d="M 79.350026 183.222 
L 99.27542 183.222 
L 99.27542 169.362 
L 79.350026 169.362 
z
" style="fill:#006400;stroke:#006400;stroke-linejoin:miter;"/>
   </g>
   <g id="patch_224">
    <path clip-path="url(#pa1f4d71c49)" d="M 105.253039 183.222 
L 125.178433 183.222 
L 125.178433 169.362 
L 105.253039 169.362 
z
" style="fill:#006400;stroke:#006400;stroke-linejoin:miter;"/>
   </g>
   <g id="patch_225">
    <path clip-path="url(#pa1f4d71c49)" d="M 131.156052 183.222 
L 151.081446 183.222 
L 151.081446 169.362 
L 131.156052 169.362 
z
" style="fill:#006400;stroke:#006400;stroke-linejoin:miter;"/>
   </g>
   <g id="patch_226">
    <path clip-path="url(#pa1f4d71c49)" d="M 157.059065 183.222 
L 176.984459 183.222 
L 176.984459 169.362 
L 157.059065 169.362 
z
" style="fill:#ff0000;stroke:#ff0000;stroke-linejoin:miter;"/>
   </g>
   <g id="patch_227">
    <path clip-path="url(#pa1f4d71c49)" d="M 182.962077 183.222 
L 202.887472 183.222 
L 202.887472 169.362 
L 182.962077 169.362 
z
" style="fill:#ff0000;stroke:#ff0000;stroke-linejoin:miter;"/>
   </g>
   <g id="patch_228">
    <path clip-path="url(#pa1f4d71c49)" d="M 208.86509 183.222 
L 228.790485 183.222 
L 228.790485 169.362 
L 208.86509 169.362 
z
" style="fill:#ff0000;stroke:#ff0000;stroke-linejoin:miter;"/>
   </g>
   <g id="patch_229">
    <path clip-path="url(#pa1f4d71c49)" d="M 234.768103 183.222 
L 254.693498 183.222 
L 254.693498 169.362 
L 234.768103 169.362 
z
" style="fill:#ff0000;stroke:#ff0000;stroke-linejoin:miter;"/>
   </g>
   <g id="patch_230">
    <path clip-path="url(#pa1f4d71c49)" d="M 260.671116 183.222 
L 280.596511 183.222 
L 280.596511 169.362 
L 260.671116 169.362 
z
" style="fill:#ff0000;stroke:#ff0000;stroke-linejoin:miter;"/>
   </g>
   <g id="patch_231">
    <path clip-path="url(#pa1f4d71c49)" d="M 286.574129 183.222 
L 306.499524 183.222 
L 306.499524 169.362 
L 286.574129 169.362 
z
" style="fill:#ff0000;stroke:#ff0000;stroke-linejoin:miter;"/>
   </g>
   <g id="patch_232">
    <path clip-path="url(#pa1f4d71c49)" d="M 312.477142 183.222 
L 332.402537 183.222 
L 332.402537 169.362 
L 312.477142 169.362 
z
" style="fill:#d3d3d3;stroke:#d3d3d3;stroke-linejoin:miter;"/>
   </g>
   <g id="patch_233">
    <path clip-path="url(#pa1f4d71c49)" d="M 27.544 165.204 
L 47.469395 165.204 
L 47.469395 151.344 
L 27.544 151.344 
z
" style="fill:#ffa500;stroke:#ffa500;stroke-linejoin:miter;"/>
   </g>
   <g id="patch_234">
    <path clip-path="url(#pa1f4d71c49)" d="M 53.447013 165.204 
L 73.372407 165.204 
L 73.372407 151.344 
L 53.447013 151.344 
z
" style="fill:#006400;stroke:#006400;stroke-linejoin:miter;"/>
   </g>
   <g id="patch_235">
    <path clip-path="url(#pa1f4d71c49)" d="M 79.350026 165.204 
L 99.27542 165.204 
L 99.27542 151.344 
L 79.350026 151.344 
z
" style="fill:#006400;stroke:#006400;stroke-linejoin:miter;"/>
   </g>
   <g id="patch_236">
    <path clip-path="url(#pa1f4d71c49)" d="M 105.253039 165.204 
L 125.178433 165.204 
L 125.178433 151.344 
L 105.253039 151.344 
z
" style="fill:#006400;stroke:#006400;stroke-linejoin:miter;"/>
   </g>
   <g id="patch_237">
    <path clip-path="url(#pa1f4d71c49)" d="M 131.156052 165.204 
L 151.081446 165.204 
L 151.081446 151.344 
L 131.156052 151.344 
z
" style="fill:#006400;stroke:#006400;stroke-linejoin:miter;"/>
   </g>
   <g id="patch_238">
    <path clip-path="url(#pa1f4d71c49)" d="M 157.059065 165.204 
L 176.984459 165.204 
L 176.984459 151.344 
L 157.059065 151.344 
z
" style="fill:#ff0000;stroke:#ff0000;stroke-linejoin:miter;"/>
   </g>
   <g id="patch_239">
    <path clip-path="url(#pa1f4d71c49)" d="M 182.962077 165.204 
L 202.887472 165.204 
L 202.887472 151.344 
L 182.962077 151.344 
z
" style="fill:#ff0000;stroke:#ff0000;stroke-linejoin:miter;"/>
   </g>
   <g id="patch_240">
    <path clip-path="url(#pa1f4d71c49)" d="M 208.86509 165.204 
L 228.790485 165.204 
L 228.790485 151.344 
L 208.86509 151.344 
z
" style="fill:#ff0000;stroke:#ff0000;stroke-linejoin:miter;"/>
   </g>
   <g id="patch_241">
    <path clip-path="url(#pa1f4d71c49)" d="M 234.768103 165.204 
L 254.693498 165.204 
L 254.693498 151.344 
L 234.768103 151.344 
z
" style="fill:#ff0000;stroke:#ff0000;stroke-linejoin:miter;"/>
   </g>
   <g id="patch_242">
    <path clip-path="url(#pa1f4d71c49)" d="M 260.671116 165.204 
L 280.596511 165.204 
L 280.596511 151.344 
L 260.671116 151.344 
z
" style="fill:#ff0000;stroke:#ff0000;stroke-linejoin:miter;"/>
   </g>
   <g id="patch_243">
    <path clip-path="url(#pa1f4d71c49)" d="M 286.574129 165.204 
L 306.499524 165.204 
L 306.499524 151.344 
L 286.574129 151.344 
z
" style="fill:#ff0000;stroke:#ff0000;stroke-linejoin:miter;"/>
   </g>
   <g id="patch_244">
    <path clip-path="url(#pa1f4d71c49)" d="M 312.477142 165.204 
L 332.402537 165.204 
L 332.402537 151.344 
L 312.477142 151.344 
z
" style="fill:#d3d3d3;stroke:#d3d3d3;stroke-linejoin:miter;"/>
   </g>
   <g id="patch_245">
    <path clip-path="url(#pa1f4d71c49)" d="M 27.544 147.186 
L 47.469395 147.186 
L 47.469395 133.326 
L 27.544 133.326 
z
" style="fill:#ffa500;stroke:#ffa500;stroke-linejoin:miter;"/>
   </g>
   <g id="patch_246">
    <path clip-path="url(#pa1f4d71c49)" d="M 53.447013 147.186 
L 73.372407 147.186 
L 73.372407 133.326 
L 53.447013 133.326 
z
" style="fill:#006400;stroke:#006400;stroke-linejoin:miter;"/>
   </g>
   <g id="patch_247">
    <path clip-path="url(#pa1f4d71c49)" d="M 79.350026 147.186 
L 99.27542 147.186 
L 99.27542 133.326 
L 79.350026 133.326 
z
" style="fill:#006400;stroke:#006400;stroke-linejoin:miter;"/>
   </g>
   <g id="patch_248">
    <path clip-path="url(#pa1f4d71c49)" d="M 105.253039 147.186 
L 125.178433 147.186 
L 125.178433 133.326 
L 105.253039 133.326 
z
" style="fill:#006400;stroke:#006400;stroke-linejoin:miter;"/>
   </g>
   <g id="patch_249">
    <path clip-path="url(#pa1f4d71c49)" d="M 131.156052 147.186 
L 151.081446 147.186 
L 151.081446 133.326 
L 131.156052 133.326 
z
" style="fill:#006400;stroke:#006400;stroke-linejoin:miter;"/>
   </g>
   <g id="patch_250">
    <path clip-path="url(#pa1f4d71c49)" d="M 157.059065 147.186 
L 176.984459 147.186 
L 176.984459 133.326 
L 157.059065 133.326 
z
" style="fill:#ff0000;stroke:#ff0000;stroke-linejoin:miter;"/>
   </g>
   <g id="patch_251">
    <path clip-path="url(#pa1f4d71c49)" d="M 182.962077 147.186 
L 202.887472 147.186 
L 202.887472 133.326 
L 182.962077 133.326 
z
" style="fill:#ff0000;stroke:#ff0000;stroke-linejoin:miter;"/>
   </g>
   <g id="patch_252">
    <path clip-path="url(#pa1f4d71c49)" d="M 208.86509 147.186 
L 228.790485 147.186 
L 228.790485 133.326 
L 208.86509 133.326 
z
" style="fill:#ff0000;stroke:#ff0000;stroke-linejoin:miter;"/>
   </g>
   <g id="patch_253">
    <path clip-path="url(#pa1f4d71c49)" d="M 234.768103 147.186 
L 254.693498 147.186 
L 254.693498 133.326 
L 234.768103 133.326 
z
" style="fill:#ff0000;stroke:#ff0000;stroke-linejoin:miter;"/>
   </g>
   <g id="patch_254">
    <path clip-path="url(#pa1f4d71c49)" d="M 260.671116 147.186 
L 280.596511 147.186 
L 280.596511 133.326 
L 260.671116 133.326 
z
" style="fill:#ff0000;stroke:#ff0000;stroke-linejoin:miter;"/>
   </g>
   <g id="patch_255">
    <path clip-path="url(#pa1f4d71c49)" d="M 286.574129 147.186 
L 306.499524 147.186 
L 306.499524 133.326 
L 286.574129 133.326 
z
" style="fill:#d3d3d3;stroke:#d3d3d3;stroke-linejoin:miter;"/>
   </g>
   <g id="patch_256">
    <path clip-path="url(#pa1f4d71c49)" d="M 312.477142 147.186 
L 332.402537 147.186 
L 332.402537 133.326 
L 312.477142 133.326 
z
" style="fill:#d3d3d3;stroke:#d3d3d3;stroke-linejoin:miter;"/>
   </g>
   <g id="patch_257">
    <path clip-path="url(#pa1f4d71c49)" d="M 27.544 129.168 
L 47.469395 129.168 
L 47.469395 115.308 
L 27.544 115.308 
z
" style="fill:#ffa500;stroke:#ffa500;stroke-linejoin:miter;"/>
   </g>
   <g id="patch_258">
    <path clip-path="url(#pa1f4d71c49)" d="M 53.447013 129.168 
L 73.372407 129.168 
L 73.372407 115.308 
L 53.447013 115.308 
z
" style="fill:#006400;stroke:#006400;stroke-linejoin:miter;"/>
   </g>
   <g id="patch_259">
    <path clip-path="url(#pa1f4d71c49)" d="M 79.350026 129.168 
L 99.27542 129.168 
L 99.27542 115.308 
L 79.350026 115.308 
z
" style="fill:#006400;stroke:#006400;stroke-linejoin:miter;"/>
   </g>
   <g id="patch_260">
    <path clip-path="url(#pa1f4d71c49)" d="M 105.253039 129.168 
L 125.178433 129.168 
L 125.178433 115.308 
L 105.253039 115.308 
z
" style="fill:#006400;stroke:#006400;stroke-linejoin:miter;"/>
   </g>
   <g id="patch_261">
    <path clip-path="url(#pa1f4d71c49)" d="M 131.156052 129.168 
L 151.081446 129.168 
L 151.081446 115.308 
L 131.156052 115.308 
z
" style="fill:#006400;stroke:#006400;stroke-linejoin:miter;"/>
   </g>
   <g id="patch_262">
    <path clip-path="url(#pa1f4d71c49)" d="M 157.059065 129.168 
L 176.984459 129.168 
L 176.984459 115.308 
L 157.059065 115.308 
z
" style="fill:#ff0000;stroke:#ff0000;stroke-linejoin:miter;"/>
   </g>
   <g id="patch_263">
    <path clip-path="url(#pa1f4d71c49)" d="M 182.962077 129.168 
L 202.887472 129.168 
L 202.887472 115.308 
L 182.962077 115.308 
z
" style="fill:#ff0000;stroke:#ff0000;stroke-linejoin:miter;"/>
   </g>
   <g id="patch_264">
    <path clip-path="url(#pa1f4d71c49)" d="M 208.86509 129.168 
L 228.790485 129.168 
L 228.790485 115.308 
L 208.86509 115.308 
z
" style="fill:#ff0000;stroke:#ff0000;stroke-linejoin:miter;"/>
   </g>
   <g id="patch_265">
    <path clip-path="url(#pa1f4d71c49)" d="M 234.768103 129.168 
L 254.693498 129.168 
L 254.693498 115.308 
L 234.768103 115.308 
z
" style="fill:#ff0000;stroke:#ff0000;stroke-linejoin:miter;"/>
   </g>
   <g id="patch_266">
    <path clip-path="url(#pa1f4d71c49)" d="M 260.671116 129.168 
L 280.596511 129.168 
L 280.596511 115.308 
L 260.671116 115.308 
z
" style="fill:#ff0000;stroke:#ff0000;stroke-linejoin:miter;"/>
   </g>
   <g id="patch_267">
    <path clip-path="url(#pa1f4d71c49)" d="M 286.574129 129.168 
L 306.499524 129.168 
L 306.499524 115.308 
L 286.574129 115.308 
z
" style="fill:#d3d3d3;stroke:#d3d3d3;stroke-linejoin:miter;"/>
   </g>
   <g id="patch_268">
    <path clip-path="url(#pa1f4d71c49)" d="M 312.477142 129.168 
L 332.402537 129.168 
L 332.402537 115.308 
L 312.477142 115.308 
z
" style="fill:#d3d3d3;stroke:#d3d3d3;stroke-linejoin:miter;"/>
   </g>
   <g id="patch_269">
    <path clip-path="url(#pa1f4d71c49)" d="M 27.544 111.15 
L 47.469395 111.15 
L 47.469395 97.29 
L 27.544 97.29 
z
" style="fill:#ffa500;stroke:#ffa500;stroke-linejoin:miter;"/>
   </g>
   <g id="patch_270">
    <path clip-path="url(#pa1f4d71c49)" d="M 53.447013 111.15 
L 73.372407 111.15 
L 73.372407 97.29 
L 53.447013 97.29 
z
" style="fill:#ffa500;stroke:#ffa500;stroke-linejoin:miter;"/>
   </g>
   <g id="patch_271">
    <path clip-path="url(#pa1f4d71c49)" d="M 79.350026 111.15 
L 99.27542 111.15 
L 99.27542 97.29 
L 79.350026 97.29 
z
" style="fill:#006400;stroke:#006400;stroke-linejoin:miter;"/>
   </g>
   <g id="patch_272">
    <path clip-path="url(#pa1f4d71c49)" d="M 105.253039 111.15 
L 125.178433 111.15 
L 125.178433 97.29 
L 105.253039 97.29 
z
" style="fill:#006400;stroke:#006400;stroke-linejoin:miter;"/>
   </g>
   <g id="patch_273">
    <path clip-path="url(#pa1f4d71c49)" d="M 131.156052 111.15 
L 151.081446 111.15 
L 151.081446 97.29 
L 131.156052 97.29 
z
" style="fill:#006400;stroke:#006400;stroke-linejoin:miter;"/>
   </g>
   <g id="patch_274">
    <path clip-path="url(#pa1f4d71c49)" d="M 157.059065 111.15 
L 176.984459 111.15 
L 176.984459 97.29 
L 157.059065 97.29 
z
" style="fill:#ff0000;stroke:#ff0000;stroke-linejoin:miter;"/>
   </g>
   <g id="patch_275">
    <path clip-path="url(#pa1f4d71c49)" d="M 182.962077 111.15 
L 202.887472 111.15 
L 202.887472 97.29 
L 182.962077 97.29 
z
" style="fill:#ff0000;stroke:#ff0000;stroke-linejoin:miter;"/>
   </g>
   <g id="patch_276">
    <path clip-path="url(#pa1f4d71c49)" d="M 208.86509 111.15 
L 228.790485 111.15 
L 228.790485 97.29 
L 208.86509 97.29 
z
" style="fill:#ff0000;stroke:#ff0000;stroke-linejoin:miter;"/>
   </g>
   <g id="patch_277">
    <path clip-path="url(#pa1f4d71c49)" d="M 234.768103 111.15 
L 254.693498 111.15 
L 254.693498 97.29 
L 234.768103 97.29 
z
" style="fill:#ff0000;stroke:#ff0000;stroke-linejoin:miter;"/>
   </g>
   <g id="patch_278">
    <path clip-path="url(#pa1f4d71c49)" d="M 260.671116 111.15 
L 280.596511 111.15 
L 280.596511 97.29 
L 260.671116 97.29 
z
" style="fill:#ff0000;stroke:#ff0000;stroke-linejoin:miter;"/>
   </g>
   <g id="patch_279">
    <path clip-path="url(#pa1f4d71c49)" d="M 286.574129 111.15 
L 306.499524 111.15 
L 306.499524 97.29 
L 286.574129 97.29 
z
" style="fill:#d3d3d3;stroke:#d3d3d3;stroke-linejoin:miter;"/>
   </g>
   <g id="patch_280">
    <path clip-path="url(#pa1f4d71c49)" d="M 312.477142 111.15 
L 332.402537 111.15 
L 332.402537 97.29 
L 312.477142 97.29 
z
" style="fill:#d3d3d3;stroke:#d3d3d3;stroke-linejoin:miter;"/>
   </g>
   <g id="patch_281">
    <path clip-path="url(#pa1f4d71c49)" d="M 27.544 93.132 
L 47.469395 93.132 
L 47.469395 79.272 
L 27.544 79.272 
z
" style="fill:#ffa500;stroke:#ffa500;stroke-linejoin:miter;"/>
   </g>
   <g id="patch_282">
    <path clip-path="url(#pa1f4d71c49)" d="M 53.447013 93.132 
L 73.372407 93.132 
L 73.372407 79.272 
L 53.447013 79.272 
z
" style="fill:#ffa500;stroke:#ffa500;stroke-linejoin:miter;"/>
   </g>
   <g id="patch_283">
    <path clip-path="url(#pa1f4d71c49)" d="M 79.350026 93.132 
L 99.27542 93.132 
L 99.27542 79.272 
L 79.350026 79.272 
z
" style="fill:#006400;stroke:#006400;stroke-linejoin:miter;"/>
   </g>
   <g id="patch_284">
    <path clip-path="url(#pa1f4d71c49)" d="M 105.253039 93.132 
L 125.178433 93.132 
L 125.178433 79.272 
L 105.253039 79.272 
z
" style="fill:#006400;stroke:#006400;stroke-linejoin:miter;"/>
   </g>
   <g id="patch_285">
    <path clip-path="url(#pa1f4d71c49)" d="M 131.156052 93.132 
L 151.081446 93.132 
L 151.081446 79.272 
L 131.156052 79.272 
z
" style="fill:#006400;stroke:#006400;stroke-linejoin:miter;"/>
   </g>
   <g id="patch_286">
    <path clip-path="url(#pa1f4d71c49)" d="M 157.059065 93.132 
L 176.984459 93.132 
L 176.984459 79.272 
L 157.059065 79.272 
z
" style="fill:#ff0000;stroke:#ff0000;stroke-linejoin:miter;"/>
   </g>
   <g id="patch_287">
    <path clip-path="url(#pa1f4d71c49)" d="M 182.962077 93.132 
L 202.887472 93.132 
L 202.887472 79.272 
L 182.962077 79.272 
z
" style="fill:#ff0000;stroke:#ff0000;stroke-linejoin:miter;"/>
   </g>
   <g id="patch_288">
    <path clip-path="url(#pa1f4d71c49)" d="M 208.86509 93.132 
L 228.790485 93.132 
L 228.790485 79.272 
L 208.86509 79.272 
z
" style="fill:#ff0000;stroke:#ff0000;stroke-linejoin:miter;"/>
   </g>
   <g id="patch_289">
    <path clip-path="url(#pa1f4d71c49)" d="M 234.768103 93.132 
L 254.693498 93.132 
L 254.693498 79.272 
L 234.768103 79.272 
z
" style="fill:#ff0000;stroke:#ff0000;stroke-linejoin:miter;"/>
   </g>
   <g id="patch_290">
    <path clip-path="url(#pa1f4d71c49)" d="M 260.671116 93.132 
L 280.596511 93.132 
L 280.596511 79.272 
L 260.671116 79.272 
z
" style="fill:#ff0000;stroke:#ff0000;stroke-linejoin:miter;"/>
   </g>
   <g id="patch_291">
    <path clip-path="url(#pa1f4d71c49)" d="M 286.574129 93.132 
L 306.499524 93.132 
L 306.499524 79.272 
L 286.574129 79.272 
z
" style="fill:#d3d3d3;stroke:#d3d3d3;stroke-linejoin:miter;"/>
   </g>
   <g id="patch_292">
    <path clip-path="url(#pa1f4d71c49)" d="M 312.477142 93.132 
L 332.402537 93.132 
L 332.402537 79.272 
L 312.477142 79.272 
z
" style="fill:#d3d3d3;stroke:#d3d3d3;stroke-linejoin:miter;"/>
   </g>
   <g id="patch_293">
    <path clip-path="url(#pa1f4d71c49)" d="M 27.544 75.114 
L 47.469395 75.114 
L 47.469395 61.254 
L 27.544 61.254 
z
" style="fill:#ffa500;stroke:#ffa500;stroke-linejoin:miter;"/>
   </g>
   <g id="patch_294">
    <path clip-path="url(#pa1f4d71c49)" d="M 53.447013 75.114 
L 73.372407 75.114 
L 73.372407 61.254 
L 53.447013 61.254 
z
" style="fill:#006400;stroke:#006400;stroke-linejoin:miter;"/>
   </g>
   <g id="patch_295">
    <path clip-path="url(#pa1f4d71c49)" d="M 79.350026 75.114 
L 99.27542 75.114 
L 99.27542 61.254 
L 79.350026 61.254 
z
" style="fill:#006400;stroke:#006400;stroke-linejoin:miter;"/>
   </g>
   <g id="patch_296">
    <path clip-path="url(#pa1f4d71c49)" d="M 105.253039 75.114 
L 125.178433 75.114 
L 125.178433 61.254 
L 105.253039 61.254 
z
" style="fill:#006400;stroke:#006400;stroke-linejoin:miter;"/>
   </g>
   <g id="patch_297">
    <path clip-path="url(#pa1f4d71c49)" d="M 131.156052 75.114 
L 151.081446 75.114 
L 151.081446 61.254 
L 131.156052 61.254 
z
" style="fill:#006400;stroke:#006400;stroke-linejoin:miter;"/>
   </g>
   <g id="patch_298">
    <path clip-path="url(#pa1f4d71c49)" d="M 157.059065 75.114 
L 176.984459 75.114 
L 176.984459 61.254 
L 157.059065 61.254 
z
" style="fill:#ff0000;stroke:#ff0000;stroke-linejoin:miter;"/>
   </g>
   <g id="patch_299">
    <path clip-path="url(#pa1f4d71c49)" d="M 182.962077 75.114 
L 202.887472 75.114 
L 202.887472 61.254 
L 182.962077 61.254 
z
" style="fill:#ff0000;stroke:#ff0000;stroke-linejoin:miter;"/>
   </g>
   <g id="patch_300">
    <path clip-path="url(#pa1f4d71c49)" d="M 208.86509 75.114 
L 228.790485 75.114 
L 228.790485 61.254 
L 208.86509 61.254 
z
" style="fill:#ff0000;stroke:#ff0000;stroke-linejoin:miter;"/>
   </g>
   <g id="patch_301">
    <path clip-path="url(#pa1f4d71c49)" d="M 234.768103 75.114 
L 254.693498 75.114 
L 254.693498 61.254 
L 234.768103 61.254 
z
" style="fill:#ff0000;stroke:#ff0000;stroke-linejoin:miter;"/>
   </g>
   <g id="patch_302">
    <path clip-path="url(#pa1f4d71c49)" d="M 260.671116 75.114 
L 280.596511 75.114 
L 280.596511 61.254 
L 260.671116 61.254 
z
" style="fill:#ff0000;stroke:#ff0000;stroke-linejoin:miter;"/>
   </g>
   <g id="patch_303">
    <path clip-path="url(#pa1f4d71c49)" d="M 286.574129 75.114 
L 306.499524 75.114 
L 306.499524 61.254 
L 286.574129 61.254 
z
" style="fill:#d3d3d3;stroke:#d3d3d3;stroke-linejoin:miter;"/>
   </g>
   <g id="patch_304">
    <path clip-path="url(#pa1f4d71c49)" d="M 312.477142 75.114 
L 332.402537 75.114 
L 332.402537 61.254 
L 312.477142 61.254 
z
" style="fill:#d3d3d3;stroke:#d3d3d3;stroke-linejoin:miter;"/>
   </g>
   <g id="patch_305">
    <path clip-path="url(#pa1f4d71c49)" d="M 27.544 57.096 
L 47.469395 57.096 
L 47.469395 43.236 
L 27.544 43.236 
z
" style="fill:#ffa500;stroke:#ffa500;stroke-linejoin:miter;"/>
   </g>
   <g id="patch_306">
    <path clip-path="url(#pa1f4d71c49)" d="M 53.447013 57.096 
L 73.372407 57.096 
L 73.372407 43.236 
L 53.447013 43.236 
z
" style="fill:#ffa500;stroke:#ffa500;stroke-linejoin:miter;"/>
   </g>
   <g id="patch_307">
    <path clip-path="url(#pa1f4d71c49)" d="M 79.350026 57.096 
L 99.27542 57.096 
L 99.27542 43.236 
L 79.350026 43.236 
z
" style="fill:#ffa500;stroke:#ffa500;stroke-linejoin:miter;"/>
   </g>
   <g id="patch_308">
    <path clip-path="url(#pa1f4d71c49)" d="M 105.253039 57.096 
L 125.178433 57.096 
L 125.178433 43.236 
L 105.253039 43.236 
z
" style="fill:#ffa500;stroke:#ffa500;stroke-linejoin:miter;"/>
   </g>
   <g id="patch_309">
    <path clip-path="url(#pa1f4d71c49)" d="M 131.156052 57.096 
L 151.081446 57.096 
L 151.081446 43.236 
L 131.156052 43.236 
z
" style="fill:#006400;stroke:#006400;stroke-linejoin:miter;"/>
   </g>
   <g id="patch_310">
    <path clip-path="url(#pa1f4d71c49)" d="M 157.059065 57.096 
L 176.984459 57.096 
L 176.984459 43.236 
L 157.059065 43.236 
z
" style="fill:#ff0000;stroke:#ff0000;stroke-linejoin:miter;"/>
   </g>
   <g id="patch_311">
    <path clip-path="url(#pa1f4d71c49)" d="M 182.962077 57.096 
L 202.887472 57.096 
L 202.887472 43.236 
L 182.962077 43.236 
z
" style="fill:#ff0000;stroke:#ff0000;stroke-linejoin:miter;"/>
   </g>
   <g id="patch_312">
    <path clip-path="url(#pa1f4d71c49)" d="M 208.86509 57.096 
L 228.790485 57.096 
L 228.790485 43.236 
L 208.86509 43.236 
z
" style="fill:#ff0000;stroke:#ff0000;stroke-linejoin:miter;"/>
   </g>
   <g id="patch_313">
    <path clip-path="url(#pa1f4d71c49)" d="M 234.768103 57.096 
L 254.693498 57.096 
L 254.693498 43.236 
L 234.768103 43.236 
z
" style="fill:#ff0000;stroke:#ff0000;stroke-linejoin:miter;"/>
   </g>
   <g id="patch_314">
    <path clip-path="url(#pa1f4d71c49)" d="M 260.671116 57.096 
L 280.596511 57.096 
L 280.596511 43.236 
L 260.671116 43.236 
z
" style="fill:#ff0000;stroke:#ff0000;stroke-linejoin:miter;"/>
   </g>
   <g id="patch_315">
    <path clip-path="url(#pa1f4d71c49)" d="M 286.574129 57.096 
L 306.499524 57.096 
L 306.499524 43.236 
L 286.574129 43.236 
z
" style="fill:#d3d3d3;stroke:#d3d3d3;stroke-linejoin:miter;"/>
   </g>
   <g id="patch_316">
    <path clip-path="url(#pa1f4d71c49)" d="M 312.477142 57.096 
L 332.402537 57.096 
L 332.402537 43.236 
L 312.477142 43.236 
z
" style="fill:#d3d3d3;stroke:#d3d3d3;stroke-linejoin:miter;"/>
   </g>
   <g id="patch_317">
    <path clip-path="url(#pa1f4d71c49)" d="M 27.544 39.078 
L 47.469395 39.078 
L 47.469395 25.218 
L 27.544 25.218 
z
" style="fill:#ffa500;stroke:#ffa500;stroke-linejoin:miter;"/>
   </g>
   <g id="patch_318">
    <path clip-path="url(#pa1f4d71c49)" d="M 53.447013 39.078 
L 73.372407 39.078 
L 73.372407 25.218 
L 53.447013 25.218 
z
" style="fill:#ffa500;stroke:#ffa500;stroke-linejoin:miter;"/>
   </g>
   <g id="patch_319">
    <path clip-path="url(#pa1f4d71c49)" d="M 79.350026 39.078 
L 99.27542 39.078 
L 99.27542 25.218 
L 79.350026 25.218 
z
" style="fill:#ffa500;stroke:#ffa500;stroke-linejoin:miter;"/>
   </g>
   <g id="patch_320">
    <path clip-path="url(#pa1f4d71c49)" d="M 105.253039 39.078 
L 125.178433 39.078 
L 125.178433 25.218 
L 105.253039 25.218 
z
" style="fill:#ffa500;stroke:#ffa500;stroke-linejoin:miter;"/>
   </g>
   <g id="patch_321">
    <path clip-path="url(#pa1f4d71c49)" d="M 131.156052 39.078 
L 151.081446 39.078 
L 151.081446 25.218 
L 131.156052 25.218 
z
" style="fill:#ffa500;stroke:#ffa500;stroke-linejoin:miter;"/>
   </g>
   <g id="patch_322">
    <path clip-path="url(#pa1f4d71c49)" d="M 157.059065 39.078 
L 176.984459 39.078 
L 176.984459 25.218 
L 157.059065 25.218 
z
" style="fill:#d3d3d3;stroke:#d3d3d3;stroke-linejoin:miter;"/>
   </g>
   <g id="patch_323">
    <path clip-path="url(#pa1f4d71c49)" d="M 182.962077 39.078 
L 202.887472 39.078 
L 202.887472 25.218 
L 182.962077 25.218 
z
" style="fill:#d3d3d3;stroke:#d3d3d3;stroke-linejoin:miter;"/>
   </g>
   <g id="patch_324">
    <path clip-path="url(#pa1f4d71c49)" d="M 208.86509 39.078 
L 228.790485 39.078 
L 228.790485 25.218 
L 208.86509 25.218 
z
" style="fill:#d3d3d3;stroke:#d3d3d3;stroke-linejoin:miter;"/>
   </g>
   <g id="patch_325">
    <path clip-path="url(#pa1f4d71c49)" d="M 234.768103 39.078 
L 254.693498 39.078 
L 254.693498 25.218 
L 234.768103 25.218 
z
" style="fill:#d3d3d3;stroke:#d3d3d3;stroke-linejoin:miter;"/>
   </g>
   <g id="patch_326">
    <path clip-path="url(#pa1f4d71c49)" d="M 260.671116 39.078 
L 280.596511 39.078 
L 280.596511 25.218 
L 260.671116 25.218 
z
" style="fill:#d3d3d3;stroke:#d3d3d3;stroke-linejoin:miter;"/>
   </g>
   <g id="patch_327">
    <path clip-path="url(#pa1f4d71c49)" d="M 286.574129 39.078 
L 306.499524 39.078 
L 306.499524 25.218 
L 286.574129 25.218 
z
" style="fill:#d3d3d3;stroke:#d3d3d3;stroke-linejoin:miter;"/>
   </g>
   <g id="patch_328">
    <path clip-path="url(#pa1f4d71c49)" d="M 312.477142 39.078 
L 332.402537 39.078 
L 332.402537 25.218 
L 312.477142 25.218 
z
" style="fill:#d3d3d3;stroke:#d3d3d3;stroke-linejoin:miter;"/>
   </g>
   <g id="patch_329">
    <path clip-path="url(#pa1f4d71c49)" d="M 27.544 21.06 
L 47.469395 21.06 
L 47.469395 7.2 
L 27.544 7.2 
z
" style="fill:#ffa500;stroke:#ffa500;stroke-linejoin:miter;"/>
   </g>
   <g id="patch_330">
    <path clip-path="url(#pa1f4d71c49)" d="M 53.447013 21.06 
L 73.372407 21.06 
L 73.372407 7.2 
L 53.447013 7.2 
z
" style="fill:#ffa500;stroke:#ffa500;stroke-linejoin:miter;"/>
   </g>
   <g id="patch_331">
    <path clip-path="url(#pa1f4d71c49)" d="M 79.350026 21.06 
L 99.27542 21.06 
L 99.27542 7.2 
L 79.350026 7.2 
z
" style="fill:#ffa500;stroke:#ffa500;stroke-linejoin:miter;"/>
   </g>
   <g id="patch_332">
    <path clip-path="url(#pa1f4d71c49)" d="M 105.253039 21.06 
L 125.178433 21.06 
L 125.178433 7.2 
L 105.253039 7.2 
z
" style="fill:#ffa500;stroke:#ffa500;stroke-linejoin:miter;"/>
   </g>
   <g id="patch_333">
    <path clip-path="url(#pa1f4d71c49)" d="M 131.156052 21.06 
L 151.081446 21.06 
L 151.081446 7.2 
L 131.156052 7.2 
z
" style="fill:#ffa500;stroke:#ffa500;stroke-linejoin:miter;"/>
   </g>
   <g id="patch_334">
    <path clip-path="url(#pa1f4d71c49)" d="M 157.059065 21.06 
L 176.984459 21.06 
L 176.984459 7.2 
L 157.059065 7.2 
z
" style="fill:#d3d3d3;stroke:#d3d3d3;stroke-linejoin:miter;"/>
   </g>
   <g id="patch_335">
    <path clip-path="url(#pa1f4d71c49)" d="M 182.962077 21.06 
L 202.887472 21.06 
L 202.887472 7.2 
L 182.962077 7.2 
z
" style="fill:#d3d3d3;stroke:#d3d3d3;stroke-linejoin:miter;"/>
   </g>
   <g id="patch_336">
    <path clip-path="url(#pa1f4d71c49)" d="M 208.86509 21.06 
L 228.790485 21.06 
L 228.790485 7.2 
L 208.86509 7.2 
z
" style="fill:#d3d3d3;stroke:#d3d3d3;stroke-linejoin:miter;"/>
   </g>
   <g id="patch_337">
    <path clip-path="url(#pa1f4d71c49)" d="M 234.768103 21.06 
L 254.693498 21.06 
L 254.693498 7.2 
L 234.768103 7.2 
z
" style="fill:#d3d3d3;stroke:#d3d3d3;stroke-linejoin:miter;"/>
   </g>
   <g id="patch_338">
    <path clip-path="url(#pa1f4d71c49)" d="M 260.671116 21.06 
L 280.596511 21.06 
L 280.596511 7.2 
L 260.671116 7.2 
z
" style="fill:#d3d3d3;stroke:#d3d3d3;stroke-linejoin:miter;"/>
   </g>
   <g id="patch_339">
    <path clip-path="url(#pa1f4d71c49)" d="M 286.574129 21.06 
L 306.499524 21.06 
L 306.499524 7.2 
L 286.574129 7.2 
z
" style="fill:#d3d3d3;stroke:#d3d3d3;stroke-linejoin:miter;"/>
   </g>
   <g id="patch_340">
    <path clip-path="url(#pa1f4d71c49)" d="M 312.477142 21.06 
L 332.402537 21.06 
L 332.402537 7.2 
L 312.477142 7.2 
z
" style="fill:#d3d3d3;stroke:#d3d3d3;stroke-linejoin:miter;"/>
   </g>
   <g id="matplotlib.axis_5"/>
   <g id="matplotlib.axis_6"/>
  </g>
  <g id="legend_1">
   <g id="patch_341">
    <path d="M 11.2 288.172062 
L 31.2 288.172062 
L 31.2 281.172062 
L 11.2 281.172062 
z
" style="fill:#ffa500;stroke:#ffa500;stroke-linejoin:miter;"/>
   </g>
   <g id="text_3">
    <!-- false negative -->
    <g transform="translate(39.2 288.172062)scale(0.1 -0.1)">
     <defs>
      <path d="M 2375 4863 
L 2375 4384 
L 1825 4384 
Q 1516 4384 1395 4259 
Q 1275 4134 1275 3809 
L 1275 3500 
L 2222 3500 
L 2222 3053 
L 1275 3053 
L 1275 0 
L 697 0 
L 697 3053 
L 147 3053 
L 147 3500 
L 697 3500 
L 697 3744 
Q 697 4328 969 4595 
Q 1241 4863 1831 4863 
L 2375 4863 
z
" id="DejaVuSans-66" transform="scale(0.015625)"/>
      <path d="M 2834 3397 
L 2834 2853 
Q 2591 2978 2328 3040 
Q 2066 3103 1784 3103 
Q 1356 3103 1142 2972 
Q 928 2841 928 2578 
Q 928 2378 1081 2264 
Q 1234 2150 1697 2047 
L 1894 2003 
Q 2506 1872 2764 1633 
Q 3022 1394 3022 966 
Q 3022 478 2636 193 
Q 2250 -91 1575 -91 
Q 1294 -91 989 -36 
Q 684 19 347 128 
L 347 722 
Q 666 556 975 473 
Q 1284 391 1588 391 
Q 1994 391 2212 530 
Q 2431 669 2431 922 
Q 2431 1156 2273 1281 
Q 2116 1406 1581 1522 
L 1381 1569 
Q 847 1681 609 1914 
Q 372 2147 372 2553 
Q 372 3047 722 3315 
Q 1072 3584 1716 3584 
Q 2034 3584 2315 3537 
Q 2597 3491 2834 3397 
z
" id="DejaVuSans-73" transform="scale(0.015625)"/>
      <path id="DejaVuSans-20" transform="scale(0.015625)"/>
      <path d="M 3513 2113 
L 3513 0 
L 2938 0 
L 2938 2094 
Q 2938 2591 2744 2837 
Q 2550 3084 2163 3084 
Q 1697 3084 1428 2787 
Q 1159 2491 1159 1978 
L 1159 0 
L 581 0 
L 581 3500 
L 1159 3500 
L 1159 2956 
Q 1366 3272 1645 3428 
Q 1925 3584 2291 3584 
Q 2894 3584 3203 3211 
Q 3513 2838 3513 2113 
z
" id="DejaVuSans-6e" transform="scale(0.015625)"/>
      <path d="M 2906 1791 
Q 2906 2416 2648 2759 
Q 2391 3103 1925 3103 
Q 1463 3103 1205 2759 
Q 947 2416 947 1791 
Q 947 1169 1205 825 
Q 1463 481 1925 481 
Q 2391 481 2648 825 
Q 2906 1169 2906 1791 
z
M 3481 434 
Q 3481 -459 3084 -895 
Q 2688 -1331 1869 -1331 
Q 1566 -1331 1297 -1286 
Q 1028 -1241 775 -1147 
L 775 -588 
Q 1028 -725 1275 -790 
Q 1522 -856 1778 -856 
Q 2344 -856 2625 -561 
Q 2906 -266 2906 331 
L 2906 616 
Q 2728 306 2450 153 
Q 2172 0 1784 0 
Q 1141 0 747 490 
Q 353 981 353 1791 
Q 353 2603 747 3093 
Q 1141 3584 1784 3584 
Q 2172 3584 2450 3431 
Q 2728 3278 2906 2969 
L 2906 3500 
L 3481 3500 
L 3481 434 
z
" id="DejaVuSans-67" transform="scale(0.015625)"/>
      <path d="M 1172 4494 
L 1172 3500 
L 2356 3500 
L 2356 3053 
L 1172 3053 
L 1172 1153 
Q 1172 725 1289 603 
Q 1406 481 1766 481 
L 2356 481 
L 2356 0 
L 1766 0 
Q 1100 0 847 248 
Q 594 497 594 1153 
L 594 3053 
L 172 3053 
L 172 3500 
L 594 3500 
L 594 4494 
L 1172 4494 
z
" id="DejaVuSans-74" transform="scale(0.015625)"/>
      <path d="M 603 3500 
L 1178 3500 
L 1178 0 
L 603 0 
L 603 3500 
z
M 603 4863 
L 1178 4863 
L 1178 4134 
L 603 4134 
L 603 4863 
z
" id="DejaVuSans-69" transform="scale(0.015625)"/>
      <path d="M 191 3500 
L 800 3500 
L 1894 563 
L 2988 3500 
L 3597 3500 
L 2284 0 
L 1503 0 
L 191 3500 
z
" id="DejaVuSans-76" transform="scale(0.015625)"/>
     </defs>
     <use xlink:href="#DejaVuSans-66"/>
     <use x="35.205078" xlink:href="#DejaVuSans-61"/>
     <use x="96.484375" xlink:href="#DejaVuSans-6c"/>
     <use x="124.267578" xlink:href="#DejaVuSans-73"/>
     <use x="176.367188" xlink:href="#DejaVuSans-65"/>
     <use x="237.890625" xlink:href="#DejaVuSans-20"/>
     <use x="269.677734" xlink:href="#DejaVuSans-6e"/>
     <use x="333.056641" xlink:href="#DejaVuSans-65"/>
     <use x="394.580078" xlink:href="#DejaVuSans-67"/>
     <use x="458.056641" xlink:href="#DejaVuSans-61"/>
     <use x="519.335938" xlink:href="#DejaVuSans-74"/>
     <use x="558.544922" xlink:href="#DejaVuSans-69"/>
     <use x="586.328125" xlink:href="#DejaVuSans-76"/>
     <use x="645.507812" xlink:href="#DejaVuSans-65"/>
    </g>
   </g>
   <g id="patch_342">
    <path d="M 11.2 302.850187 
L 31.2 302.850187 
L 31.2 295.850187 
L 11.2 295.850187 
z
" style="fill:#006400;stroke:#006400;stroke-linejoin:miter;"/>
   </g>
   <g id="text_4">
    <!-- true positive -->
    <g transform="translate(39.2 302.850187)scale(0.1 -0.1)">
     <defs>
      <path d="M 544 1381 
L 544 3500 
L 1119 3500 
L 1119 1403 
Q 1119 906 1312 657 
Q 1506 409 1894 409 
Q 2359 409 2629 706 
Q 2900 1003 2900 1516 
L 2900 3500 
L 3475 3500 
L 3475 0 
L 2900 0 
L 2900 538 
Q 2691 219 2414 64 
Q 2138 -91 1772 -91 
Q 1169 -91 856 284 
Q 544 659 544 1381 
z
M 1991 3584 
L 1991 3584 
z
" id="DejaVuSans-75" transform="scale(0.015625)"/>
      <path d="M 1959 3097 
Q 1497 3097 1228 2736 
Q 959 2375 959 1747 
Q 959 1119 1226 758 
Q 1494 397 1959 397 
Q 2419 397 2687 759 
Q 2956 1122 2956 1747 
Q 2956 2369 2687 2733 
Q 2419 3097 1959 3097 
z
M 1959 3584 
Q 2709 3584 3137 3096 
Q 3566 2609 3566 1747 
Q 3566 888 3137 398 
Q 2709 -91 1959 -91 
Q 1206 -91 779 398 
Q 353 888 353 1747 
Q 353 2609 779 3096 
Q 1206 3584 1959 3584 
z
" id="DejaVuSans-6f" transform="scale(0.015625)"/>
     </defs>
     <use xlink:href="#DejaVuSans-74"/>
     <use x="39.208984" xlink:href="#DejaVuSans-72"/>
     <use x="80.322266" xlink:href="#DejaVuSans-75"/>
     <use x="143.701172" xlink:href="#DejaVuSans-65"/>
     <use x="205.224609" xlink:href="#DejaVuSans-20"/>
     <use x="237.011719" xlink:href="#DejaVuSans-70"/>
     <use x="300.488281" xlink:href="#DejaVuSans-6f"/>
     <use x="361.669922" xlink:href="#DejaVuSans-73"/>
     <use x="413.769531" xlink:href="#DejaVuSans-69"/>
     <use x="441.552734" xlink:href="#DejaVuSans-74"/>
     <use x="480.761719" xlink:href="#DejaVuSans-69"/>
     <use x="508.544922" xlink:href="#DejaVuSans-76"/>
     <use x="567.724609" xlink:href="#DejaVuSans-65"/>
    </g>
   </g>
   <g id="patch_343">
    <path d="M 11.2 317.528312 
L 31.2 317.528312 
L 31.2 310.528312 
L 11.2 310.528312 
z
" style="fill:none;"/>
   </g>
   <g id="text_5">
    <!-- relevant -->
    <g transform="translate(39.2 317.528312)scale(0.1 -0.1)">
     <use xlink:href="#DejaVuSans-72"/>
     <use x="38.863281" xlink:href="#DejaVuSans-65"/>
     <use x="100.386719" xlink:href="#DejaVuSans-6c"/>
     <use x="128.169922" xlink:href="#DejaVuSans-65"/>
     <use x="189.693359" xlink:href="#DejaVuSans-76"/>
     <use x="248.873047" xlink:href="#DejaVuSans-61"/>
     <use x="310.152344" xlink:href="#DejaVuSans-6e"/>
     <use x="373.53125" xlink:href="#DejaVuSans-74"/>
    </g>
   </g>
   <g id="patch_344">
    <path d="M 129.904688 288.172062 
L 149.904688 288.172062 
L 149.904688 281.172062 
L 129.904688 281.172062 
z
" style="fill:#d3d3d3;stroke:#d3d3d3;stroke-linejoin:miter;"/>
   </g>
   <g id="text_6">
    <!-- true negative -->
    <g transform="translate(157.904688 288.172062)scale(0.1 -0.1)">
     <use xlink:href="#DejaVuSans-74"/>
     <use x="39.208984" xlink:href="#DejaVuSans-72"/>
     <use x="80.322266" xlink:href="#DejaVuSans-75"/>
     <use x="143.701172" xlink:href="#DejaVuSans-65"/>
     <use x="205.224609" xlink:href="#DejaVuSans-20"/>
     <use x="237.011719" xlink:href="#DejaVuSans-6e"/>
     <use x="300.390625" xlink:href="#DejaVuSans-65"/>
     <use x="361.914062" xlink:href="#DejaVuSans-67"/>
     <use x="425.390625" xlink:href="#DejaVuSans-61"/>
     <use x="486.669922" xlink:href="#DejaVuSans-74"/>
     <use x="525.878906" xlink:href="#DejaVuSans-69"/>
     <use x="553.662109" xlink:href="#DejaVuSans-76"/>
     <use x="612.841797" xlink:href="#DejaVuSans-65"/>
    </g>
   </g>
   <g id="patch_345">
    <path d="M 129.904688 302.850187 
L 149.904688 302.850187 
L 149.904688 295.850187 
L 129.904688 295.850187 
z
" style="fill:#ff0000;stroke:#ff0000;stroke-linejoin:miter;"/>
   </g>
   <g id="text_7">
    <!-- false positive -->
    <g transform="translate(157.904688 302.850187)scale(0.1 -0.1)">
     <use xlink:href="#DejaVuSans-66"/>
     <use x="35.205078" xlink:href="#DejaVuSans-61"/>
     <use x="96.484375" xlink:href="#DejaVuSans-6c"/>
     <use x="124.267578" xlink:href="#DejaVuSans-73"/>
     <use x="176.367188" xlink:href="#DejaVuSans-65"/>
     <use x="237.890625" xlink:href="#DejaVuSans-20"/>
     <use x="269.677734" xlink:href="#DejaVuSans-70"/>
     <use x="333.154297" xlink:href="#DejaVuSans-6f"/>
     <use x="394.335938" xlink:href="#DejaVuSans-73"/>
     <use x="446.435547" xlink:href="#DejaVuSans-69"/>
     <use x="474.21875" xlink:href="#DejaVuSans-74"/>
     <use x="513.427734" xlink:href="#DejaVuSans-69"/>
     <use x="541.210938" xlink:href="#DejaVuSans-76"/>
     <use x="600.390625" xlink:href="#DejaVuSans-65"/>
    </g>
   </g>
   <g id="patch_346">
    <path d="M 129.904688 317.528312 
L 149.904688 317.528312 
L 149.904688 310.528312 
L 129.904688 310.528312 
z
" style="fill:none;"/>
   </g>
   <g id="text_8">
    <!-- irrelevant -->
    <g transform="translate(157.904688 317.528312)scale(0.1 -0.1)">
     <use xlink:href="#DejaVuSans-69"/>
     <use x="27.783203" xlink:href="#DejaVuSans-72"/>
     <use x="67.146484" xlink:href="#DejaVuSans-72"/>
     <use x="106.009766" xlink:href="#DejaVuSans-65"/>
     <use x="167.533203" xlink:href="#DejaVuSans-6c"/>
     <use x="195.316406" xlink:href="#DejaVuSans-65"/>
     <use x="256.839844" xlink:href="#DejaVuSans-76"/>
     <use x="316.019531" xlink:href="#DejaVuSans-61"/>
     <use x="377.298828" xlink:href="#DejaVuSans-6e"/>
     <use x="440.677734" xlink:href="#DejaVuSans-74"/>
    </g>
   </g>
  </g>
 </g>
 <defs>
  <clipPath id="pa8e6dbf068">
   <rect height="127.270957" width="43.55122" x="341.11278" y="7.2"/>
  </clipPath>
  <clipPath id="p5cfb439632">
   <rect height="127.270957" width="43.55122" x="341.11278" y="146.041043"/>
  </clipPath>
  <clipPath id="pa1f4d71c49">
   <rect height="266.112" width="304.858537" x="27.544" y="7.2"/>
  </clipPath>
 </defs>
</svg>
